<svg width="1183" height="1073" viewBox="0 0 1183 1073" fill="none" xmlns="http://www.w3.org/2000/svg">
<path d="M822.182 49.9632C1027.48 154.481 1188.82 297.207 1283.73 443.447C1378.64 589.701 1407.06 739.375 1346.72 857.885C1286.39 976.395 1148.64 1041.47 974.534 1050.76C800.444 1060.05 590.111 1013.55 384.817 909.037C179.523 804.519 18.1805 661.793 -76.7264 515.553C-171.642 369.299 -200.059 219.626 -139.724 101.116C-79.3887 -17.3946 58.3605 -82.471 232.466 -91.7626C406.556 -101.053 616.888 -54.5548 822.182 49.9632Z" stroke="#862059"/>
<path d="M813.803 48.0231C1018.4 147.745 1180.05 286.346 1276.02 429.796C1372 573.257 1402.23 721.475 1344.2 840.522C1286.18 959.568 1150.8 1027.07 978.674 1039.86C806.557 1052.64 597.794 1010.7 393.196 910.977C188.598 811.255 26.9472 672.654 -69.0203 529.204C-164.996 385.743 -195.226 237.525 -137.202 118.478C-79.1784 -0.568316 56.1951 -68.0703 228.326 -80.8553C400.442 -93.6392 609.205 -51.6989 813.803 48.0231Z" stroke="#862059"/>
<path d="M805.453 46.2565C1009.24 141.251 1171.1 275.771 1268.05 416.442C1365.01 557.125 1397 703.872 1341.28 823.407C1285.57 942.943 1152.61 1012.8 982.517 1029C812.441 1045.2 605.343 1007.74 401.551 912.744C197.76 817.749 35.903 683.229 -61.0485 542.558C-158.008 401.875 -190.001 255.128 -134.281 135.593C-78.561 16.057 54.3987 -53.7995 224.488 -70.0014C394.563 -86.202 601.661 -48.7384 805.453 46.2565Z" stroke="#862059"/>
<path d="M797.136 44.6651C1000.01 135.008 1161.97 265.494 1259.83 403.405C1357.69 541.327 1391.4 686.588 1337.97 806.565C1284.54 926.541 1154.03 998.676 986.05 1018.21C818.08 1037.75 612.743 1004.68 409.866 914.335C206.989 823.992 45.0311 693.506 -52.8262 555.595C-150.691 417.673 -184.394 272.412 -130.968 152.436C-77.5416 32.4594 52.9702 -39.6761 220.953 -59.214C388.923 -78.7504 594.26 -45.6773 797.136 44.6651Z" stroke="#862059"/>
<path d="M788.871 43.2503C990.724 129.021 1152.68 255.528 1251.37 390.7C1350.06 525.881 1385.41 669.647 1334.27 790.015C1283.12 910.383 1155.09 984.722 989.272 1007.51C823.47 1030.3 619.984 1001.52 418.131 915.75C216.277 829.979 54.3191 703.472 -44.364 568.301C-143.054 433.119 -178.41 289.354 -127.264 168.986C-76.1173 48.6177 51.9151 -25.7213 217.73 -48.5102C383.532 -71.2975 587.018 -42.5208 788.871 43.2503Z" stroke="#862059"/>
<path d="M780.667 42.0124C981.391 123.299 1143.25 245.884 1242.67 378.341C1342.11 510.807 1379.06 653.067 1330.17 773.779C1281.29 894.49 1155.76 970.953 992.176 996.904C828.599 1022.85 627.056 998.274 426.332 916.988C225.609 835.702 63.7538 713.117 -35.6742 580.66C-135.109 448.193 -172.059 305.933 -123.175 185.222C-74.2912 64.5111 51.2344 -11.9522 214.822 -37.9033C378.4 -63.8526 579.944 -39.2739 780.667 42.0124Z" stroke="#862059"/>
<path d="M772.539 40.951C972.028 117.845 1133.68 236.572 1233.77 366.343C1333.86 496.123 1372.35 636.871 1325.71 757.876C1279.06 878.882 1156.07 957.388 994.761 986.408C833.465 1015.43 633.949 994.943 434.459 918.05C234.97 841.156 73.3221 722.429 -26.7688 592.658C-126.866 462.878 -165.35 322.13 -118.708 201.124C-72.0662 80.119 50.9294 1.61326 212.236 -27.4074C373.533 -56.4262 573.049 -35.9426 772.539 40.951Z" stroke="#862059"/>
<path d="M764.5 40.065C962.654 112.664 1123.99 227.602 1224.66 354.719C1325.34 481.844 1365.29 621.076 1320.87 742.327C1276.45 863.579 1156 944.044 997.027 976.039C838.062 1008.03 640.656 991.534 442.503 918.936C244.35 846.337 83.011 731.399 -17.66 604.282C-118.337 477.157 -158.291 337.925 -113.867 216.674C-69.4435 95.422 51.002 14.9568 209.977 -17.0378C368.942 -49.0306 566.347 -32.5337 764.5 40.065Z" stroke="#862059"/>
<path d="M756.558 39.3527C953.275 107.759 1114.2 218.982 1215.37 343.48C1316.54 467.986 1357.9 605.699 1315.67 727.149C1273.44 848.599 1155.56 930.938 998.964 965.808C842.378 1000.68 647.163 988.054 450.446 919.648C253.729 851.242 92.8005 740.019 -8.36746 615.52C-109.541 491.014 -150.901 353.301 -108.668 231.851C-66.4353 110.402 51.445 28.0623 208.04 -6.8076C364.626 -41.6754 559.841 -29.0534 756.558 39.3527Z" stroke="#862059"/>
<path d="M748.726 38.8119C943.91 103.133 1104.33 210.718 1205.91 332.637C1307.5 454.564 1350.19 590.759 1310.12 712.359C1270.05 833.96 1154.75 918.087 1000.58 955.731C846.413 993.373 653.462 984.509 458.278 920.188C263.094 855.867 102.676 748.282 1.09405 626.363C-100.493 504.436 -143.191 368.241 -103.119 246.641C-63.0464 125.04 52.2564 40.9126 206.428 3.26882C360.591 -34.3729 553.542 -25.509 748.726 38.8119Z" stroke="#862059"/>
<path d="M741.012 38.4399C934.569 98.7872 1094.38 202.816 1196.29 322.2C1298.21 441.589 1342.17 576.269 1304.23 697.974C1266.28 819.679 1153.57 905.507 1001.86 945.821C850.156 986.133 659.542 980.907 465.984 920.56C272.427 860.213 112.618 756.184 10.7064 636.8C-91.2104 517.411 -135.179 382.731 -97.2338 261.026C-59.2887 139.321 53.4299 53.4929 205.139 13.179C356.84 -27.1328 547.454 -21.9074 741.012 38.4399Z" stroke="#862059"/>
<path d="M733.435 38.2329C925.275 94.7223 1084.38 195.282 1186.54 312.175C1288.7 429.073 1333.87 562.244 1298.02 684.008C1262.16 805.771 1152.03 893.212 1002.82 936.091C853.614 978.967 665.404 977.257 473.563 920.767C281.723 864.278 122.62 763.718 20.4611 646.825C-81.7022 529.927 -126.872 396.756 -91.0172 274.993C-55.1626 153.229 54.9684 65.7878 204.18 22.9096C353.384 -19.9666 541.594 -18.2566 733.435 38.2329Z" stroke="#862059"/>
<path d="M726.002 38.1868C916.039 90.9379 1074.34 188.119 1176.67 302.57C1278.99 417.026 1325.29 548.695 1291.49 670.474C1257.68 792.252 1150.14 881.217 1003.46 926.552C856.782 971.886 671.037 973.565 481 920.813C290.963 868.062 132.66 770.882 30.337 656.43C-71.9901 541.974 -118.289 410.305 -84.4852 288.527C-50.6816 166.748 56.8616 77.7829 203.544 32.4477C350.221 -12.8856 535.965 -14.5644 726.002 38.1868Z" stroke="#862059"/>
<path d="M718.722 38.2962C906.872 87.4317 1064.28 181.327 1166.69 293.389C1269.1 405.455 1316.45 535.634 1284.66 657.384C1252.86 779.134 1147.9 869.534 1003.77 917.217C859.652 964.899 676.431 969.838 488.281 920.703C300.131 871.567 142.721 777.672 40.3163 665.61C-62.0924 553.543 -109.449 423.365 -77.6541 301.615C-45.859 179.865 59.1021 89.4647 203.229 41.7813C347.351 -5.90009 530.572 -10.8393 718.722 38.2962Z" stroke="#862059"/>
<path d="M711.603 38.5584C897.786 84.2042 1054.21 174.911 1156.62 284.639C1259.03 394.37 1307.37 523.071 1277.54 644.751C1247.71 766.431 1145.32 858.178 1003.77 908.099C862.223 958.019 681.58 966.088 495.396 920.442C309.212 874.796 152.784 784.089 50.3793 674.362C-52.0293 564.63 -100.371 435.929 -70.5396 314.25C-40.708 192.57 61.6799 100.823 203.23 50.9012C344.775 0.981505 525.419 -7.08732 711.603 38.5584Z" stroke="#862059"/>
<path d="M704.66 38.9655C888.803 81.25 1044.16 168.868 1146.49 276.32C1248.81 383.775 1298.07 511.013 1270.15 632.582C1242.23 754.151 1142.41 847.157 1003.45 899.206C864.502 951.254 686.484 962.319 502.341 920.035C318.198 877.75 162.84 790.132 60.5152 682.68C-41.8127 575.226 -91.0651 447.987 -63.1493 326.418C-35.2335 204.849 64.5932 111.843 203.548 59.794C342.499 7.7464 520.517 -3.31904 704.66 38.9655Z" stroke="#862059"/>
<path d="M697.897 39.5129C879.928 78.5669 1034.13 163.199 1136.3 268.435C1238.46 373.673 1288.55 499.467 1262.5 620.887C1236.45 742.308 1139.17 836.483 1002.82 890.549C866.481 944.614 691.132 958.542 509.102 919.488C327.071 880.434 172.868 795.802 70.7031 690.566C-31.4649 585.328 -81.5543 459.534 -55.504 338.114C-29.4537 216.693 67.8294 122.518 204.176 68.4516C340.518 14.3872 515.867 0.458858 697.897 39.5129Z" stroke="#862059"/>
<path d="M691.326 40.1928C871.177 76.1489 1024.14 157.901 1126.07 260.983C1228 364.067 1278.85 488.437 1254.61 609.671C1230.38 730.906 1135.62 826.165 1001.89 882.136C868.164 938.106 695.524 954.763 515.672 918.806C335.821 882.85 182.855 801.098 80.9278 698.017C-21.0018 594.932 -71.8535 470.562 -47.6162 349.328C-23.3788 228.093 71.3814 132.834 205.11 76.8629C338.835 20.8929 511.475 4.23666 691.326 40.1928Z" stroke="#862059"/>
<path d="M684.953 41.001C862.563 73.9934 1014.21 152.971 1115.83 253.964C1217.44 354.96 1268.98 477.929 1246.5 598.942C1224.02 719.956 1131.76 816.213 1000.65 873.979C869.55 931.743 699.654 950.991 522.044 917.998C344.435 885.006 192.784 806.029 91.1719 705.035C-10.4423 604.04 -61.9809 481.071 -39.5017 360.057C-17.0224 239.044 75.2392 142.787 206.345 85.0207C337.447 27.2561 507.344 8.0086 684.953 41.001Z" stroke="#862059"/>
<path d="M678.791 41.9298C854.1 72.0938 1004.36 148.407 1105.58 247.378C1206.8 346.351 1258.95 467.943 1238.18 588.703C1217.4 709.462 1127.61 806.632 999.125 866.081C870.646 925.53 703.522 947.234 528.213 917.07C352.904 886.906 202.645 810.593 101.424 711.622C0.200493 612.648 -51.95 491.057 -31.172 370.297C-10.3939 249.538 79.397 152.368 207.879 92.9184C336.358 33.4695 503.482 11.7659 678.791 41.9298Z" stroke="#862059"/>
<path d="M672.837 42.9724C845.792 70.444 994.586 144.203 1095.34 241.221C1196.1 338.241 1248.79 458.482 1229.65 578.956C1210.52 699.43 1123.16 797.428 997.303 858.452C871.444 919.475 707.119 943.499 534.164 916.028C361.209 888.556 212.416 814.797 111.659 717.779C10.9015 620.76 -41.7856 500.518 -22.6498 380.044C-3.51414 259.57 83.8374 161.572 209.698 100.548C335.558 39.5248 499.883 15.5008 672.837 42.9724Z" stroke="#862059"/>
<path d="M667.105 44.1213C837.654 69.0369 984.914 140.352 1085.13 235.487C1185.35 330.623 1238.5 449.544 1220.95 569.703C1203.39 689.862 1118.45 788.607 995.198 851.097C871.952 913.586 710.445 939.794 539.896 914.878C369.346 889.963 222.087 818.647 121.868 723.512C21.6484 628.376 -31.4997 509.456 -13.9457 389.297C3.60835 269.138 88.5553 170.392 211.803 107.903C335.049 45.4136 496.555 19.2057 667.105 44.1213Z" stroke="#862059"/>
<path d="M661.599 45.3699C829.698 67.866 975.355 136.851 1074.97 230.174C1174.58 323.498 1228.11 441.127 1212.08 560.943C1196.04 680.76 1113.46 780.172 992.816 844.02C872.173 907.867 713.502 936.125 545.403 913.629C377.304 891.133 231.647 822.148 132.037 728.825C32.4261 635.501 -21.108 517.873 -5.07333 398.056C10.9614 278.239 93.5415 178.827 214.186 114.979C334.83 51.1317 493.501 22.8737 661.599 45.3699Z" stroke="#862059"/>
<path d="M656.324 46.7121C821.93 66.925 965.921 133.692 1064.85 225.276C1163.79 316.86 1217.63 433.229 1203.05 552.678C1188.47 672.127 1108.22 772.129 990.162 837.229C872.106 902.328 716.283 932.501 550.677 912.289C385.072 892.076 241.08 825.309 142.148 733.725C43.216 642.141 -10.6292 525.771 3.95002 406.323C18.5292 286.874 98.7834 186.872 216.84 121.772C334.895 56.6728 490.719 26.4992 656.324 46.7121Z" stroke="#862059"/>
<path d="M651.285 48.1387C814.36 66.2038 956.624 130.867 1054.81 220.784C1153 310.702 1207.08 425.845 1193.89 544.902C1180.7 663.959 1102.73 764.474 987.242 830.721C871.757 896.969 718.789 928.926 555.715 910.861C392.64 892.796 250.376 828.133 152.19 738.216C54.0044 648.298 -0.0773471 533.155 13.1116 414.098C26.3005 295.041 104.272 194.526 219.758 128.279C335.243 62.0314 488.211 30.0736 651.285 48.1387Z" stroke="#862059"/>
<path d="M646.487 49.6442C806.995 65.696 947.475 128.367 1044.85 216.692C1142.22 305.017 1196.47 418.969 1184.6 537.614C1172.73 656.258 1097 757.211 984.063 824.504C871.127 891.797 721.019 925.408 560.51 909.356C400.002 893.304 259.523 830.633 162.149 742.308C64.7759 653.983 10.5321 540.031 22.3972 421.387C34.2623 302.742 109.998 201.789 222.934 134.496C335.87 67.203 485.978 33.5924 646.487 49.6442Z" stroke="#862059"/>
<path d="M641.935 51.2218C799.846 65.3935 938.485 126.185 1034.98 212.992C1131.48 299.799 1185.81 412.596 1175.2 530.808C1164.59 649.019 1091.04 750.339 980.633 818.578C870.222 886.816 722.975 921.951 565.064 907.779C407.152 893.608 268.514 832.816 172.018 746.009C75.5213 659.202 21.1882 546.405 31.797 428.194C42.4058 309.982 115.955 208.662 226.366 140.423C336.776 72.1852 484.024 37.0502 641.935 51.2218Z" stroke="#862059"/>
<path d="M637.629 52.8637C792.916 65.2868 929.661 124.312 1025.22 209.675C1120.77 295.038 1175.12 406.717 1165.7 524.477C1156.28 642.238 1084.87 743.855 976.956 812.941C869.043 882.027 724.654 918.561 569.366 906.138C414.079 893.714 277.335 834.69 181.778 749.326C86.2215 663.963 31.8731 552.284 41.294 434.524C50.715 316.763 122.127 215.146 230.04 146.06C337.952 76.9743 482.342 40.4406 637.629 52.8637Z" stroke="#862059"/>
<path d="M633.579 54.5629C786.217 65.367 921.019 122.735 1015.57 206.729C1110.13 290.723 1164.42 401.322 1156.12 518.615C1147.82 635.909 1078.49 737.758 973.044 807.595C867.599 877.433 726.061 915.241 573.423 904.437C420.784 893.632 285.982 836.264 191.427 752.27C96.872 668.276 42.581 557.678 50.8833 440.384C59.1857 323.09 128.514 221.242 233.958 151.404C339.402 81.5665 480.941 43.7587 633.579 54.5629Z" stroke="#862059"/>
<path d="M629.78 56.3152C929.768 74.9436 1160.96 279.606 1146.46 513.216C1131.95 746.826 877.211 921.313 577.223 902.685C277.234 884.057 46.0404 679.394 60.5469 445.784C75.0534 212.174 329.792 37.6868 629.78 56.3152Z" stroke="#862059"/>
<path d="M626.234 58.1127C920.842 74.0072 1149.27 275.645 1136.72 508.268C1124.17 740.891 875.373 916.782 580.765 900.887C286.158 884.993 57.7248 683.354 70.2751 450.732C82.8254 218.109 331.626 42.2183 626.234 58.1127Z" stroke="#862059"/>
<path d="M622.948 59.9503C912.143 73.3552 1137.67 272.149 1126.94 503.762C1116.2 735.376 873.249 912.454 584.053 899.049C294.858 885.644 69.3265 686.851 80.0624 455.237C90.7982 223.624 333.752 46.5454 622.948 59.9503Z" stroke="#862059"/>
<path d="M619.917 61.8219C903.674 72.9757 1126.17 269.102 1117.1 499.688C1108.04 730.273 870.838 908.331 587.082 897.177C303.325 886.023 80.8324 689.896 89.8961 459.311C98.9599 228.726 336.161 50.6682 619.917 61.8219Z" stroke="#862059"/>
<path d="M617.146 63.7239C895.441 72.8584 1114.76 266.492 1107.23 496.034C1099.69 725.575 868.147 904.411 589.852 895.276C311.556 886.142 92.2356 692.508 99.7699 462.966C107.304 233.425 338.85 54.5894 617.146 63.7239Z" stroke="#862059"/>
<path d="M614.634 65.6504C887.45 72.9907 1103.47 264.303 1097.32 492.787C1091.17 721.271 865.18 900.691 592.364 893.351C319.548 886.011 103.53 694.698 109.678 466.214C115.825 237.73 341.818 58.3101 614.634 65.6504Z" stroke="#862059"/>
<path d="M612.383 67.5953C879.705 73.3591 1092.29 262.517 1087.39 489.933C1082.49 717.349 861.942 897.168 594.62 891.404C327.298 885.64 114.71 696.482 119.614 469.066C124.517 241.65 345.06 61.8315 612.383 67.5953Z" stroke="#862059"/>
<path d="M610.386 69.5572C872.202 73.9546 1081.24 261.12 1077.43 487.459C1073.63 713.799 858.432 893.839 596.615 889.442C334.799 885.044 125.766 697.879 129.567 471.539C133.369 245.2 348.569 65.1598 610.386 69.5572Z" stroke="#862059"/>
<path d="M608.646 71.5324C864.948 74.7654 1070.3 260.096 1067.46 485.352C1064.62 710.608 854.656 890.7 598.354 887.468C342.052 884.235 136.696 698.904 139.537 473.648C142.378 248.392 352.344 68.2995 608.646 71.5324Z" stroke="#862059"/>
<path d="M607.163 73.5166C857.944 75.7787 1059.5 259.428 1057.48 483.595C1055.46 707.763 850.619 887.746 599.838 885.484C349.057 883.221 147.497 699.572 149.519 475.405C151.541 251.237 356.382 71.2544 607.163 73.5166Z" stroke="#862059"/>
<path d="M605.932 75.5067C851.188 76.983 1048.84 259.096 1047.49 482.172C1046.15 705.248 846.324 884.968 601.069 883.492C355.813 882.016 158.166 699.902 159.509 476.827C160.851 253.751 360.677 74.0304 605.932 75.5067Z" stroke="#862059"/>
<path d="M604.952 77.5031C844.679 78.3696 1038.3 259.088 1037.5 481.069C1036.69 703.051 841.773 882.364 602.046 881.498C362.32 880.631 168.7 699.914 169.502 477.932C170.305 255.95 365.226 76.6366 604.952 77.5031Z" stroke="#862059"/>
<path d="M604.223 79.501C838.419 79.9245 1027.9 259.381 1027.5 480.267C1027.1 701.154 836.973 879.923 602.776 879.5C368.58 879.076 179.101 699.62 179.5 478.734C179.9 257.847 370.027 79.0775 604.223 79.501Z" stroke="#862059"/>
<path d="M603.74 81.5C832.404 81.6378 1017.63 259.959 1017.5 479.75C1017.37 699.54 831.924 877.638 603.26 877.5C374.595 877.362 189.367 699.041 189.5 479.25C189.632 259.459 375.075 81.3621 603.74 81.5Z" stroke="#862059"/>
<path d="M603.5 83.5C826.632 83.5 1007.5 260.805 1007.5 479.5C1007.5 698.195 826.632 875.5 603.5 875.5C380.367 875.5 199.5 698.195 199.5 479.5C199.5 260.805 380.367 83.5 603.5 83.5Z" stroke="#862059"/>
<circle cx="603.5" cy="479.5" r="394" stroke="#862059"/>
</svg>
