<svg width="958" height="930" viewBox="0 0 958 930" fill="none" xmlns="http://www.w3.org/2000/svg">
<circle cx="477.922" cy="464.522" r="278.451" fill="url(#paint0_radial_225_29095)" fill-opacity="0.05"/>
<circle cx="477.922" cy="464.522" r="277.191" stroke="url(#paint1_linear_225_29095)" stroke-opacity="0.2" stroke-width="2.51939"/>
<circle cx="477.922" cy="464.522" r="278.451" fill="white" fill-opacity="0.03"/>
<circle cx="477.922" cy="464.522" r="277.191" stroke="url(#paint2_linear_225_29095)" stroke-opacity="0.2" stroke-width="2.51939"/>
<mask id="path-5-outside-1_225_29095" maskUnits="userSpaceOnUse" x="346.471" y="406.071" width="254" height="122" fill="black">
<rect fill="white" x="346.471" y="406.071" width="254" height="122"/>
<path d="M348.741 526.071L384.716 408.336H417.911L453.885 526.071H430.992L398.942 422.235H403.194L371.634 526.071H348.741ZM370.326 501.543V480.776H432.464V501.543H370.326ZM468.54 526.071V408.336H518.25C519.395 408.336 520.921 408.39 522.829 408.499C524.791 408.554 526.535 408.717 528.062 408.99C535.093 410.08 540.844 412.397 545.313 415.94C549.837 419.482 553.162 423.952 555.288 429.348C557.414 434.69 558.477 440.659 558.477 447.254C558.477 453.849 557.387 459.845 555.206 465.241C553.08 470.583 549.756 475.025 545.231 478.568C540.762 482.111 535.039 484.428 528.062 485.518C526.535 485.736 524.791 485.899 522.829 486.009C520.867 486.118 519.341 486.172 518.25 486.172H490.779V526.071H468.54ZM490.779 465.405H517.269C518.414 465.405 519.668 465.35 521.03 465.241C522.393 465.132 523.647 464.914 524.791 464.587C527.789 463.77 530.106 462.407 531.741 460.499C533.376 458.537 534.494 456.384 535.093 454.04C535.747 451.642 536.074 449.38 536.074 447.254C536.074 445.128 535.747 442.893 535.093 440.55C534.494 438.151 533.376 435.998 531.741 434.09C530.106 432.128 527.789 430.738 524.791 429.921C523.647 429.594 522.393 429.376 521.03 429.267C519.668 429.158 518.414 429.103 517.269 429.103H490.779V465.405ZM576.528 526.071V408.336H598.767V526.071H576.528Z"/>
</mask>
<path d="M348.741 526.071L384.716 408.336H417.911L453.885 526.071H430.992L398.942 422.235H403.194L371.634 526.071H348.741ZM370.326 501.543V480.776H432.464V501.543H370.326ZM468.54 526.071V408.336H518.25C519.395 408.336 520.921 408.39 522.829 408.499C524.791 408.554 526.535 408.717 528.062 408.99C535.093 410.08 540.844 412.397 545.313 415.94C549.837 419.482 553.162 423.952 555.288 429.348C557.414 434.69 558.477 440.659 558.477 447.254C558.477 453.849 557.387 459.845 555.206 465.241C553.08 470.583 549.756 475.025 545.231 478.568C540.762 482.111 535.039 484.428 528.062 485.518C526.535 485.736 524.791 485.899 522.829 486.009C520.867 486.118 519.341 486.172 518.25 486.172H490.779V526.071H468.54ZM490.779 465.405H517.269C518.414 465.405 519.668 465.35 521.03 465.241C522.393 465.132 523.647 464.914 524.791 464.587C527.789 463.77 530.106 462.407 531.741 460.499C533.376 458.537 534.494 456.384 535.093 454.04C535.747 451.642 536.074 449.38 536.074 447.254C536.074 445.128 535.747 442.893 535.093 440.55C534.494 438.151 533.376 435.998 531.741 434.09C530.106 432.128 527.789 430.738 524.791 429.921C523.647 429.594 522.393 429.376 521.03 429.267C519.668 429.158 518.414 429.103 517.269 429.103H490.779V465.405ZM576.528 526.071V408.336H598.767V526.071H576.528Z" fill="url(#paint3_linear_225_29095)" fill-opacity="0.1"/>
<path d="M348.741 526.071L347.519 525.698L347.015 527.349H348.741V526.071ZM384.716 408.336V407.058H383.77L383.494 407.962L384.716 408.336ZM417.911 408.336L419.132 407.962L418.856 407.058H417.911V408.336ZM453.885 526.071V527.349H455.612L455.107 525.698L453.885 526.071ZM430.992 526.071L429.772 526.448L430.05 527.349H430.992V526.071ZM398.942 422.235V420.958H397.211L397.722 422.612L398.942 422.235ZM403.194 422.235L404.416 422.607L404.917 420.958H403.194V422.235ZM371.634 526.071V527.349H372.581L372.856 526.443L371.634 526.071ZM370.326 501.543H369.048V502.821H370.326V501.543ZM370.326 480.776V479.498H369.048V480.776H370.326ZM432.464 480.776H433.742V479.498H432.464V480.776ZM432.464 501.543V502.821H433.742V501.543H432.464ZM348.741 526.071L349.963 526.445L385.938 408.709L384.716 408.336L383.494 407.962L347.519 525.698L348.741 526.071ZM384.716 408.336V409.613H417.911V408.336V407.058H384.716V408.336ZM417.911 408.336L416.689 408.709L452.664 526.445L453.885 526.071L455.107 525.698L419.132 407.962L417.911 408.336ZM453.885 526.071V524.794H430.992V526.071V527.349H453.885V526.071ZM430.992 526.071L432.213 525.695L400.163 421.858L398.942 422.235L397.722 422.612L429.772 526.448L430.992 526.071ZM398.942 422.235V423.513H403.194V422.235V420.958H398.942V422.235ZM403.194 422.235L401.972 421.864L370.412 525.7L371.634 526.071L372.856 526.443L404.416 422.607L403.194 422.235ZM371.634 526.071V524.794H348.741V526.071V527.349H371.634V526.071ZM370.326 501.543H371.603V480.776H370.326H369.048V501.543H370.326ZM370.326 480.776V482.053H432.464V480.776V479.498H370.326V480.776ZM432.464 480.776H431.187V501.543H432.464H433.742V480.776H432.464ZM432.464 501.543V500.266H370.326V501.543V502.821H432.464V501.543ZM468.54 526.071H467.262V527.349H468.54V526.071ZM468.54 408.336V407.058H467.262V408.336H468.54ZM522.829 408.499L522.756 409.775L522.775 409.776L522.793 409.776L522.829 408.499ZM528.062 408.99L527.837 410.247L527.851 410.25L527.866 410.252L528.062 408.99ZM545.313 415.94L544.52 416.941L544.526 416.945L545.313 415.94ZM555.288 429.348L554.099 429.817L554.101 429.821L555.288 429.348ZM555.206 465.241L554.022 464.763L554.019 464.769L555.206 465.241ZM545.231 478.568L544.444 477.562L544.438 477.567L545.231 478.568ZM528.062 485.518L528.242 486.783L528.251 486.781L528.259 486.78L528.062 485.518ZM522.829 486.009L522.9 487.284L522.9 487.284L522.829 486.009ZM490.779 486.172V484.895H489.501V486.172H490.779ZM490.779 526.071V527.349H492.056V526.071H490.779ZM490.779 465.405H489.501V466.682H490.779V465.405ZM521.03 465.241L521.132 466.515L521.132 466.515L521.03 465.241ZM524.791 464.587L524.455 463.355L524.448 463.357L524.44 463.359L524.791 464.587ZM531.741 460.499L532.711 461.331L532.717 461.324L532.722 461.317L531.741 460.499ZM535.093 454.04L533.861 453.704L533.858 453.714L533.855 453.723L535.093 454.04ZM535.093 440.55L533.854 440.859L533.858 440.876L533.863 440.893L535.093 440.55ZM531.741 434.09L530.759 434.908L530.765 434.915L530.771 434.922L531.741 434.09ZM524.791 429.921L524.44 431.149L524.448 431.151L524.455 431.153L524.791 429.921ZM521.03 429.267L520.928 430.54L520.928 430.54L521.03 429.267ZM490.779 429.103V427.826H489.501V429.103H490.779ZM468.54 526.071H469.817V408.336H468.54H467.262V526.071H468.54ZM468.54 408.336V409.613H518.25V408.336V407.058H468.54V408.336ZM518.25 408.336V409.613C519.36 409.613 520.859 409.666 522.756 409.775L522.829 408.499L522.902 407.224C520.984 407.114 519.43 407.058 518.25 407.058V408.336ZM522.829 408.499L522.793 409.776C524.708 409.83 526.387 409.989 527.837 410.247L528.062 408.99L528.286 407.732C526.684 407.446 524.874 407.278 522.864 407.222L522.829 408.499ZM528.062 408.99L527.866 410.252C534.732 411.317 540.261 413.565 544.52 416.941L545.313 415.94L546.107 414.938C541.426 411.228 535.454 408.843 528.257 407.727L528.062 408.99ZM545.313 415.94L544.526 416.945C548.869 420.347 552.056 424.63 554.099 429.817L555.288 429.348L556.477 428.88C554.268 423.274 550.806 418.618 546.101 414.934L545.313 415.94ZM555.288 429.348L554.101 429.821C556.159 434.992 557.199 440.797 557.199 447.254H558.477H559.754C559.754 440.52 558.669 434.388 556.475 428.876L555.288 429.348ZM558.477 447.254H557.199C557.199 453.707 556.133 459.537 554.022 464.763L555.206 465.241L556.391 465.72C558.64 460.153 559.754 453.992 559.754 447.254H558.477ZM555.206 465.241L554.019 464.769C551.977 469.901 548.79 474.159 544.444 477.562L545.231 478.568L546.019 479.574C550.721 475.892 554.184 471.265 556.393 465.714L555.206 465.241ZM545.231 478.568L544.438 477.567C540.178 480.944 534.675 483.192 527.864 484.256L528.062 485.518L528.259 486.78C535.402 485.664 541.346 483.278 546.025 479.569L545.231 478.568ZM528.062 485.518L527.881 484.253C526.399 484.465 524.693 484.625 522.758 484.733L522.829 486.009L522.9 487.284C524.889 487.174 526.671 487.007 528.242 486.783L528.062 485.518ZM522.829 486.009L522.758 484.733C520.804 484.842 519.305 484.895 518.25 484.895V486.172V487.45C519.376 487.45 520.929 487.394 522.9 487.284L522.829 486.009ZM518.25 486.172V484.895H490.779V486.172V487.45H518.25V486.172ZM490.779 486.172H489.501V526.071H490.779H492.056V486.172H490.779ZM490.779 526.071V524.794H468.54V526.071V527.349H490.779V526.071ZM490.779 465.405V466.682H517.269V465.405V464.127H490.779V465.405ZM517.269 465.405V466.682C518.454 466.682 519.742 466.626 521.132 466.515L521.03 465.241L520.928 463.968C519.593 464.075 518.374 464.127 517.269 464.127V465.405ZM521.03 465.241L521.132 466.515C522.567 466.4 523.905 466.169 525.142 465.816L524.791 464.587L524.44 463.359C523.388 463.66 522.219 463.865 520.928 463.968L521.03 465.241ZM524.791 464.587L525.127 465.82C528.313 464.951 530.874 463.474 532.711 461.331L531.741 460.499L530.771 459.668C529.338 461.34 527.265 462.588 524.455 463.355L524.791 464.587ZM531.741 460.499L532.722 461.317C534.472 459.217 535.681 456.895 536.331 454.357L535.093 454.04L533.855 453.723C533.306 455.873 532.28 457.857 530.759 459.681L531.741 460.499ZM535.093 454.04L536.326 454.376C537.005 451.886 537.352 449.511 537.352 447.254H536.074H534.797C534.797 449.249 534.49 451.397 533.861 453.704L535.093 454.04ZM536.074 447.254H537.352C537.352 444.997 537.004 442.646 536.324 440.206L535.093 440.55L533.863 440.893C534.49 443.141 534.797 445.26 534.797 447.254H536.074ZM535.093 440.55L536.332 440.24C535.684 437.646 534.473 435.315 532.711 433.259L531.741 434.09L530.771 434.922C532.279 436.682 533.303 438.657 533.854 440.859L535.093 440.55ZM531.741 434.09L532.722 433.273C530.886 431.069 528.322 429.559 525.127 428.688L524.791 429.921L524.455 431.153C527.256 431.917 529.325 433.187 530.759 434.908L531.741 434.09ZM524.791 429.921L525.142 428.692C523.905 428.339 522.567 428.108 521.132 427.993L521.03 429.267L520.928 430.54C522.219 430.643 523.388 430.848 524.44 431.149L524.791 429.921ZM521.03 429.267L521.132 427.993C519.742 427.882 518.454 427.826 517.269 427.826V429.103V430.381C518.374 430.381 519.593 430.433 520.928 430.54L521.03 429.267ZM517.269 429.103V427.826H490.779V429.103V430.381H517.269V429.103ZM490.779 429.103H489.501V465.405H490.779H492.056V429.103H490.779ZM576.528 526.071H575.25V527.349H576.528V526.071ZM576.528 408.336V407.058H575.25V408.336H576.528ZM598.767 408.336H600.044V407.058H598.767V408.336ZM598.767 526.071V527.349H600.044V526.071H598.767ZM576.528 526.071H577.805V408.336H576.528H575.25V526.071H576.528ZM576.528 408.336V409.613H598.767V408.336V407.058H576.528V408.336ZM598.767 408.336H597.489V526.071H598.767H600.044V408.336H598.767ZM598.767 526.071V524.794H576.528V526.071V527.349H598.767V526.071Z" fill="url(#paint4_linear_225_29095)" fill-opacity="0.2" mask="url(#path-5-outside-1_225_29095)"/>
<g filter="url(#filter0_f_225_29095)">
<path d="M478.875 215.408C624.418 215.408 742.344 326.973 742.344 464.523C742.344 602.073 624.418 713.638 478.875 713.638C333.332 713.638 215.407 602.072 215.407 464.523C215.407 326.973 333.332 215.408 478.875 215.408Z" stroke="url(#paint5_linear_225_29095)" stroke-opacity="0.2" stroke-width="1.25969"/>
</g>
<defs>
<filter id="filter0_f_225_29095" x="-0.000442505" y="4.57764e-05" width="957.751" height="929.045" filterUnits="userSpaceOnUse" color-interpolation-filters="sRGB">
<feFlood flood-opacity="0" result="BackgroundImageFix"/>
<feBlend mode="normal" in="SourceGraphic" in2="BackgroundImageFix" result="shape"/>
<feGaussianBlur stdDeviation="107.389" result="effect1_foregroundBlur_225_29095"/>
</filter>
<radialGradient id="paint0_radial_225_29095" cx="0" cy="0" r="1" gradientUnits="userSpaceOnUse" gradientTransform="translate(477.922 464.522) rotate(90) scale(278.451)">
<stop offset="0.692308" stop-color="#999999" stop-opacity="0"/>
<stop offset="1" stop-color="white" stop-opacity="0.5"/>
</radialGradient>
<linearGradient id="paint1_linear_225_29095" x1="653.243" y1="213.573" x2="361.041" y2="722.348" gradientUnits="userSpaceOnUse">
<stop stop-color="white"/>
<stop offset="0.490385" stop-color="white" stop-opacity="0"/>
<stop offset="1" stop-color="white"/>
</linearGradient>
<linearGradient id="paint2_linear_225_29095" x1="653.243" y1="213.573" x2="361.041" y2="722.348" gradientUnits="userSpaceOnUse">
<stop stop-color="white"/>
<stop offset="0.490385" stop-color="white" stop-opacity="0"/>
<stop offset="1" stop-color="white"/>
</linearGradient>
<linearGradient id="paint3_linear_225_29095" x1="577.971" y1="402.571" x2="370.971" y2="526.071" gradientUnits="userSpaceOnUse">
<stop stop-color="white"/>
<stop offset="1" stop-color="#999999" stop-opacity="0.3"/>
</linearGradient>
<linearGradient id="paint4_linear_225_29095" x1="563.026" y1="363.084" x2="457.377" y2="583.334" gradientUnits="userSpaceOnUse">
<stop stop-color="white"/>
<stop offset="0.490385" stop-color="white" stop-opacity="0"/>
<stop offset="1" stop-color="white"/>
</linearGradient>
<linearGradient id="paint5_linear_225_29095" x1="645.159" y1="239.444" x2="390.65" y2="708.059" gradientUnits="userSpaceOnUse">
<stop stop-color="white"/>
<stop offset="0.490385" stop-color="white" stop-opacity="0"/>
<stop offset="1" stop-color="white"/>
</linearGradient>
</defs>
</svg>
