<svg width="5365" height="1955" viewBox="0 0 5365 1955" fill="none" xmlns="http://www.w3.org/2000/svg">
<g filter="url(#filter0_d_222_28705)">
<path opacity="0.4" d="M2223.25 851.038C2331.31 -420.584 2480.65 -1567.18 2634.75 -2392.99C2711.79 -2805.9 2790.03 -3138.6 2864.88 -3366.64C2902.31 -3480.66 2938.89 -3568.49 2974.03 -3627.08C2991.6 -3656.38 3008.8 -3678.35 3025.55 -3692.62C3042.3 -3706.9 3058.56 -3713.46 3074.26 -3712.04C3089.97 -3710.63 3104.87 -3701.27 3118.96 -3684.21C3133.04 -3667.15 3146.28 -3642.45 3158.64 -3610.45C3183.37 -3546.46 3204.58 -3453.43 3222.21 -3334.45C3257.46 -3096.5 3278.39 -2754.87 3284.63 -2334.45C3297.1 -1493.63 3250.79 -337.761 3142.74 933.862C3034.68 2205.48 2885.34 3352.08 2731.24 4177.89C2654.19 4590.8 2575.96 4923.5 2501.11 5151.54C2463.68 5265.56 2427.1 5353.39 2391.96 5411.98C2374.39 5441.28 2357.19 5463.25 2340.44 5477.52C2323.69 5491.8 2307.43 5498.36 2291.73 5496.94C2276.02 5495.53 2261.12 5486.17 2247.03 5469.11C2232.95 5452.05 2219.71 5427.35 2207.35 5395.35C2182.62 5331.36 2161.41 5238.33 2143.78 5119.35C2108.53 4881.4 2087.59 4539.77 2081.36 4119.35C2068.88 3278.53 2115.2 2122.66 2223.25 851.038Z" stroke="#AB9EFF" stroke-opacity="0.2"/>
<path opacity="0.36" d="M2230.36 810.278C2443.4 -433.65 2686.98 -1550.6 2908.59 -2350.88C3019.39 -2751.03 3124.69 -3071.99 3217.93 -3290.07C3264.55 -3399.11 3308.14 -3482.41 3347.89 -3537.01C3367.76 -3564.32 3386.65 -3584.42 3404.45 -3596.99C3422.26 -3609.56 3438.93 -3614.57 3454.39 -3611.76C3469.85 -3608.95 3483.86 -3598.38 3496.41 -3580.3C3508.97 -3562.22 3520.04 -3536.67 3529.64 -3504.02C3548.85 -3438.71 3562.14 -3345.09 3569.73 -3226.2C3584.9 -2988.44 3577.23 -2649.76 3548.43 -2234.73C3490.82 -1404.67 3348.67 -269.305 3135.63 974.623C2922.59 2218.55 2679.01 3335.5 2457.4 4135.79C2346.6 4535.93 2241.29 4856.89 2148.06 5074.97C2101.44 5184.01 2057.84 5267.31 2018.1 5321.91C1998.23 5349.22 1979.34 5369.33 1961.53 5381.9C1943.73 5394.46 1927.06 5399.47 1911.6 5396.66C1896.13 5393.85 1882.13 5383.28 1869.57 5365.2C1857.02 5347.12 1845.95 5321.57 1836.34 5288.92C1817.14 5223.61 1803.84 5129.99 1796.26 5011.1C1781.09 4773.34 1788.76 4434.66 1817.56 4019.63C1875.17 3189.57 2017.32 2054.21 2230.36 810.278Z" stroke="#AB9EFF" stroke-opacity="0.2"/>
<path opacity="0.41" d="M2240.86 770.476C2555.02 -436.695 2888.99 -1515.91 3174.97 -2284.89C3317.96 -2669.39 3448.94 -2976.31 3559.45 -3182.89C3614.71 -3286.18 3664.84 -3364.36 3708.77 -3414.6C3730.74 -3439.72 3751.13 -3457.84 3769.83 -3468.62C3788.53 -3479.4 3805.48 -3482.82 3820.59 -3478.66C3835.69 -3474.49 3848.71 -3462.8 3859.66 -3443.84C3870.62 -3424.87 3879.49 -3398.69 3886.31 -3365.62C3899.96 -3299.49 3905.4 -3205.99 3903.1 -3088.09C3898.48 -2852.3 3862.86 -2519.06 3799.97 -2112.47C3674.19 -1299.29 3439.31 -192.744 3125.14 1014.43C2810.97 2221.6 2477 3300.81 2191.03 4069.8C2048.04 4454.29 1917.05 4761.22 1806.54 4967.79C1751.28 5071.08 1701.16 5149.26 1657.23 5199.5C1635.26 5224.63 1614.86 5242.74 1596.16 5253.52C1577.47 5264.3 1560.52 5267.73 1545.41 5263.56C1530.3 5259.39 1517.29 5247.7 1506.33 5228.74C1495.37 5209.78 1486.51 5183.59 1479.68 5150.52C1466.03 5084.4 1460.59 4990.89 1462.9 4872.99C1467.52 4637.2 1503.13 4303.97 1566.02 3897.37C1691.81 3084.2 1926.69 1977.65 2240.86 770.476Z" stroke="#AB9EFF" stroke-opacity="0.2"/>
<path opacity="0.51" d="M2254.63 731.927C2665.35 -429.902 3085.19 -1463.75 3431.94 -2196.04C3605.32 -2562.18 3760.43 -2852.92 3886.98 -3046.58C3950.26 -3143.41 4006.38 -3215.94 4054.07 -3261.48C4077.92 -3284.26 4099.63 -3300.26 4119.06 -3309.19C4138.48 -3318.12 4155.57 -3319.96 4170.2 -3314.47C4184.84 -3308.99 4196.78 -3296.27 4206.09 -3276.58C4215.39 -3256.88 4222.04 -3230.25 4226.08 -3197.02C4234.18 -3130.57 4231.89 -3037.87 4219.91 -2921.81C4195.96 -2689.72 4133.26 -2364.35 4037.48 -1969.12C3845.93 -1178.67 3522.09 -108.853 3111.36 1052.98C2700.64 2214.8 2280.8 3248.65 1934.05 3980.94C1760.67 4347.08 1605.57 4637.83 1479.01 4831.48C1415.74 4928.31 1359.61 5000.84 1311.92 5046.39C1288.08 5069.16 1266.36 5085.17 1246.94 5094.1C1227.51 5103.03 1210.43 5104.86 1195.79 5099.38C1181.15 5093.89 1169.21 5081.18 1159.9 5061.48C1150.6 5041.78 1143.96 5015.15 1139.91 4981.93C1131.81 4915.48 1134.1 4822.77 1146.08 4706.72C1170.04 4474.62 1232.74 4149.25 1328.51 3754.02C1520.07 2963.57 1843.91 1893.76 2254.63 731.927Z" stroke="#AB9EFF" stroke-opacity="0.2"/>
<path opacity="0.3" d="M2271.55 694.915C2773.57 -413.527 3274.17 -1394.89 3677.7 -2085.49C3879.46 -2430.79 4056.95 -2703.39 4198.2 -2882.82C4268.83 -2972.54 4330.38 -3038.95 4381.37 -3079.52C4406.87 -3099.8 4429.7 -3113.6 4449.68 -3120.63C4469.66 -3127.66 4486.74 -3127.91 4500.8 -3121.16C4514.86 -3114.41 4525.66 -3100.77 4533.27 -3080.5C4540.89 -3060.22 4545.29 -3033.34 4546.59 -3000.19C4549.18 -2933.91 4539.34 -2842.67 4517.98 -2729.3C4475.27 -2502.55 4386.54 -2187.34 4259.31 -1806.26C4004.86 -1044.09 3596.47 -18.4563 3094.44 1089.99C2592.41 2198.43 2091.82 3179.79 1688.29 3870.39C1486.53 4215.69 1309.04 4488.29 1167.79 4667.72C1097.16 4757.45 1035.6 4823.85 984.617 4864.42C959.122 4884.7 936.293 4898.5 916.31 4905.53C896.33 4912.56 879.244 4912.81 865.185 4906.06C851.125 4899.31 840.325 4885.67 832.713 4865.4C825.1 4845.12 820.695 4818.24 819.398 4785.09C816.804 4718.81 826.649 4627.57 848.005 4514.2C890.717 4287.45 979.452 3972.24 1106.68 3591.16C1361.13 2828.99 1769.52 1803.36 2271.55 694.915Z" stroke="#AB9EFF" stroke-opacity="0.2"/>
<path opacity="0.36" d="M2291.46 659.717C2878.92 -387.886 3454.63 -1310.23 3910.53 -1954.58C4138.49 -2276.76 4336.48 -2529.42 4491 -2693.5C4568.26 -2775.54 4634.64 -2835.41 4688.45 -2870.74C4715.35 -2888.41 4739.09 -2899.93 4759.45 -2905.03C4779.82 -2910.13 4796.76 -2908.81 4810.15 -2900.85C4823.53 -2892.9 4833.12 -2878.45 4839.01 -2857.75C4844.9 -2837.04 4847.08 -2810.11 4845.67 -2777.29C4842.85 -2711.64 4825.68 -2622.52 4795.3 -2512.61C4734.55 -2292.8 4621.02 -1989.93 4464 -1625.59C4149.95 -896.911 3661.98 77.587 3074.53 1125.19C2487.07 2172.79 1911.36 3095.14 1455.46 3739.49C1227.5 4061.66 1029.51 4314.33 874.992 4478.4C797.728 4560.44 731.35 4620.31 677.543 4655.65C650.639 4673.32 626.902 4684.84 606.536 4689.94C586.172 4695.04 569.224 4693.71 555.844 4685.76C542.463 4677.81 532.874 4663.36 526.982 4642.65C521.089 4621.94 518.911 4595.02 520.321 4562.19C523.142 4496.55 540.312 4407.43 570.688 4297.52C631.437 4077.7 744.971 3774.83 901.994 3410.49C1216.04 2681.82 1704.01 1707.32 2291.46 659.717Z" stroke="#AB9EFF" stroke-opacity="0.2"/>
<path opacity="0.31" d="M2314.2 626.574C2980.66 -353.382 3625.34 -1210.77 4128.9 -1804.79C4380.68 -2101.8 4597.16 -2332.95 4763.44 -2480.66C4846.58 -2554.52 4917.14 -2607.5 4973.28 -2637.42C5001.35 -2652.38 5025.78 -2661.56 5046.36 -2664.71C5066.93 -2667.87 5083.6 -2665 5096.21 -2655.91C5108.81 -2646.82 5117.14 -2631.68 5121.29 -2610.69C5125.45 -2589.7 5125.43 -2562.92 5121.37 -2530.65C5113.27 -2466.11 5089.05 -2379.72 5050.07 -2274.02C4972.13 -2062.63 4835.2 -1774.13 4650.23 -1428.95C4280.3 -738.602 3718.26 178.368 3051.8 1158.32C2385.34 2138.28 1740.65 2995.67 1237.09 3589.68C985.315 3886.7 768.831 4117.85 602.556 4265.56C519.415 4339.42 448.849 4392.4 392.716 4422.32C364.648 4437.28 340.214 4446.46 319.637 4449.61C299.063 4452.77 282.392 4449.9 269.786 4440.81C257.181 4431.72 248.856 4416.57 244.7 4395.59C240.543 4374.6 240.566 4347.82 244.62 4315.55C252.728 4251.01 276.945 4164.62 315.919 4058.92C393.865 3847.53 530.798 3559.03 715.765 3213.85C1085.7 2523.5 1647.74 1606.53 2314.2 626.574Z" stroke="#AB9EFF" stroke-opacity="0.2"/>
<path opacity="0.12" d="M2339.54 595.736C3078.08 -310.451 3785.18 -1097.6 4331.38 -1637.68C4604.48 -1907.73 4837.34 -2116 5013.78 -2246.5C5102.01 -2311.75 5176.1 -2357.55 5234.06 -2381.9C5263.04 -2394.08 5287.96 -2400.89 5308.57 -2402.1C5329.18 -2403.31 5345.45 -2398.93 5357.19 -2388.79C5368.93 -2378.65 5375.94 -2362.92 5378.36 -2341.81C5380.78 -2320.7 5378.59 -2294.25 5371.98 -2262.75C5358.74 -2199.76 5327.81 -2116.68 5280.72 -2015.89C5186.53 -1814.33 5027.75 -1542.05 4816.87 -1218.26C4395.11 -570.664 3764.98 282.976 3026.45 1189.16C2287.91 2095.35 1580.81 2882.5 1034.61 3422.58C761.514 3692.63 528.653 3900.9 352.209 4031.4C263.983 4096.65 189.886 4142.45 131.93 4166.8C102.951 4178.98 78.0334 4185.79 57.4195 4187C36.8089 4188.21 20.5441 4183.83 8.8039 4173.69C-2.93638 4163.55 -9.95064 4147.82 -12.3692 4126.71C-14.7882 4105.6 -12.6036 4079.15 -5.98738 4047.65C7.24487 3984.66 38.1792 3901.58 85.2745 3800.79C179.462 3599.23 338.238 3326.95 549.118 3003.16C970.876 2355.56 1601.01 1501.92 2339.54 595.736Z" stroke="#AB9EFF" stroke-opacity="0.2"/>
<path opacity="0.75" d="M2367.3 567.414C3170.56 -259.605 3933.14 -971.903 4516.72 -1454.98C4808.52 -1696.52 5055.55 -1880.74 5240.52 -1993.35C5333.02 -2049.65 5409.97 -2088.03 5469.24 -2106.73C5498.87 -2116.08 5524.06 -2120.49 5544.54 -2119.78C5565.02 -2119.07 5580.75 -2113.23 5591.54 -2102.12C5602.33 -2091.01 5608 -2074.81 5608.69 -2053.73C5609.38 -2032.65 5605.09 -2006.72 5596.01 -1976.21C5577.86 -1915.18 5540.58 -1835.95 5485.89 -1740.73C5376.52 -1550.27 5197.59 -1295.94 4962.99 -995.516C4493.79 -394.673 3801.95 390.467 2998.69 1217.49C2195.43 2044.5 1432.85 2756.8 849.267 3239.88C557.473 3481.42 310.445 3665.64 125.466 3778.25C32.9728 3834.55 -43.9822 3872.93 -103.25 3891.63C-132.884 3900.98 -158.069 3905.39 -178.549 3904.68C-199.026 3903.97 -214.757 3898.14 -225.55 3887.02C-236.343 3875.91 -242.011 3859.71 -242.702 3838.63C-243.393 3817.55 -239.103 3791.62 -230.023 3761.11C-211.865 3700.08 -174.585 3620.85 -119.899 3525.63C-10.5301 3335.17 168.401 3080.84 403.002 2780.42C872.201 2179.57 1564.04 1394.43 2367.3 567.414Z" stroke="#AB9EFF" stroke-opacity="0.2"/>
<path opacity="0.98" d="M2397.22 541.804C3257.49 -201.399 4068.34 -834.947 4683.86 -1258.46C4991.62 -1470.22 5250.54 -1629.45 5442.38 -1723.63C5538.3 -1770.72 5617.43 -1801.54 5677.49 -1814.53C5707.53 -1821.02 5732.77 -1823.05 5752.95 -1820.45C5773.12 -1817.85 5788.19 -1810.62 5797.97 -1798.63C5807.74 -1786.64 5812.03 -1770.1 5811.02 -1749.19C5810 -1728.28 5803.68 -1703.04 5792.25 -1673.72C5769.4 -1615.07 5726.18 -1540.19 5664.48 -1451.11C5541.09 -1272.95 5343.81 -1038.07 5087.82 -762.792C4575.84 -212.236 3829.04 499.893 2968.77 1243.1C2108.5 1986.3 1297.66 2619.85 682.137 3043.36C374.375 3255.12 115.458 3414.35 -76.3825 3508.53C-172.306 3555.62 -251.434 3586.44 -311.5 3599.43C-341.533 3605.92 -366.773 3607.95 -386.951 3605.35C-407.126 3602.75 -422.201 3595.52 -431.972 3583.53C-441.744 3571.54 -446.039 3555 -445.025 3534.09C-444.01 3513.18 -437.685 3487.94 -426.258 3458.62C-403.405 3399.97 -360.191 3325.09 -298.49 3236.01C-175.093 3057.85 22.1806 2822.97 278.172 2547.69C790.151 1997.14 1536.95 1285.01 2397.22 541.804Z" stroke="#AB9EFF" stroke-opacity="0.2"/>
<path opacity="0.57" d="M2429.07 519.081C3338.35 -136.435 4189.99 -688.051 4831.86 -1049.98C5152.8 -1230.95 5421.27 -1364.48 5618.28 -1439.88C5716.78 -1477.57 5797.39 -1500.72 5857.75 -1508C5887.92 -1511.65 5913.01 -1511.32 5932.72 -1506.87C5952.43 -1502.43 5966.74 -1493.88 5975.42 -1481.11C5984.1 -1468.35 5987.01 -1451.58 5984.33 -1431C5981.64 -1410.4 5973.36 -1386.02 5959.72 -1358.07C5932.43 -1302.17 5883.73 -1232.1 5815.63 -1149.69C5679.44 -984.874 5465.74 -770.799 5190.81 -522.192C4640.94 -24.9826 3846.2 610.307 2936.92 1265.82C2027.65 1921.34 1176 2472.95 534.137 2834.88C213.201 3015.85 -55.2752 3149.39 -252.28 3224.78C-350.787 3262.48 -431.397 3285.63 -491.75 3292.91C-521.927 3296.55 -547.012 3296.22 -566.725 3291.78C-586.435 3287.33 -600.738 3278.78 -609.422 3266.02C-618.105 3253.25 -621.015 3236.49 -618.329 3215.9C-615.643 3195.31 -607.364 3170.92 -593.719 3142.97C-566.431 3087.07 -517.732 3017 -449.635 2934.59C-313.445 2769.78 -99.7431 2555.7 175.191 2307.1C725.055 1809.89 1519.79 1174.6 2429.07 519.081Z" stroke="#AB9EFF" stroke-opacity="0.2"/>
<path opacity="0.72" d="M2462.59 499.391C3412.66 -65.3557 4297.47 -532.59 4960 -831.471C5291.27 -980.913 5566.94 -1088.26 5767.41 -1144.66C5867.64 -1172.86 5949.05 -1188.32 6009.19 -1189.95C6039.25 -1190.76 6063.98 -1188.11 6083.07 -1181.89C6102.16 -1175.67 6115.58 -1165.89 6123.12 -1152.44C6130.66 -1139 6132.17 -1122.14 6127.86 -1102.01C6123.55 -1081.88 6113.42 -1058.51 6097.7 -1032.11C6066.26 -979.299 6012.56 -914.444 5938.72 -839.17C5791.04 -688.629 5562.91 -496.499 5271.57 -275.85C4688.91 165.444 3853.49 720.765 2903.42 1285.51C1953.35 1850.26 1068.53 2317.49 406.002 2616.37C74.7357 2765.81 -200.94 2873.16 -401.406 2929.56C-501.642 2957.77 -583.047 2973.22 -643.183 2974.85C-673.251 2975.66 -697.974 2973.02 -717.066 2966.79C-736.154 2960.57 -749.578 2950.79 -757.116 2937.35C-764.654 2923.9 -766.172 2907.04 -761.861 2886.91C-757.549 2866.78 -747.413 2843.41 -731.695 2817.01C-700.26 2764.2 -646.555 2699.35 -572.714 2624.07C-425.038 2473.53 -196.907 2281.4 94.4288 2060.75C677.095 1619.46 1512.52 1064.14 2462.59 499.391Z" stroke="#AB9EFF" stroke-opacity="0.2"/>
<path opacity="0.13" d="M2497.49 482.862C3479.99 11.1647 4390.26 -369.978 5067.71 -604.887C5406.44 -722.343 5686.95 -803.233 5889.17 -840.608C5990.29 -859.296 6071.81 -867.099 6131.23 -863.165C6160.94 -861.198 6185.11 -856.298 6203.43 -848.375C6221.74 -840.454 6234.19 -829.527 6240.53 -815.518C6246.88 -801.508 6247.01 -784.669 6241.13 -765.132C6235.25 -745.59 6223.36 -723.383 6205.73 -698.684C6170.46 -649.286 6112.25 -590.01 6033.35 -522.272C5875.56 -386.8 5635.06 -217.558 5329.94 -25.9005C4719.7 357.411 3851.01 830.345 2868.51 1302.04C1886.01 1773.74 975.745 2154.88 298.291 2389.79C-40.4386 2507.25 -320.948 2588.14 -523.174 2625.51C-624.291 2644.2 -705.807 2652 -765.232 2648.07C-794.945 2646.1 -819.107 2641.2 -837.428 2633.28C-855.744 2625.36 -868.189 2614.43 -874.534 2600.42C-880.879 2586.41 -881.01 2569.57 -875.13 2550.03C-869.249 2530.49 -857.363 2508.29 -839.728 2483.59C-804.457 2434.19 -746.254 2374.91 -667.353 2307.18C-509.556 2171.7 -269.062 2002.46 36.061 1810.8C646.301 1427.49 1514.99 954.558 2497.49 482.862Z" stroke="#AB9EFF" stroke-opacity="0.2"/>
<path opacity="0.81" d="M2533.51 469.649C3540 92.4801 4467.96 -201.597 5154.61 -372.157C5497.94 -457.437 5780.93 -511.832 5983.23 -530.299C6084.39 -539.532 6165.35 -539.78 6223.58 -530.427C6252.7 -525.75 6276.11 -518.676 6293.52 -509.145C6310.92 -499.615 6322.3 -487.646 6327.41 -473.182C6332.53 -458.717 6331.29 -442.02 6323.9 -423.202C6316.52 -404.38 6303 -383.469 6283.61 -360.616C6244.84 -314.911 6182.67 -261.522 6099.42 -201.649C5932.91 -81.9082 5682.17 63.7016 5365.92 225.588C4733.43 549.358 3838.98 938.2 2832.48 1315.37C1825.99 1692.54 898.038 1986.61 211.386 2157.17C-131.944 2242.45 -414.929 2296.85 -617.238 2315.32C-718.396 2324.55 -799.354 2324.8 -857.589 2315.44C-886.707 2310.77 -910.117 2303.69 -927.524 2294.16C-944.928 2284.63 -956.304 2272.66 -961.417 2258.2C-966.53 2243.73 -965.289 2227.04 -957.906 2208.22C-950.522 2189.4 -937.005 2168.49 -917.62 2145.63C-878.849 2099.93 -816.676 2046.54 -733.42 1986.67C-566.914 1866.93 -316.174 1721.32 0.0741482 1559.43C632.564 1235.66 1527.02 846.818 2533.51 469.649Z" stroke="#AB9EFF" stroke-opacity="0.2"/>
<path opacity="0.04" d="M2570.36 459.714C3592.42 177.755 4530.33 -29.0123 5220.51 -135.379C5565.6 -188.562 5848.73 -216.643 6049.48 -216.475C6149.85 -216.391 6229.6 -209.245 6286.19 -194.657C6314.48 -187.362 6336.96 -178.214 6353.32 -167.177C6369.68 -156.143 6379.9 -143.239 6383.76 -128.433C6387.61 -113.627 6385.02 -97.1896 6376.21 -79.2118C6367.4 -61.2299 6352.38 -41.737 6331.42 -20.8553C6289.5 20.908 6223.91 68.15 6137.02 119.895C5963.25 223.382 5704.41 344.82 5379.72 476.41C4730.36 739.587 3817.69 1043.35 2795.64 1325.31C1773.58 1607.26 835.669 1814.03 145.495 1920.4C-199.595 1973.58 -482.733 2001.66 -683.478 2001.49C-783.855 2001.41 -863.602 1994.26 -920.187 1979.68C-948.48 1972.38 -970.955 1963.23 -987.319 1952.2C-1003.68 1941.16 -1013.9 1928.26 -1017.76 1913.45C-1021.61 1898.65 -1019.02 1882.21 -1010.21 1864.23C-1001.4 1846.25 -986.379 1826.76 -965.419 1805.87C-923.5 1764.11 -857.907 1716.87 -771.019 1665.12C-597.25 1561.64 -338.409 1440.2 -13.7245 1308.61C635.639 1045.43 1548.31 741.673 2570.36 459.714Z" stroke="#AB9EFF" stroke-opacity="0.2"/>
<path opacity="0.95" d="M2607.75 453.159C3637.01 266.306 4577.24 146.375 5265.36 103.52C5609.42 82.0932 5890.43 79.9369 6088.02 98.3145C6186.82 107.504 6264.73 121.824 6319.22 141.422C6346.47 151.221 6367.84 162.331 6383.04 174.758C6398.23 187.183 6407.24 200.905 6409.81 215.936C6412.38 230.968 6408.48 247.032 6398.33 264.058C6388.18 281.088 6371.79 299.052 6349.44 317.856C6304.74 355.462 6236.29 396.354 6146.5 439.779C5966.93 526.625 5702.15 623.553 5371.72 724.574C4710.87 926.615 3787.49 1145.01 2758.24 1331.86C1728.99 1518.71 788.749 1638.64 100.632 1681.5C-243.429 1702.93 -524.44 1705.08 -722.026 1686.7C-820.823 1677.52 -898.733 1663.2 -953.229 1643.6C-980.477 1633.8 -1001.85 1622.69 -1017.05 1610.26C-1032.24 1597.84 -1041.24 1584.11 -1043.82 1569.08C-1046.39 1554.05 -1042.49 1537.99 -1032.34 1520.96C-1022.19 1503.93 -1005.8 1485.97 -983.445 1467.16C-938.746 1429.56 -870.292 1388.67 -780.506 1345.24C-600.941 1258.39 -336.16 1161.47 -5.73024 1060.45C655.124 858.405 1578.5 640.012 2607.75 453.159Z" stroke="#AB9EFF" stroke-opacity="0.2"/>
<path opacity="0.92" d="M2645.4 450.007C3673.62 357.388 4608.71 323.122 5289.33 342.592C5629.65 352.327 5906.33 375.497 6099.22 411.517C6195.66 429.528 6271.13 450.747 6323.13 475.09C6349.13 487.262 6369.23 500.205 6383.16 513.898C6397.08 527.589 6404.8 542.008 6406.08 557.148C6407.37 572.288 6402.2 587.869 6390.8 603.84C6379.4 619.815 6361.78 636.155 6338.23 652.79C6291.13 686.06 6220.39 720.449 6128.44 755.43C5944.56 825.388 5675.99 897.671 5342.49 968.101C4675.49 1108.96 3748.83 1242.39 2720.6 1335.01C1692.37 1427.63 757.284 1461.9 76.6613 1442.43C-263.654 1432.69 -540.333 1409.52 -733.222 1373.5C-829.671 1355.49 -905.141 1334.27 -957.136 1309.93C-983.134 1297.76 -1003.24 1284.81 -1017.16 1271.12C-1031.08 1257.43 -1038.8 1243.01 -1040.09 1227.87C-1041.37 1212.73 -1036.2 1197.15 -1024.8 1181.18C-1013.4 1165.21 -995.786 1148.86 -972.237 1132.23C-925.137 1098.96 -854.392 1064.57 -762.446 1029.59C-578.562 959.631 -309.994 887.348 23.5085 816.918C690.508 676.059 1617.17 542.626 2645.4 450.007Z" stroke="#AB9EFF" stroke-opacity="0.2"/>
<path opacity="0.63" d="M2683 450.251C3702.17 450.251 4624.85 499.808 5292.73 579.928C5626.67 619.989 5896.9 667.689 6083.62 720.649C6176.99 747.13 6249.45 774.919 6298.56 803.709C6347.72 832.524 6373.3 862.238 6373.3 892.509C6373.3 922.781 6347.72 952.495 6298.56 981.309C6249.45 1010.1 6176.99 1037.89 6083.62 1064.37C5896.9 1117.33 5626.67 1165.03 5292.73 1205.09C4624.85 1285.21 3702.17 1334.77 2683 1334.77C1663.82 1334.77 741.139 1285.21 73.2598 1205.09C-260.683 1165.03 -530.906 1117.33 -717.634 1064.37C-811.001 1037.89 -883.464 1010.1 -932.575 981.309C-981.726 952.495 -1007.31 922.781 -1007.31 892.509C-1007.31 862.238 -981.726 832.524 -932.575 803.709C-883.464 774.919 -811.001 747.13 -717.634 720.649C-530.906 667.689 -260.683 619.989 73.2598 579.928C741.139 499.808 1663.82 450.251 2683 450.251Z" stroke="#AB9EFF" stroke-opacity="0.2"/>
<path opacity="0.32" d="M2720.27 453.864C3722.64 544.154 4625.93 675.047 5276.04 813.681C5601.1 882.999 5862.85 954.249 6042.03 1023.32C6131.63 1057.86 6200.55 1091.84 6246.43 1124.74C6292.34 1157.68 6315 1189.41 6312.44 1219.44C6309.89 1249.46 6282.22 1276.67 6231.46 1300.89C6180.73 1325.1 6107.12 1346.24 6013.06 1364.23C5824.95 1400.22 5555.16 1423.59 5223.35 1433.74C4559.73 1454.04 3648.09 1421.45 2645.72 1331.16C1643.36 1240.87 740.068 1109.97 89.9561 971.339C-235.103 902.021 -496.85 830.772 -676.034 761.702C-765.629 727.166 -834.555 693.184 -880.428 660.278C-926.339 627.346 -948.999 595.608 -946.447 565.583C-943.896 535.558 -916.227 508.354 -865.46 484.13C-814.734 459.925 -741.124 438.783 -647.065 420.79C-458.953 384.804 -189.167 361.433 142.645 351.284C806.263 330.985 1717.9 363.574 2720.27 453.864Z" stroke="#AB9EFF" stroke-opacity="0.2"/>
<path opacity="0.5" d="M2756.94 460.783C3735.07 638.355 4612.3 847.492 5239.89 1042.07C5553.68 1139.36 5805.05 1233.01 5975.4 1317.24C6060.58 1359.36 6125.48 1399.11 6167.79 1435.77C6210.15 1472.46 6229.73 1505.92 6224.67 1535.47C6219.61 1565.02 6190.09 1589.57 6138.1 1609.14C6086.16 1628.68 6011.97 1643.19 5917.94 1652.77C5729.88 1671.93 5462.56 1671.42 5135.37 1652.34C4481 1614.19 3587.19 1501.81 2609.06 1324.24C1630.93 1146.66 753.697 937.527 126.111 742.949C-187.685 645.658 -439.05 552.013 -609.402 467.781C-694.581 425.663 -759.478 385.911 -801.796 349.25C-844.148 312.56 -863.736 279.097 -858.675 249.546C-853.614 219.994 -824.091 195.446 -772.105 175.882C-720.161 156.334 -645.972 141.833 -551.938 132.25C-363.878 113.084 -96.5639 113.601 230.627 132.677C885.003 170.829 1778.81 283.211 2756.94 460.783Z" stroke="#AB9EFF" stroke-opacity="0.2"/>
<path opacity="0.38" d="M2792.71 470.93C3739.55 732.139 4584.45 1015.86 5185.05 1263.41C5485.35 1387.18 5724.56 1501.91 5884.89 1600.25C5965.06 1649.42 6025.49 1694.48 6063.97 1734.51C6102.48 1774.57 6118.88 1809.45 6111.37 1838.31C6103.86 1867.17 6072.72 1888.93 6019.91 1903.8C5967.15 1918.66 5892.93 1926.58 5799.63 1927.89C5613.01 1930.52 5350.14 1906.73 5029.96 1859.33C4389.61 1764.53 3520.12 1575.29 2573.28 1314.09C1626.44 1052.88 781.543 769.16 180.944 521.612C-119.359 397.836 -358.568 283.11 -518.902 184.769C-599.073 135.597 -659.496 90.5361 -697.977 50.5063C-736.488 10.4452 -752.886 -24.4349 -745.376 -53.2924C-737.866 -82.1498 -706.725 -103.915 -653.919 -118.784C-601.154 -133.642 -526.942 -141.559 -433.633 -142.873C-247.022 -145.5 15.8549 -121.714 336.035 -74.3139C976.387 20.4844 1845.87 209.722 2792.71 470.93Z" stroke="#AB9EFF" stroke-opacity="0.2"/>
<path opacity="0.84" d="M2827.34 484.199C3736.27 824.807 4542.97 1178.92 5112.45 1476.1C5397.19 1624.69 5622.62 1759.03 5771.86 1870.33C5846.48 1925.98 5902.03 1975.85 5936.43 2018.85C5970.86 2061.87 5983.98 2097.85 5974.1 2125.8C5964.22 2153.75 5931.7 2172.63 5878.47 2182.81C5825.28 2192.97 5751.59 2194.41 5659.68 2187.66C5475.87 2174.15 5219.31 2127.88 4908.41 2053.26C4286.63 1904.03 3447.58 1641.43 2538.66 1300.82C1629.73 960.21 823.031 606.096 253.549 308.92C-31.1956 160.33 -256.618 25.9841 -405.86 -85.3146C-480.483 -140.966 -536.036 -190.839 -570.435 -233.83C-604.86 -276.854 -617.981 -312.835 -608.1 -340.784C-598.22 -368.733 -565.706 -387.614 -512.473 -397.79C-459.281 -407.957 -385.59 -409.396 -293.68 -402.642C-109.868 -389.134 146.691 -342.865 457.585 -268.248C1079.37 -119.015 1918.41 143.591 2827.34 484.199Z" stroke="#AB9EFF" stroke-opacity="0.2"/>
<path opacity="0.79" d="M2860.55 500.46C3725.43 915.685 4488.52 1335.53 5023.11 1678.66C5290.41 1850.23 5500.57 2002.6 5637.76 2125.62C5706.36 2187.14 5756.69 2241.29 5786.81 2286.82C5816.94 2332.38 5826.73 2369.14 5814.57 2395.98C5802.42 2422.82 5768.78 2438.73 5715.51 2444.25C5662.28 2449.76 5589.63 2444.87 5499.77 2430.31C5320.05 2401.19 5071.59 2333.38 4772.12 2232.84C4173.19 2031.76 3370.3 1699.78 2505.43 1284.56C1640.55 869.33 877.464 449.485 342.87 106.356C75.5701 -65.2102 -134.588 -217.586 -271.779 -340.608C-340.378 -402.122 -390.71 -456.277 -420.824 -501.804C-450.96 -547.367 -460.742 -584.128 -448.588 -610.964C-436.434 -637.8 -402.794 -653.713 -349.523 -659.232C-296.292 -664.746 -223.646 -659.858 -133.783 -645.295C45.9345 -616.169 294.395 -548.363 593.864 -447.823C1192.8 -246.747 1995.68 85.2337 2860.55 500.46Z" stroke="#AB9EFF" stroke-opacity="0.2"/>
<path opacity="0.14" d="M2892.13 519.562C3707.33 1004.14 4421.9 1484.62 4918.22 1869.73C5166.38 2062.29 5359.96 2231 5484.27 2364.43C5546.43 2431.16 5591.24 2489.04 5616.91 2536.67C5642.59 2584.33 5649 2621.54 5634.69 2647.07C5620.37 2672.6 5585.86 2685.49 5532.93 2686.42C5480.04 2687.35 5408.94 2676.33 5321.74 2654.27C5147.34 2610.15 4908.65 2521.9 4622.6 2396.91C4050.5 2146.93 3289.06 1750.03 2473.86 1265.45C1658.67 780.881 944.093 300.395 447.775 -84.7178C199.614 -277.276 6.03297 -445.979 -118.275 -579.419C-180.432 -646.141 -225.247 -704.025 -250.911 -751.65C-276.595 -799.311 -283.009 -836.529 -268.693 -862.057C-254.378 -887.585 -219.866 -900.474 -166.935 -901.404C-114.043 -902.333 -42.9464 -891.316 44.2554 -869.256C218.652 -825.138 457.346 -736.886 743.397 -611.894C1315.49 -361.914 2076.94 34.9892 2892.13 519.562Z" stroke="#AB9EFF" stroke-opacity="0.2"/>
<path opacity="0.86" d="M2921.83 541.334C3682.27 1089.55 4343.95 1625.21 4799 2048.09C5026.54 2259.53 5202.4 2442.75 5313.12 2585.25C5368.48 2656.49 5407.53 2717.53 5428.63 2766.81C5449.73 2816.12 5452.78 2853.47 5436.43 2877.51C5420.08 2901.54 5384.95 2911.37 5332.73 2907.82C5280.54 2904.26 5211.47 2887.35 5127.51 2858.16C4959.59 2799.78 4732.21 2692.3 4461.41 2544.48C3919.81 2248.85 3204.61 1791.9 2444.17 1243.68C1683.73 695.466 1022.05 159.804 566.992 -263.07C339.461 -474.509 163.602 -657.738 52.8816 -800.23C-2.48057 -871.479 -41.5373 -932.519 -62.6296 -981.793C-83.7378 -1031.1 -86.782 -1068.45 -70.4344 -1092.49C-54.0869 -1116.53 -18.9553 -1126.36 33.2696 -1122.8C85.4552 -1119.25 154.525 -1102.34 238.489 -1073.14C406.409 -1014.76 633.789 -907.285 904.589 -759.468C1446.18 -463.839 2161.39 -6.8808 2921.83 541.334Z" stroke="#AB9EFF" stroke-opacity="0.2"/>
<path opacity="0.61" d="M2949.44 565.586C3650.63 1171.36 4255.58 1756.42 4666.81 2212.62C4872.43 2440.72 5029.61 2636.6 5126.16 2786.73C5174.45 2861.8 5207.56 2925.41 5224 2975.88C5240.45 3026.38 5240.15 3063.55 5221.91 3085.93C5203.68 3108.3 5168.18 3115.06 5117.01 3107.15C5065.89 3099.24 4999.29 3076.72 4919.1 3040.8C4758.73 2968.96 4544.08 2843.61 4290.19 2674.74C3782.42 2337 3117.75 1825.21 2416.56 1219.43C1715.36 613.654 1110.41 28.5975 699.176 -427.604C493.558 -655.707 336.384 -851.583 239.825 -1001.72C191.543 -1076.79 158.434 -1140.39 141.994 -1190.86C125.541 -1241.37 125.839 -1278.53 144.075 -1300.91C162.312 -1323.29 197.811 -1330.04 248.977 -1322.13C300.105 -1314.23 366.697 -1291.7 446.886 -1255.78C607.259 -1183.95 821.909 -1058.6 1075.8 -889.722C1583.57 -551.978 2248.24 -40.1907 2949.44 565.586Z" stroke="#AB9EFF" stroke-opacity="0.2"/>
<path opacity="0.48" d="M2974.76 592.108C3612.84 1249.05 4157.8 1877.46 4523.07 2362.39C4705.71 2604.85 4843.42 2811.43 4925.38 2967.76C4966.36 3045.93 4993.39 3111.51 5005.14 3162.72C5016.9 3213.96 5013.31 3250.63 4993.34 3271.19C4973.37 3291.75 4937.76 3295.44 4887.99 3283.34C4838.25 3271.24 4774.56 3243.41 4698.63 3201.22C4546.79 3116.83 4346.15 2975.05 4110.65 2787.01C3639.65 2410.93 3029.29 1849.85 2391.22 1192.91C1753.15 535.964 1208.19 -92.4436 842.914 -577.371C660.275 -819.837 522.571 -1026.42 440.611 -1182.75C399.63 -1260.92 372.599 -1326.5 360.849 -1377.7C349.091 -1428.95 352.675 -1465.61 372.646 -1486.18C392.616 -1506.74 428.23 -1510.43 478.001 -1498.32C527.736 -1486.22 591.432 -1458.39 667.355 -1416.2C819.196 -1331.82 1019.84 -1190.04 1255.34 -1002C1726.34 -625.918 2336.69 -64.8365 2974.76 592.108Z" stroke="#AB9EFF" stroke-opacity="0.2"/>
<path opacity="0.88" d="M2997.65 620.677C3569.34 1322.14 4051.64 1987.65 4369.26 2496.58C4528.08 2751.04 4645.72 2966.35 4712.78 3127.41C4746.31 3207.95 4767.18 3274.9 4774.24 3326.39C4781.31 3377.92 4774.52 3413.78 4752.98 3432.39C4731.45 3450.99 4695.96 3451.65 4647.9 3435.53C4599.88 3419.43 4539.47 3386.64 4468.25 3338.66C4325.84 3242.7 4140.32 3086.04 3924.5 2880.82C3492.86 2470.39 2940.04 1865.8 2368.35 1164.34C1796.66 462.874 1314.36 -202.638 996.729 -711.564C837.913 -966.03 720.276 -1181.33 653.219 -1342.4C619.688 -1422.94 598.816 -1489.88 591.754 -1541.38C584.687 -1592.9 591.474 -1628.77 613.009 -1647.37C634.545 -1665.98 670.028 -1666.63 718.089 -1650.52C766.114 -1634.42 826.527 -1601.63 897.74 -1553.65C1040.16 -1457.68 1225.67 -1301.02 1441.49 -1095.8C1873.13 -685.376 2425.96 -80.7874 2997.65 620.677Z" stroke="#AB9EFF" stroke-opacity="0.2"/>
<path opacity="0.68" d="M3017.92 651.056C3520.61 1390.21 3938.17 2086.43 4206.91 2614.55C4341.28 2878.61 4438.43 3100.63 4490.42 3264.96C4516.42 3347.13 4531.11 3414.85 4533.53 3466.17C4535.95 3517.54 4526.07 3552.31 4503.15 3568.83C4480.22 3585.36 4445.11 3583.03 4399.06 3563.12C4353.04 3543.22 4296.26 3505.85 4230.15 3452.59C4097.95 3346.09 3928.54 3176.16 3733.49 2955.84C3343.39 2515.22 2850.77 1873.11 2348.08 1133.96C1845.39 394.808 1427.82 -301.416 1159.09 -829.533C1024.71 -1093.59 927.56 -1315.61 875.572 -1479.94C849.576 -1562.11 834.883 -1629.83 832.465 -1681.16C830.046 -1732.52 839.926 -1767.29 862.849 -1783.82C885.772 -1800.34 920.884 -1798.01 966.937 -1778.1C1012.96 -1758.21 1069.74 -1720.83 1135.84 -1667.58C1268.05 -1561.08 1437.45 -1391.15 1632.5 -1170.83C2022.6 -730.202 2515.23 -88.0931 3017.92 651.056Z" stroke="#AB9EFF" stroke-opacity="0.2"/>
<path opacity="0.32" d="M3035.45 682.999C3467.17 1452.87 3818.51 2173.33 4037.57 2715.79C4147.09 2987.03 4223.54 3213.75 4260.42 3379.88C4278.87 3462.95 4287.41 3530.85 4285.27 3581.58C4283.12 3632.34 4270.29 3665.74 4246.16 3680.08C4222.04 3694.41 4187.53 3689.17 4143.76 3665.7C4100.02 3642.24 4047.18 3600.68 3986.53 3542.69C3865.22 3426.74 3712.75 3245.22 3539.36 3011.94C3192.59 2545.39 2762.26 1871.89 2330.54 1102.02C1898.82 332.146 1547.48 -388.314 1328.42 -930.778C1218.9 -1202.01 1142.45 -1428.73 1105.57 -1594.87C1087.12 -1677.94 1078.58 -1745.83 1080.72 -1796.56C1082.87 -1847.32 1095.71 -1880.72 1119.83 -1895.06C1143.95 -1909.4 1178.46 -1904.15 1222.23 -1880.68C1265.97 -1857.22 1318.81 -1815.66 1379.46 -1757.68C1500.77 -1641.72 1653.24 -1460.2 1826.63 -1226.92C2173.4 -760.377 2603.74 -86.874 3035.45 682.999Z" stroke="#AB9EFF" stroke-opacity="0.2"/>
<path opacity="0.42" d="M3050.14 716.241C3409.56 1509.81 3693.81 2248 3862.82 2799.97C3947.32 3075.96 4003.02 3305.38 4024.9 3471.87C4035.84 3555.13 4038.32 3622.62 4031.74 3672.32C4025.15 3722.06 4009.51 3753.82 3984.38 3765.88C3959.25 3777.94 3925.57 3769.87 3884.33 3743.09C3843.12 3716.33 3794.5 3670.99 3739.59 3608.85C3629.77 3484.57 3494.88 3293.18 3343.85 3049.13C3041.8 2561.03 2675.27 1862.35 2315.85 1068.78C1956.43 275.203 1672.19 -462.988 1503.18 -1014.96C1418.67 -1290.95 1362.98 -1520.36 1341.1 -1686.86C1330.16 -1770.11 1327.68 -1837.6 1334.26 -1887.31C1340.85 -1937.05 1356.48 -1968.8 1381.61 -1980.86C1406.74 -1992.93 1440.42 -1984.85 1481.66 -1958.08C1522.88 -1931.32 1571.5 -1885.98 1626.41 -1823.84C1736.22 -1699.56 1871.12 -1508.17 2022.14 -1264.12C2324.19 -776.015 2690.73 -77.3313 3050.14 716.241Z" stroke="#AB9EFF" stroke-opacity="0.2"/>
<path opacity="0.74" d="M3061.9 750.519C3348.34 1560.77 3565.19 2310.21 3684.24 2866.9C3743.77 3145.25 3778.85 3375.39 3785.95 3540.83C3789.5 3623.56 3786.05 3690.08 3775.19 3738.36C3764.32 3786.67 3746.06 3816.54 3720.12 3826.25C3694.19 3835.97 3661.55 3825.17 3623.06 3795.36C3584.6 3765.57 3540.43 3716.89 3491.5 3651.17C3393.65 3519.73 3276.84 3320.22 3148.66 3067.6C2892.31 2562.37 2590.53 1844.74 2304.1 1034.5C2017.66 224.248 1800.81 -525.197 1681.76 -1081.89C1622.23 -1360.23 1587.16 -1590.37 1580.06 -1755.82C1576.51 -1838.54 1579.95 -1905.06 1590.82 -1953.34C1601.69 -2001.65 1619.95 -2031.52 1645.88 -2041.24C1671.81 -2050.96 1704.45 -2040.16 1742.94 -2010.35C1781.4 -1980.55 1825.57 -1931.88 1874.5 -1866.15C1972.35 -1734.72 2089.16 -1535.21 2217.34 -1282.59C2473.69 -777.35 2775.47 -59.7288 3061.9 750.519Z" stroke="#AB9EFF" stroke-opacity="0.2"/>
<path opacity="0.85" d="M3070.66 785.561C3284.06 1605.52 3433.81 2359.83 3503.41 2916.54C3538.21 3194.89 3552.97 3423.83 3545.64 3586.85C3541.98 3668.37 3532.79 3733.38 3517.84 3779.84C3502.87 3826.34 3482.19 3854.1 3455.66 3861.42C3429.13 3868.74 3397.74 3855.34 3362.2 3822.78C3326.69 3790.24 3287.16 3738.67 3244.4 3669.96C3158.88 3532.55 3060.48 3326.69 2955.44 3067.71C2745.36 2549.76 2508.73 1819.41 2295.33 999.454C2081.94 179.494 1932.19 -574.818 1862.59 -1131.52C1827.78 -1409.88 1813.02 -1638.81 1820.35 -1801.84C1824.02 -1883.36 1833.21 -1948.36 1848.16 -1994.83C1863.12 -2041.32 1883.8 -2069.08 1910.34 -2076.4C1936.87 -2083.72 1968.26 -2070.33 2003.8 -2037.76C2039.31 -2005.22 2078.84 -1953.65 2121.6 -1884.94C2207.12 -1747.53 2305.51 -1541.67 2410.55 -1282.69C2620.63 -764.741 2857.27 -34.3999 3070.66 785.561Z" stroke="#AB9EFF" stroke-opacity="0.2"/>
<path opacity="0.4" d="M3076.39 821.09C3217.31 1643.92 3300.8 2396.85 3321.87 2948.99C3332.4 3225.07 3327.33 3450.93 3306.04 3610.23C3295.39 3689.88 3280.69 3752.86 3261.87 3797.15C3243.04 3841.46 3220.16 3866.91 3193.23 3871.8C3166.31 3876.69 3136.35 3860.83 3103.94 3825.82C3071.54 3790.83 3036.81 3736.83 3000.34 3665.73C2927.41 3523.53 2847.62 3313.08 2765.81 3049.94C2602.19 2523.67 2430.52 1786.75 2289.61 963.924C2148.69 141.094 2065.2 -611.832 2044.13 -1163.98C2033.59 -1440.06 2038.66 -1665.92 2059.96 -1825.22C2070.6 -1904.87 2085.3 -1967.85 2104.12 -2012.13C2122.95 -2056.45 2145.83 -2081.9 2172.76 -2086.78C2199.68 -2091.67 2229.64 -2075.82 2262.06 -2040.81C2294.45 -2005.82 2329.19 -1951.81 2365.65 -1880.71C2438.58 -1738.52 2518.37 -1528.06 2600.18 -1264.93C2763.8 -738.659 2935.47 -1.7399 3076.39 821.09Z" stroke="#AB9EFF" stroke-opacity="0.2"/>
<path opacity="0.33" d="M3079.07 856.832C3148.66 1675.86 3167.28 2421.35 3141.13 2964.53C3128.05 3236.12 3103.79 3457.12 3069.1 3611.44C3051.76 3688.61 3031.83 3749.07 3009.4 3790.85C2986.96 3832.65 2962.11 3855.6 2935 3858.04C2907.89 3860.48 2879.54 3842.33 2850.39 3805.17C2821.26 3768.04 2791.43 3712.06 2761.33 3639.17C2701.15 3493.39 2639.98 3280.09 2581.29 3014.96C2463.92 2484.7 2356.53 1747.22 2286.93 928.184C2217.34 109.152 2198.71 -636.332 2224.87 -1179.51C2237.94 -1451.11 2262.21 -1672.11 2296.89 -1826.43C2314.23 -1903.59 2334.17 -1964.06 2356.6 -2005.83C2379.04 -2047.64 2403.89 -2070.59 2431 -2073.03C2458.11 -2075.47 2486.46 -2057.31 2515.61 -2020.16C2544.74 -1983.02 2574.57 -1927.04 2604.66 -1854.15C2664.85 -1708.38 2726.02 -1495.07 2784.7 -1229.94C2902.07 -699.688 3009.47 37.7992 3079.07 856.832Z" stroke="#AB9EFF" stroke-opacity="0.2"/>
<path opacity="0.58" d="M3078.7 892.507C3078.7 1701.31 3034.35 2433.53 2962.66 2963.54C2926.81 3228.55 2884.13 3442.98 2836.74 3591.16C2813.04 3665.25 2788.18 3722.74 2762.43 3761.7C2736.66 3800.68 2710.08 3820.98 2683 3820.98C2655.91 3820.98 2629.34 3800.68 2603.57 3761.7C2577.81 3722.74 2552.95 3665.25 2529.25 3591.16C2481.87 3442.98 2439.18 3228.55 2403.34 2963.54C2331.64 2433.53 2287.3 1701.31 2287.3 892.507C2287.3 83.7088 2331.64 -648.511 2403.34 -1178.52C2439.18 -1443.53 2481.87 -1657.97 2529.25 -1806.14C2552.95 -1880.23 2577.81 -1937.72 2603.57 -1976.68C2629.34 -2015.67 2655.91 -2035.97 2683 -2035.97C2710.08 -2035.97 2736.66 -2015.67 2762.43 -1976.68C2788.18 -1937.72 2813.04 -1880.23 2836.74 -1806.14C2884.13 -1657.97 2926.81 -1443.53 2962.66 -1178.52C3034.35 -648.511 3078.7 83.7088 3078.7 892.507Z" stroke="#AB9EFF" stroke-opacity="0.2"/>
<path opacity="0.73" d="M3075.32 927.847C3007.98 1720.26 2903.05 2433.68 2787.85 2946.55C2730.24 3202.98 2670.07 3409.26 2610.75 3550.2C2581.09 3620.67 2551.66 3674.78 2522.88 3710.65C2494.08 3746.54 2466.05 3764.05 2439.19 3761.63C2412.33 3759.21 2387.68 3736.95 2365.37 3696.46C2343.08 3655.99 2323.22 3597.44 2305.89 3522.74C2271.25 3373.34 2246.78 3159.44 2233.3 2896.59C2206.35 2370.92 2223.34 1649.58 2290.67 857.169C2358.01 64.7598 2462.94 -648.663 2578.14 -1161.53C2635.75 -1417.97 2695.92 -1624.25 2755.24 -1765.18C2784.9 -1835.66 2814.33 -1889.76 2843.11 -1925.63C2871.91 -1961.52 2899.94 -1979.04 2926.8 -1976.62C2953.66 -1974.2 2978.31 -1951.94 3000.62 -1911.44C3022.91 -1870.97 3042.77 -1812.43 3060.09 -1737.72C3094.74 -1588.32 3119.21 -1374.42 3132.69 -1111.58C3159.64 -585.906 3142.65 135.437 3075.32 927.847Z" stroke="#AB9EFF" stroke-opacity="0.2"/>
<path opacity="0.11" d="M3068.98 962.58C2937.08 1732.77 2774.41 2422.19 2618.03 2914.2C2539.85 3160.21 2463.24 3356.85 2392.85 3489.56C2357.66 3555.92 2324.03 3606.26 2292.55 3638.8C2261.06 3671.36 2231.83 3685.98 2205.41 3681.18C2178.98 3676.39 2156.37 3652.35 2137.59 3610.67C2118.82 3569.01 2103.95 3509.86 2092.92 3435.11C2070.86 3285.62 2064.2 3073.86 2072.45 2815.16C2088.95 2297.75 2165.11 1592.63 2297.01 822.435C2428.92 52.2428 2591.59 -637.173 2747.96 -1129.19C2826.15 -1375.2 2902.76 -1571.84 2973.14 -1704.55C3008.34 -1770.9 3041.97 -1821.25 3073.44 -1853.79C3104.93 -1886.34 3134.17 -1900.97 3160.59 -1896.17C3187.02 -1891.37 3209.63 -1867.34 3228.4 -1825.65C3247.17 -1783.99 3262.05 -1724.84 3273.08 -1650.1C3295.14 -1500.61 3301.8 -1288.85 3293.55 -1030.14C3277.05 -512.733 3200.89 192.388 3068.98 962.58Z" stroke="#AB9EFF" stroke-opacity="0.2"/>
<path opacity="0.92" d="M3059.76 996.45C2866.52 1738.97 2649.35 2399.53 2454.46 2867.28C2357.01 3101.15 2265.13 3286.8 2184.61 3410.38C2144.35 3472.17 2106.94 3518.42 2073.11 3547.42C2039.27 3576.44 2009.11 3588.09 1983.32 3580.98C1957.52 3573.86 1937.07 3548.24 1921.85 3505.69C1906.64 3463.16 1896.7 3403.85 1891.84 3329.61C1882.12 3181.14 1892.71 2973.07 1921.9 2720.36C1980.26 2214.95 2112.98 1531.09 2306.23 788.568C2499.47 46.0494 2716.64 -614.516 2911.53 -1082.26C3008.98 -1316.13 3100.86 -1501.78 3181.38 -1625.36C3221.64 -1687.16 3259.05 -1733.4 3292.88 -1762.4C3326.73 -1791.42 3356.88 -1803.08 3382.67 -1795.96C3408.47 -1788.84 3428.92 -1763.23 3444.14 -1720.67C3459.36 -1678.14 3469.29 -1618.84 3474.15 -1544.6C3483.87 -1396.12 3473.28 -1188.05 3444.09 -935.34C3385.73 -429.932 3253.01 253.932 3059.76 996.45Z" stroke="#AB9EFF" stroke-opacity="0.2"/>
<path opacity="0.72" d="M3047.77 1029.2C2796.85 1739 2528.8 2366.27 2298.28 2806.63C2183.02 3026.82 2077.15 3200.26 1987.5 3313.92C1942.67 3370.75 1901.91 3412.62 1866.09 3437.91C1830.25 3463.21 1799.45 3471.85 1774.48 3462.49C1749.5 3453.13 1731.3 3426.13 1719.64 3383.03C1707.99 3339.95 1702.9 3280.9 1704.05 3207.7C1706.33 3061.3 1733.51 2858.37 1782.68 2613.42C1881.02 2123.52 2067.31 1465.61 2318.23 755.815C2569.15 46.0198 2837.2 -581.251 3067.72 -1021.62C3182.98 -1241.8 3288.85 -1415.24 3378.5 -1528.9C3423.33 -1585.74 3464.08 -1627.6 3499.91 -1652.89C3535.75 -1678.2 3566.55 -1686.83 3591.52 -1677.47C3616.5 -1668.11 3634.7 -1641.12 3646.36 -1598.01C3658.01 -1554.93 3663.09 -1495.89 3661.95 -1422.69C3659.67 -1276.28 3632.49 -1073.36 3583.32 -828.403C3484.98 -338.504 3298.69 319.405 3047.77 1029.2Z" stroke="#AB9EFF" stroke-opacity="0.2"/>
<path opacity="0.79" d="M3033.11 1060.6C2728.54 1733.06 2413.57 2323.02 2150.55 2733.24C2019.04 2938.35 1900.53 3098.5 1802.8 3201.57C1753.94 3253.1 1710.3 3290.34 1672.84 3311.79C1635.37 3333.25 1604.22 3338.84 1580.24 3327.33C1556.26 3315.82 1540.4 3287.65 1532.28 3244.3C1524.16 3200.98 1523.82 3142.62 1530.75 3070.95C1544.62 2927.63 1587.6 2731.22 1655.68 2495.65C1791.83 2024.52 2028.32 1396.89 2332.89 724.421C2637.46 51.9532 2952.43 -538.006 3215.45 -948.221C3346.96 -1153.33 3465.47 -1313.49 3563.19 -1416.55C3612.06 -1468.08 3655.7 -1505.32 3693.15 -1526.77C3730.62 -1548.23 3761.78 -1553.82 3785.76 -1542.31C3809.73 -1530.8 3825.6 -1502.63 3833.72 -1459.29C3841.83 -1415.96 3842.18 -1357.6 3835.25 -1285.94C3821.38 -1142.62 3778.4 -946.199 3710.32 -710.632C3574.17 -239.507 3337.68 388.128 3033.11 1060.6Z" stroke="#AB9EFF" stroke-opacity="0.2"/>
<path opacity="0.2" d="M3015.92 1090.41C2662.07 1721.41 2304.42 2270.49 2012.22 2648.14C1866.12 2836.96 1736.4 2982.91 1631.71 3074.81C1579.36 3120.76 1533.29 3153.17 1494.59 3170.69C1455.87 3188.21 1424.62 3190.76 1401.82 3177.2C1379.02 3163.65 1365.55 3134.52 1360.92 3091.23C1356.3 3047.96 1360.53 2990.68 1373.01 2921.03C1397.96 2781.74 1455.86 2593.1 1541.64 2368.41C1713.2 1919.06 1996.23 1325.62 2350.08 694.613C2703.92 63.6062 3061.58 -485.476 3353.77 -863.12C3499.87 -1051.94 3629.6 -1197.89 3734.29 -1289.79C3786.63 -1335.74 3832.7 -1368.15 3871.41 -1385.67C3910.13 -1403.19 3941.37 -1405.74 3964.17 -1392.18C3986.97 -1378.63 4000.45 -1349.5 4005.07 -1306.21C4009.7 -1262.94 4005.46 -1205.66 3992.98 -1136.01C3968.03 -996.717 3910.13 -808.078 3824.35 -583.396C3652.79 -134.04 3369.76 459.4 3015.92 1090.41Z" stroke="#AB9EFF" stroke-opacity="0.2"/>
<path opacity="0.17" d="M2996.36 1118.42C2597.89 1704.32 2202.03 2209.44 1884.13 2552.45C1725.18 2723.96 1585.74 2854.93 1475.22 2935.21C1419.95 2975.35 1371.95 3002.8 1332.37 3016.32C1292.77 3029.84 1261.72 3029.38 1240.25 3013.91C1218.79 2998.43 1207.75 2968.55 1206.55 2925.61C1205.35 2882.7 1213.98 2826.86 1231.72 2759.67C1267.19 2625.28 1339.03 2445.58 1441.2 2233.13C1645.54 1808.26 1971.17 1252.51 2369.64 666.6C2768.11 80.6927 3163.97 -424.421 3481.86 -767.435C3640.81 -938.946 3780.26 -1069.91 3890.78 -1150.19C3946.04 -1190.33 3994.05 -1217.78 4033.63 -1231.3C4073.23 -1244.82 4104.28 -1244.36 4125.74 -1228.89C4147.21 -1213.41 4158.25 -1183.53 4159.45 -1140.6C4160.65 -1097.68 4152.02 -1041.84 4134.28 -974.649C4098.81 -840.264 4026.97 -660.56 3924.8 -448.117C3720.46 -23.2398 3394.83 532.509 2996.36 1118.42Z" stroke="#AB9EFF" stroke-opacity="0.2"/>
<path opacity="0.51" d="M2974.6 1144.43C2536.39 1682.12 2107 2140.66 1767 2447.36C1597 2600.71 1449.37 2716.09 1334.17 2784.42C1276.57 2818.58 1227.11 2840.97 1187.03 2850.47C1146.94 2859.98 1116.35 2856.56 1096.37 2839.3C1076.4 2822.04 1067.82 2791.62 1069.95 2749.32C1072.07 2707.03 1084.9 2652.99 1107.58 2588.66C1152.93 2459.99 1237.66 2290.27 1354.82 2091.27C1589.14 1693.28 1953.18 1178.27 2391.39 640.585C2829.6 102.899 3259 -355.642 3599 -662.342C3769 -815.695 3916.63 -931.071 4031.82 -999.4C4089.42 -1033.57 4138.89 -1055.95 4178.97 -1065.46C4219.06 -1074.96 4249.64 -1071.54 4269.62 -1054.28C4289.6 -1037.02 4298.18 -1006.6 4296.05 -964.303C4293.92 -922.016 4281.1 -867.975 4258.42 -803.64C4213.06 -674.974 4128.34 -505.25 4011.18 -306.251C3776.85 91.7394 3412.82 606.748 2974.6 1144.43Z" stroke="#AB9EFF" stroke-opacity="0.2"/>
<path opacity="0.03" d="M2950.84 1168.27C2477.96 1655.14 2019.84 2065.01 1661.43 2334.09C1482.22 2468.63 1327.96 2567.96 1209.26 2624.12C1149.91 2652.21 1099.47 2669.48 1059.27 2674.99C1019.06 2680.49 989.199 2674.2 970.846 2655.3C952.493 2636.41 946.382 2605.66 951.728 2564.26C957.072 2522.87 973.854 2470.94 1001.13 2409.84C1055.68 2287.63 1152.16 2128.8 1282.84 1944.3C1544.19 1575.29 1942.27 1103.61 2415.16 616.745C2888.04 129.876 3346.16 -279.987 3704.57 -549.067C3883.78 -683.609 4038.04 -782.941 4156.74 -839.105C4216.09 -867.189 4266.52 -884.467 4306.72 -889.969C4346.94 -895.473 4376.8 -889.181 4395.15 -870.286C4413.5 -851.39 4419.62 -820.644 4414.27 -779.241C4408.93 -737.852 4392.14 -685.927 4364.87 -624.819C4310.32 -502.609 4213.84 -343.787 4083.16 -159.279C3821.81 209.731 3423.72 681.405 2950.84 1168.27Z" stroke="#AB9EFF" stroke-opacity="0.2"/>
<path opacity="0.85" d="M2925.27 1189.78C2422.92 1623.77 1940.98 1983.35 1567.89 2213.89C1381.34 2329.16 1222.03 2412.15 1100.99 2456.05C1040.47 2478 989.551 2490.17 949.597 2491.73C909.632 2493.29 880.744 2484.22 864.141 2463.85C847.537 2443.48 843.886 2412.62 852.315 2372.36C860.742 2332.12 881.224 2282.61 912.731 2225.06C975.742 2109.96 1082.79 1962.83 1225.44 1793.7C1510.74 1455.45 1938.37 1029.23 2440.73 595.24C2943.08 161.246 3425.02 -198.338 3798.11 -428.872C3984.66 -544.141 4143.97 -627.134 4265.01 -671.037C4325.53 -692.989 4376.45 -705.158 4416.4 -706.714C4456.37 -708.271 4485.25 -699.209 4501.86 -678.837C4518.46 -658.464 4522.11 -627.601 4513.68 -587.349C4505.26 -547.109 4484.77 -497.592 4453.27 -440.04C4390.26 -324.943 4283.21 -177.82 4140.56 -8.68898C3855.26 329.567 3427.62 755.783 2925.27 1189.78Z" stroke="#AB9EFF" stroke-opacity="0.2"/>
<path opacity="0.94" d="M2898.11 1208.8C2371.56 1588.4 1870.76 1896.61 1486.74 2088.05C1294.72 2183.77 1131.92 2250.29 1009.71 2281.95C948.603 2297.79 897.671 2304.89 858.32 2302.59C818.96 2300.29 791.288 2288.59 776.544 2266.91C761.8 2245.23 760.582 2214.45 771.943 2175.58C783.302 2136.73 807.209 2089.88 842.558 2036.17C913.254 1928.76 1029.65 1794.01 1182.68 1640.98C1488.76 1334.92 1941.34 955.817 2467.89 576.218C2994.44 196.618 3495.24 -111.59 3879.26 -303.032C4071.27 -398.755 4234.07 -465.274 4356.28 -496.935C4417.39 -512.765 4468.32 -519.873 4507.68 -517.573C4547.04 -515.272 4574.71 -503.566 4589.45 -481.887C4604.2 -460.208 4605.41 -429.432 4594.05 -390.565C4582.69 -351.707 4558.79 -304.862 4523.44 -251.154C4452.74 -143.744 4336.35 -8.99034 4183.31 144.041C3877.24 450.099 3424.66 829.203 2898.11 1208.8Z" stroke="#AB9EFF" stroke-opacity="0.2"/>
<path opacity="0.35" d="M2869.57 1225.22C2324.13 1549.45 1809.43 1805.68 1418.2 1957.86C1222.58 2033.95 1057.86 2084.02 935.603 2103.57C874.473 2113.35 823.993 2115.49 785.591 2109.45C747.181 2103.41 720.948 2089.22 708.158 2066.41C695.367 2043.6 696.541 2013.11 710.669 1975.84C724.793 1938.58 751.834 1894.64 790.621 1845.03C868.192 1745.79 992.669 1623.95 1154.48 1487.57C1478.1 1214.83 1950.98 884.016 2496.42 559.792C3041.86 235.568 3556.57 -20.6672 3947.8 -172.846C4143.41 -248.937 4308.14 -299.004 4430.4 -318.554C4491.53 -328.329 4542.01 -330.469 4580.41 -324.434C4618.82 -318.397 4645.05 -304.199 4657.84 -281.391C4670.63 -258.582 4669.46 -228.093 4655.33 -190.827C4641.21 -153.569 4614.16 -109.628 4575.38 -60.0101C4497.81 39.2222 4373.33 161.066 4211.52 297.442C3887.9 570.188 3415.01 901 2869.57 1225.22Z" stroke="#AB9EFF" stroke-opacity="0.2"/>
<path opacity="0.03" d="M2839.9 1238.95C2280.86 1507.35 1757.16 1711.51 1362.39 1824.62C1165 1881.17 999.868 1914.96 878.675 1922.64C818.076 1926.48 768.494 1923.79 731.369 1914.17C694.237 1904.56 669.652 1888.03 658.895 1864.28C648.137 1840.53 651.647 1810.52 668.359 1775.05C685.068 1739.59 714.938 1698.76 756.747 1653.43C840.363 1562.78 971.647 1454.26 1140.61 1334.93C1478.52 1096.28 1967.04 814.47 2526.09 546.071C3085.14 277.672 3608.84 73.5143 4003.61 -39.5957C4201 -96.1517 4366.13 -129.938 4487.32 -137.618C4547.92 -141.458 4597.5 -138.77 4634.63 -129.154C4671.76 -119.536 4696.34 -103.014 4707.1 -79.2615C4717.86 -55.5091 4714.35 -25.5001 4697.64 9.96786C4680.93 45.4298 4651.06 86.2639 4609.25 131.59C4525.63 222.238 4394.35 330.761 4225.39 450.089C3887.48 688.739 3398.95 970.55 2839.9 1238.95Z" stroke="#AB9EFF" stroke-opacity="0.2"/>
<path opacity="0.44" d="M2809.34 1249.89C2241.89 1462.53 1714.02 1614.99 1319.28 1689.58C1121.91 1726.87 957.854 1744.7 838.785 1740.85C779.248 1738.93 730.991 1731.59 695.451 1718.58C659.906 1705.57 637.161 1686.91 628.498 1662.4C619.835 1637.9 625.61 1608.55 644.715 1575.06C663.816 1541.57 696.201 1504.01 740.609 1463.14C829.422 1381.4 966.228 1286.47 1140.71 1184.42C1489.66 980.329 1989.21 747.768 2556.66 535.127C3124.1 322.485 3651.97 170.032 4046.71 95.4425C4244.08 58.147 4408.14 40.3227 4527.21 44.1664C4586.74 46.0883 4635 53.427 4670.54 66.439C4706.09 79.4528 4728.83 98.1096 4737.49 122.616C4746.16 147.122 4740.38 176.466 4721.28 209.959C4702.18 243.447 4669.79 281.006 4625.38 321.88C4536.57 403.624 4399.76 498.545 4225.29 600.595C3876.34 804.69 3376.78 1037.25 2809.34 1249.89Z" stroke="#AB9EFF" stroke-opacity="0.2"/>
<path opacity="0.29" d="M2778.12 1258C2207.37 1415.45 1680 1517.04 1288.76 1553.99C1093.14 1572.47 931.569 1574.79 815.634 1559.87C757.664 1552.41 711.134 1540.64 677.468 1524.44C643.797 1508.24 623.066 1487.66 616.543 1462.59C610.019 1437.52 617.975 1409.02 639.268 1377.66C660.559 1346.3 695.14 1312.16 741.719 1275.85C834.874 1203.25 975.922 1122.08 1154.31 1037.38C1511.08 867.981 2017.13 684.473 2587.88 527.018C3158.63 369.562 3685.99 267.979 4077.23 231.022C4272.86 212.544 4434.43 210.224 4550.36 225.147C4608.33 232.609 4654.86 244.378 4688.53 260.574C4722.2 276.772 4742.93 297.36 4749.45 322.426C4755.98 347.491 4748.02 375.994 4726.73 407.355C4705.44 438.712 4670.86 472.857 4624.28 509.161C4531.12 581.767 4390.07 662.933 4211.68 747.635C3854.91 917.036 3348.87 1100.54 2778.12 1258Z" stroke="#AB9EFF" stroke-opacity="0.2"/>
<path opacity="0.1" d="M2746.49 1263.24C2177.36 1366.56 1655.02 1418.55 1270.57 1419.08C1078.34 1419.35 920.62 1406.75 808.771 1381.28C752.846 1368.55 708.419 1352.61 676.89 1333.46C645.357 1314.32 626.788 1292.02 622.433 1266.59C618.079 1241.16 628.12 1213.67 651.391 1184.57C674.66 1155.48 711.11 1124.86 759.433 1093.2C856.076 1029.88 1000.1 962.503 1180.83 895.063C1542.26 760.187 2050.38 625.101 2619.51 521.781C3188.63 418.461 3710.98 366.473 4095.43 365.94C4287.65 365.673 4445.38 378.272 4557.22 403.738C4613.15 416.471 4657.58 432.416 4689.11 451.558C4720.64 470.702 4739.21 493.003 4743.56 518.431C4747.92 543.858 4737.88 571.353 4714.61 600.446C4691.34 629.537 4654.89 660.164 4606.56 691.824C4509.92 755.14 4365.89 822.518 4185.17 889.957C3823.73 1024.83 3315.61 1159.92 2746.49 1263.24Z" stroke="#AB9EFF" stroke-opacity="0.2"/>
<path opacity="0.89" d="M2714.7 1265.6C2151.92 1316.29 1638.89 1320.37 1264.36 1285.99C1077.09 1268.8 924.484 1241.99 817.607 1206.61C764.166 1188.91 722.188 1169.08 693.034 1147.25C663.877 1125.42 647.602 1101.64 645.427 1076.05C643.252 1050.45 655.269 1024.12 680.301 997.412C705.331 970.702 743.326 943.667 792.971 916.687C892.256 862.729 1038.03 809.048 1219.55 758.638C1582.59 657.821 2088.52 570.114 2651.29 519.421C3214.07 468.728 3727.11 464.65 4101.63 499.031C4288.9 516.221 4441.51 543.025 4548.39 578.413C4601.83 596.108 4643.81 615.939 4672.96 637.768C4702.12 659.598 4718.39 683.38 4720.57 708.972C4722.74 734.565 4710.72 760.895 4685.69 787.606C4660.66 814.316 4622.67 841.351 4573.02 868.331C4473.74 922.289 4327.97 975.971 4146.44 1026.38C3783.41 1127.2 3277.48 1214.9 2714.7 1265.6Z" stroke="#AB9EFF" stroke-opacity="0.2"/>
<path opacity="0.32" d="M2683 1265.09C2131.05 1265.09 1631.37 1223.33 1269.68 1155.82C1088.84 1122.07 942.519 1081.88 841.423 1037.27C790.873 1014.96 751.658 991.562 725.088 967.327C698.517 943.091 684.642 918.068 684.642 892.508C684.642 866.947 698.517 841.925 725.088 817.689C751.658 793.454 790.873 770.054 841.423 747.747C942.519 703.135 1088.84 662.948 1269.68 629.194C1631.37 561.688 2131.05 519.931 2683 519.931C3234.94 519.931 3734.62 561.688 4096.31 629.194C4277.15 662.948 4423.47 703.135 4524.57 747.747C4575.12 770.054 4614.33 793.454 4640.9 817.689C4667.47 841.925 4681.35 866.947 4681.35 892.508C4681.35 918.068 4667.47 943.091 4640.9 967.327C4614.33 991.562 4575.12 1014.96 4524.57 1037.27C4423.47 1081.88 4277.15 1122.07 4096.31 1155.82C3734.62 1223.33 3234.94 1265.09 2683 1265.09Z" stroke="#AB9EFF" stroke-opacity="0.2"/>
<path opacity="0.85" d="M2651.62 1261.74C2114.7 1213.38 1632.15 1128.21 1286 1029.62C1112.92 980.321 973.97 927.674 879.386 874.605C832.092 848.07 795.916 821.443 772.112 795.099C748.306 768.754 736.914 742.74 739.067 717.406C741.22 692.072 756.826 668.491 784.713 646.802C812.599 625.114 852.716 605.36 903.767 587.683C1005.87 552.331 1151.58 525.324 1330.35 507.72C1687.86 472.511 2177.46 474.913 2714.37 523.276C3251.29 571.64 3733.85 656.806 4080 755.398C4253.08 804.696 4392.03 857.344 4486.61 910.412C4533.9 936.948 4570.08 963.574 4593.88 989.919C4617.69 1016.26 4629.08 1042.28 4626.93 1067.61C4624.78 1092.94 4609.17 1116.53 4581.28 1138.22C4553.4 1159.9 4513.28 1179.66 4462.23 1197.33C4360.13 1232.69 4214.41 1259.69 4035.65 1277.3C3678.13 1312.51 3188.54 1310.1 2651.62 1261.74Z" stroke="#AB9EFF" stroke-opacity="0.2"/>
<path opacity="0.42" d="M2620.81 1255.61C2102.81 1161.58 1640.84 1035.75 1312.67 908.334C1148.58 844.626 1017.97 780.531 930.541 719.831C886.825 689.48 853.93 659.994 833.041 631.85C812.152 603.706 803.304 576.955 807.571 552.039C811.838 527.124 829.039 505.102 858.017 486.012C886.996 466.921 927.702 450.797 978.864 437.67C1081.18 411.418 1225.21 397.181 1400.57 395.096C1751.27 390.927 2227.18 435.366 2745.18 529.405C3263.18 623.443 3725.16 749.272 4053.33 876.685C4217.41 940.392 4348.02 1004.49 4435.45 1065.19C4479.17 1095.54 4512.06 1125.02 4532.95 1153.17C4553.84 1181.31 4562.69 1208.06 4558.42 1232.98C4554.16 1257.89 4536.96 1279.92 4507.98 1299.01C4479 1318.1 4438.29 1334.22 4387.13 1347.35C4284.81 1373.6 4140.78 1387.84 3965.43 1389.92C3614.73 1394.09 3138.81 1349.65 2620.81 1255.61Z" stroke="#AB9EFF" stroke-opacity="0.2"/>
<path opacity="0.68" d="M2590.8 1246.78C2095.26 1110.08 1656.99 946.613 1348.99 792.843C1194.98 715.956 1073.57 641.505 993.847 574.048C953.987 540.319 924.573 508.358 906.718 478.736C888.864 449.114 882.597 421.884 888.924 397.572C895.251 373.26 913.903 352.903 943.751 336.441C973.599 319.979 1014.59 307.441 1065.49 298.751C1167.29 281.37 1308.6 279.396 1479.31 292.091C1820.73 317.48 2279.66 401.533 2775.2 538.237C3270.73 674.941 3709 838.406 4017 992.176C4171.01 1069.06 4292.43 1143.51 4372.14 1210.97C4412 1244.7 4441.42 1276.66 4459.27 1306.28C4477.13 1335.91 4483.39 1363.14 4477.07 1387.45C4470.74 1411.76 4452.09 1432.12 4422.24 1448.58C4392.39 1465.04 4351.4 1477.58 4300.5 1486.27C4198.7 1503.65 4057.39 1505.62 3886.68 1492.93C3545.27 1467.54 3086.33 1383.49 2590.8 1246.78Z" stroke="#AB9EFF" stroke-opacity="0.2"/>
<path opacity="0.01" d="M2561.81 1235.34C2091.93 1059.26 1680.13 861.431 1394.19 683.932C1251.22 595.18 1139.73 511.525 1068.19 438.228C1032.41 401.579 1006.64 367.54 991.91 336.768C977.178 305.997 973.501 278.543 981.819 255.014C990.137 231.485 1010.09 212.888 1040.59 199.066C1071.09 185.244 1112.08 176.222 1162.36 171.823C1262.93 163.023 1400.56 172.72 1565.5 199.352C1895.36 252.615 2334.32 373.597 2804.2 549.676C3274.08 725.756 3685.87 923.585 3971.81 1101.08C4114.79 1189.84 4226.27 1273.49 4297.82 1346.79C4333.59 1383.44 4359.36 1417.48 4374.09 1448.25C4388.83 1479.02 4392.5 1506.47 4384.19 1530C4375.87 1553.53 4355.91 1572.13 4325.41 1585.95C4294.92 1599.77 4253.93 1608.79 4203.64 1613.19C4103.07 1621.99 3965.44 1612.3 3800.51 1585.66C3470.65 1532.4 3031.68 1411.42 2561.81 1235.34Z" stroke="#AB9EFF" stroke-opacity="0.2"/>
<path opacity="0.76" d="M2534.04 1221.4C2092.62 1009.48 1709.69 780.759 1447.43 582.296C1316.3 483.062 1215.35 391.408 1152.34 313.215C1120.84 274.118 1098.83 238.409 1087.28 206.819C1075.72 175.231 1074.62 147.811 1084.85 125.236C1095.07 102.662 1116.18 85.902 1147.11 74.7124C1178.04 63.5221 1218.75 57.9212 1268.1 57.6383C1366.78 57.0726 1499.86 77.775 1657.98 117.414C1974.22 196.691 2390.54 351.685 2831.96 563.611C3273.38 775.537 3656.3 1004.26 3918.56 1202.72C4049.7 1301.95 4150.64 1393.61 4213.65 1471.8C4245.16 1510.9 4267.16 1546.61 4278.72 1578.2C4290.28 1609.79 4291.37 1637.21 4281.15 1659.78C4270.92 1682.35 4249.82 1699.11 4218.89 1710.3C4187.95 1721.49 4147.24 1727.09 4097.9 1727.38C3999.22 1727.94 3866.14 1707.24 3708.01 1667.6C3391.77 1588.33 2975.46 1433.33 2534.04 1221.4Z" stroke="#AB9EFF" stroke-opacity="0.2"/>
<path opacity="0.87" d="M2507.7 1205.05C2097.14 961.003 1745.1 705.029 1507.84 488.47C1389.2 380.187 1299.28 281.776 1245.07 199.653C1217.97 158.59 1199.82 121.623 1191.46 89.5487C1183.1 57.4759 1184.55 30.3417 1196.58 8.88367C1208.61 -12.5743 1230.71 -27.4318 1261.87 -36.0155C1293.03 -44.5996 1333.2 -46.8951 1381.29 -43.2611C1477.47 -35.9931 1605.21 -5.01781 1755.61 46.6224C2056.4 149.9 2447.73 335.8 2858.29 579.849C3268.85 823.897 3620.89 1079.87 3858.15 1296.43C3976.79 1404.71 4066.71 1503.12 4120.92 1585.25C4148.02 1626.31 4166.17 1663.28 4174.53 1695.35C4182.89 1727.42 4181.44 1754.56 4169.41 1776.02C4157.38 1797.47 4135.28 1812.33 4104.12 1820.92C4072.96 1829.5 4032.79 1831.79 3984.7 1828.16C3888.52 1820.89 3760.78 1789.92 3610.38 1738.28C3309.59 1635 2918.26 1449.1 2507.7 1205.05Z" stroke="#AB9EFF" stroke-opacity="0.2"/>
<path opacity="0.08" d="M2482.98 1186.55C2105.28 914.25 1785.75 634.778 1574.49 403.062C1468.86 287.201 1390.31 183.299 1345.09 98.2188C1322.47 55.6781 1308.2 17.8683 1303.03 -14.3612C1297.87 -46.5883 1301.8 -73.1901 1315.53 -93.3796C1329.26 -113.569 1352.19 -126.473 1383.38 -132.494C1414.56 -138.515 1453.95 -137.642 1500.51 -130.313C1593.63 -115.657 1715.33 -75.1987 1857.2 -12.627C2140.94 112.513 2505.3 326.059 2883.01 598.356C3260.72 870.652 3580.24 1150.13 3791.5 1381.84C3897.13 1497.7 3975.68 1601.6 4020.9 1686.68C4043.52 1729.22 4057.79 1767.03 4062.96 1799.26C4068.13 1831.49 4064.19 1858.09 4050.46 1878.28C4036.73 1898.47 4013.8 1911.38 3982.62 1917.4C3951.43 1923.42 3912.04 1922.54 3865.48 1915.22C3772.36 1900.56 3650.66 1860.1 3508.79 1797.53C3225.05 1672.39 2860.69 1458.84 2482.98 1186.55Z" stroke="#AB9EFF" stroke-opacity="0.2"/>
<path opacity="0.44" d="M2460.06 1166C2116.78 869.433 1831 570.294 1646.46 326.401C1554.18 204.45 1487.24 96.3341 1451.06 9.27178C1432.97 -34.26 1422.59 -72.5019 1420.57 -104.562C1418.55 -136.619 1424.88 -162.452 1440.19 -181.232C1455.5 -200.013 1479.1 -210.925 1510.12 -214.442C1541.14 -217.958 1579.52 -214.071 1624.3 -203.29C1713.86 -181.73 1828.9 -132.625 1961.57 -60.2405C2226.9 84.5241 2562.66 322.344 2905.94 618.908C3249.21 915.472 3535 1214.61 3719.54 1458.5C3811.81 1580.45 3878.76 1688.57 3914.94 1775.63C3933.02 1819.17 3943.41 1857.41 3945.43 1889.47C3947.45 1921.52 3941.11 1947.36 3925.81 1966.14C3910.5 1984.92 3886.89 1995.83 3855.88 1999.35C3824.86 2002.86 3786.48 1998.98 3741.7 1988.2C3652.14 1966.64 3537.1 1917.53 3404.43 1845.14C3139.1 1700.38 2803.34 1462.56 2460.06 1166Z" stroke="#AB9EFF" stroke-opacity="0.2"/>
<path opacity="0.54" d="M2439.08 1143.58C2131.39 826.79 1880.18 511.853 1722.76 258.768C1644.05 132.222 1588.79 21.1621 1561.65 -66.919C1548.08 -110.96 1541.54 -149.23 1542.59 -180.804C1543.65 -212.375 1552.29 -237.212 1569.04 -254.455C1585.79 -271.698 1609.91 -280.596 1640.57 -281.682C1671.24 -282.768 1708.41 -276.037 1751.19 -262.063C1836.74 -234.115 1944.61 -177.231 2067.52 -96.189C2313.33 65.8897 2619.22 324.531 2926.91 641.322C3234.6 958.112 3485.81 1273.05 3643.24 1526.13C3721.95 1652.68 3777.2 1763.74 3804.34 1851.82C3817.92 1895.86 3824.45 1934.13 3823.4 1965.71C3822.34 1997.28 3813.7 2022.11 3796.95 2039.36C3780.21 2056.6 3756.08 2065.5 3725.42 2066.58C3694.75 2067.67 3657.58 2060.94 3614.81 2046.96C3529.25 2019.02 3421.39 1962.13 3298.48 1881.09C3052.66 1719.01 2746.77 1460.37 2439.08 1143.58Z" stroke="#AB9EFF" stroke-opacity="0.2"/>
<path opacity="0.64" d="M2420.19 1119.49C2148.83 786.533 1932.63 459.66 1802.44 200.345C1737.34 70.6846 1693.76 -42.0607 1675.53 -130.217C1666.41 -174.296 1663.64 -212.201 1667.67 -242.985C1671.7 -273.766 1682.53 -297.392 1700.58 -312.983C1718.62 -328.573 1743.1 -335.447 1773.24 -334.189C1803.39 -332.931 1839.16 -323.539 1879.74 -306.643C1960.9 -272.851 2061.18 -209.085 2173.89 -120.564C2399.32 56.4725 2674.44 332.45 2945.8 665.409C3217.16 998.367 3433.36 1325.24 3563.56 1584.56C3628.65 1714.22 3672.24 1826.96 3690.47 1915.12C3699.58 1959.2 3702.35 1997.1 3698.32 2027.89C3694.29 2058.67 3683.46 2082.29 3665.42 2097.88C3647.37 2113.47 3622.89 2120.35 3592.75 2119.09C3562.6 2117.83 3526.83 2108.44 3486.25 2091.54C3405.09 2057.75 3304.82 1993.99 3192.1 1905.47C2966.67 1728.43 2691.55 1452.45 2420.19 1119.49Z" stroke="#AB9EFF" stroke-opacity="0.2"/>
<path opacity="0.83" d="M2403.52 1093.94C2168.82 748.841 1987.67 413.845 1884.53 151.209C1832.95 19.8875 1800.89 -93.3167 1791.37 -180.634C1786.61 -224.293 1787.49 -261.453 1794.37 -291.159C1801.25 -320.86 1814.12 -343.077 1833.31 -356.914C1852.51 -370.751 1877.19 -375.601 1906.65 -372.098C1936.11 -368.594 1970.33 -356.737 2008.55 -337.2C2084.99 -298.127 2177.34 -228.388 2279.56 -133.576C2483.99 56.0433 2727.78 345.873 2962.48 690.968C3197.18 1036.06 3378.32 1371.06 3481.47 1633.69C3533.04 1765.02 3565.1 1878.22 3574.62 1965.54C3579.38 2009.2 3578.5 2046.36 3571.62 2076.06C3564.74 2105.76 3551.88 2127.98 3532.68 2141.82C3513.49 2155.65 3488.81 2160.51 3459.35 2157C3429.88 2153.5 3395.67 2141.64 3357.45 2122.1C3281.01 2083.03 3188.65 2013.29 3086.44 1918.48C2882.01 1728.86 2638.21 1439.03 2403.52 1093.94Z" stroke="#AB9EFF" stroke-opacity="0.2"/>
<path opacity="0.22" d="M2389.15 1067.12C2191.05 713.85 2044.64 374.459 1968.08 111.327C1929.8 -20.2432 1908.99 -132.721 1907.89 -218.322C1907.34 -261.123 1911.72 -297.179 1921.3 -325.533C1930.87 -353.883 1945.62 -374.505 1965.8 -386.502C1985.99 -398.499 2010.71 -401.343 2039.34 -395.704C2067.98 -390.063 2100.5 -375.942 2136.23 -354.053C2207.68 -310.274 2291.89 -235.477 2383.41 -135.558C2566.46 64.275 2778.74 364.509 2976.84 717.779C3174.94 1071.05 3321.35 1410.44 3397.91 1673.57C3436.19 1805.14 3457.01 1917.62 3458.1 2003.22C3458.65 2046.02 3454.27 2082.08 3444.69 2110.43C3435.12 2138.78 3420.37 2159.41 3400.19 2171.4C3380 2183.4 3355.28 2186.24 3326.65 2180.6C3298.01 2174.96 3265.49 2160.84 3229.76 2138.95C3158.31 2095.17 3074.1 2020.38 2982.58 1920.46C2799.53 1720.62 2587.25 1420.39 2389.15 1067.12Z" stroke="#AB9EFF" stroke-opacity="0.2"/>
<path opacity="0.73" d="M2377.19 1039.27C2215.23 681.678 2102.89 341.498 2052.18 80.5816C2026.82 -49.8803 2016.88 -160.497 2023.83 -243.553C2030.79 -326.656 2054.65 -381.965 2096.66 -402.137C2138.68 -422.31 2195.17 -405.571 2261.47 -357.642C2327.74 -309.739 2403.65 -230.795 2484.42 -126.937C2645.95 80.7725 2826.85 388.039 2988.81 745.631C3150.76 1103.22 3263.11 1443.4 3313.82 1704.32C3339.17 1834.78 3349.11 1945.4 3342.16 2028.45C3335.2 2111.56 3311.35 2166.86 3269.33 2187.04C3227.31 2207.21 3170.83 2190.47 3104.53 2142.54C3038.26 2094.64 2962.35 2015.69 2881.58 1911.84C2720.04 1704.13 2539.15 1396.86 2377.19 1039.27Z" stroke="#AB9EFF" stroke-opacity="0.2"/>
<path opacity="0.02" d="M2367.69 1010.61C2241.06 652.402 2161.76 314.878 2135.92 58.7537C2123 -69.3124 2123.44 -176.999 2138 -256.735C2152.57 -336.511 2181.23 -388.118 2224.56 -404.354C2267.88 -420.591 2322.06 -400.023 2383.02 -348.551C2443.96 -297.106 2511.53 -214.908 2581.58 -108.252C2721.69 105.052 2871.67 416.088 2998.3 774.294C3124.93 1132.5 3204.23 1470.02 3230.07 1726.15C3242.99 1854.21 3242.55 1961.9 3227.99 2041.64C3213.42 2121.41 3184.76 2173.02 3141.43 2189.26C3098.11 2205.49 3043.94 2184.92 2982.97 2133.45C2922.04 2082.01 2854.46 1999.81 2784.41 1893.15C2644.3 1679.85 2494.32 1368.81 2367.69 1010.61Z" stroke="#AB9EFF" stroke-opacity="0.2"/>
<path opacity="0.52" d="M2360.7 981.364C2268.24 626.065 2220.65 294.453 2218.46 45.5344C2217.37 -78.9284 2227.62 -182.688 2249.27 -258.387C2270.94 -334.123 2303.95 -381.598 2348.24 -393.817C2392.54 -406.036 2444.18 -381.918 2499.72 -327.48C2555.24 -273.068 2614.51 -188.489 2674 -80.1369C2792.99 136.56 2912.82 448.24 3005.29 803.539C3097.76 1158.84 3145.34 1490.45 3147.53 1739.37C3148.63 1863.83 3138.37 1967.59 3116.72 2043.29C3095.06 2119.03 3062.04 2166.5 3017.75 2178.72C2973.46 2190.94 2921.81 2166.82 2866.27 2112.38C2810.76 2057.97 2751.49 1973.39 2691.99 1865.04C2573.01 1648.34 2453.17 1336.66 2360.7 981.364Z" stroke="#AB9EFF" stroke-opacity="0.2"/>
<path opacity="0.96" d="M2356.26 951.77C2296.47 602.686 2278.97 280.018 2299 40.5364C2309.02 -79.2082 2328.42 -178.126 2356.58 -249.143C2384.76 -320.19 2421.65 -363.153 2466.56 -371.306C2511.47 -379.459 2560.41 -352.077 2610.49 -295.238C2660.55 -238.423 2711.64 -152.301 2760.83 -43.3044C2859.21 174.681 2949.95 484.052 3009.74 833.136C3069.52 1182.22 3087.02 1504.89 3066.99 1744.37C3056.97 1864.11 3037.58 1963.03 3009.41 2034.05C2981.23 2105.1 2944.34 2148.06 2899.43 2156.21C2854.52 2164.36 2805.58 2136.98 2755.5 2080.14C2705.44 2023.33 2654.35 1937.21 2605.16 1828.21C2506.79 1610.22 2416.04 1300.85 2356.26 951.77Z" stroke="#AB9EFF" stroke-opacity="0.2"/>
<path opacity="0.84" d="M2354.35 922.053C2325.48 582.245 2336.17 271.306 2376.8 43.2881C2397.12 -70.7243 2424.91 -163.976 2458.97 -229.734C2493.03 -295.518 2533.29 -333.648 2578.46 -337.717C2623.64 -341.786 2669.71 -311.433 2714.36 -252.739C2758.98 -194.068 2802.08 -107.202 2841.32 1.44614C2919.79 218.736 2982.77 523.039 3011.64 862.847C3040.52 1202.66 3029.82 1513.59 2989.19 1741.61C2968.88 1855.62 2941.08 1948.88 2907.03 2014.64C2872.96 2080.42 2832.71 2118.55 2787.53 2122.62C2742.35 2126.69 2696.28 2096.33 2651.64 2037.64C2607.01 1978.97 2563.91 1892.1 2524.67 1783.45C2446.21 1566.16 2383.23 1261.86 2354.35 922.053Z" stroke="#AB9EFF" stroke-opacity="0.2"/>
<path opacity="0.68" d="M2354.97 892.45C2354.97 564.707 2391.74 268.01 2451.18 53.2637C2480.89 -54.1127 2516.27 -140.972 2555.54 -200.975C2594.81 -260.998 2637.9 -294.027 2682.99 -294.027C2728.09 -294.027 2771.17 -260.998 2810.45 -200.975C2849.71 -140.972 2885.09 -54.1126 2914.81 53.2637C2974.25 268.01 3011.01 564.707 3011.01 892.45C3011.01 1220.19 2974.25 1516.89 2914.81 1731.64C2885.09 1839.01 2849.71 1925.87 2810.45 1985.88C2771.17 2045.9 2728.09 2078.93 2682.99 2078.93C2637.9 2078.93 2594.81 2045.9 2555.54 1985.88C2516.27 1925.87 2480.89 1839.01 2451.18 1731.64C2391.74 1516.89 2354.97 1220.19 2354.97 892.45Z" stroke="#AB9EFF" stroke-opacity="0.2"/>
<path opacity="0.08" d="M2358.1 863.244C2384.71 550.061 2445.22 269.826 2521.53 69.925C2559.68 -30.0289 2601.77 -109.871 2645.53 -163.703C2689.31 -217.551 2734.66 -245.272 2779.34 -241.248C2824.01 -237.224 2864 -201.815 2898.03 -140.959C2932.05 -80.1214 2960.03 6.03362 2980.75 111.29C3022.18 321.797 3034.51 608.593 3007.9 921.776C2981.28 1234.96 2920.77 1515.19 2844.47 1715.1C2806.31 1815.05 2764.22 1894.89 2720.46 1948.72C2676.68 2002.57 2631.33 2030.29 2586.66 2026.27C2541.98 2022.24 2501.99 1986.83 2467.96 1925.98C2433.95 1865.14 2405.96 1778.99 2385.24 1673.73C2343.81 1463.22 2331.48 1176.43 2358.1 863.244Z" stroke="#AB9EFF" stroke-opacity="0.2"/>
<path opacity="0.32" d="M2363.66 834.537C2414.43 538.094 2496.18 276.233 2587.31 92.5044C2632.87 0.637142 2680.77 -71.6694 2728.28 -118.999C2775.81 -166.339 2822.87 -188.608 2866.79 -180.634C2910.7 -172.661 2947.53 -135.165 2976.46 -73.9436C3005.39 -12.7372 3026.37 72.0739 3038.67 174.446C3063.27 379.183 3053.1 654.04 3002.33 950.483C2951.56 1246.93 2869.81 1508.79 2778.68 1692.52C2733.12 1784.38 2685.23 1856.69 2637.71 1904.02C2590.19 1951.36 2543.13 1973.63 2499.21 1965.65C2455.29 1957.68 2418.47 1920.18 2389.53 1858.96C2360.61 1797.76 2339.62 1712.95 2327.32 1610.57C2302.73 1405.84 2312.89 1130.98 2363.66 834.537Z" stroke="#AB9EFF" stroke-opacity="0.2"/>
<path opacity="0.84" d="M2371.6 806.602C2443.91 528.752 2544.27 286.854 2648.07 120.37C2699.97 37.1263 2752.72 -27.2386 2803.22 -67.819C2853.74 -108.407 2901.93 -125.137 2944.76 -113.32C2987.6 -101.502 3021.21 -62.207 3045.24 -1.05218C3069.27 60.091 3083.7 142.985 3088.22 241.795C3097.26 439.409 3066.7 700.565 2994.39 978.415C2922.08 1256.27 2821.72 1498.16 2717.92 1664.65C2666.02 1747.89 2613.27 1812.26 2562.77 1852.84C2512.25 1893.42 2464.06 1910.15 2421.23 1898.34C2378.39 1886.52 2344.78 1847.22 2320.75 1786.07C2296.71 1724.93 2282.29 1642.03 2277.77 1543.22C2268.73 1345.61 2299.29 1084.45 2371.6 806.602Z" stroke="#AB9EFF" stroke-opacity="0.2"/>
<path opacity="0.69" d="M2381.83 779.647C2472.94 521.9 2589.19 301.224 2703.45 152.799C2760.59 78.5839 2817.21 22.456 2869.93 -11.2167C2922.66 -44.8941 2971.4 -56.0615 3012.84 -40.5331C3054.28 -25.0047 3084.65 15.8086 3104.02 76.5027C3123.38 137.188 3131.71 217.659 3129.15 312.322C3124.02 501.644 3075.29 747.622 2984.17 1005.37C2893.06 1263.11 2776.81 1483.79 2662.55 1632.22C2605.41 1706.43 2548.79 1762.56 2496.07 1796.23C2443.34 1829.91 2394.6 1841.08 2353.16 1825.55C2311.72 1810.02 2281.35 1769.21 2261.98 1708.51C2242.62 1647.83 2234.29 1567.36 2236.85 1472.69C2241.98 1283.37 2290.71 1037.39 2381.83 779.647Z" stroke="#AB9EFF" stroke-opacity="0.2"/>
<path opacity="0.3" d="M2394.23 753.869C2501.33 517.392 2630.65 318.86 2753.14 189.043C2814.39 124.133 2873.91 76.4231 2928.07 49.7299C2982.24 23.0343 3030.97 17.3931 3070.71 36.4726C3110.45 55.552 3137.57 97.6113 3152.53 157.491C3167.48 217.365 3170.24 294.976 3161.31 385.005C3143.46 565.059 3078.87 794.67 2971.77 1031.15C2864.67 1267.62 2735.34 1466.16 2612.85 1595.97C2551.6 1660.88 2492.09 1708.59 2437.93 1735.29C2383.76 1761.98 2335.03 1767.62 2295.29 1748.54C2255.55 1729.46 2228.42 1687.41 2213.47 1627.53C2198.52 1567.65 2195.76 1490.04 2204.68 1400.01C2222.54 1219.96 2287.12 990.346 2394.23 753.869Z" stroke="#AB9EFF" stroke-opacity="0.2"/>
<path opacity="0.41" d="M2408.69 729.451C2528.91 515.059 2668.49 339.259 2796.95 228.337C2861.19 172.875 2922.62 133.651 2977.45 113.923C3032.28 94.1941 3080.44 93.9828 3118.2 116.428C3155.96 138.873 3179.86 181.917 3190.68 240.67C3201.5 299.421 3199.22 373.81 3184.69 458.815C3155.62 628.82 3077.53 841.173 2957.31 1055.57C2837.08 1269.96 2697.51 1445.76 2569.04 1556.68C2504.81 1612.14 2443.37 1651.37 2388.55 1671.09C2333.72 1690.82 2285.56 1691.03 2247.8 1668.59C2210.04 1646.14 2186.14 1603.1 2175.32 1544.35C2164.5 1485.6 2166.78 1411.21 2181.31 1326.2C2210.38 1156.2 2288.47 943.844 2408.69 729.451Z" stroke="#AB9EFF" stroke-opacity="0.2"/>
<path opacity="0.38" d="M2425.08 706.567C2555.55 514.726 2702.56 361.907 2834.76 269.907C2900.87 223.907 2963.25 193.128 3017.99 180.267C3072.73 167.405 3119.77 172.471 3155.28 198.072C3190.79 223.673 3211.51 267.453 3218.49 324.812C3225.47 382.17 3218.71 453.048 3199.34 532.736C3160.59 692.107 3071.39 886.61 2940.92 1078.45C2810.45 1270.29 2663.44 1423.11 2531.23 1515.11C2465.13 1561.11 2402.75 1591.89 2348.01 1604.75C2293.27 1617.61 2246.23 1612.55 2210.72 1586.95C2175.21 1561.34 2154.49 1517.56 2147.51 1460.21C2140.53 1402.85 2147.28 1331.97 2166.66 1252.28C2205.41 1092.91 2294.61 898.408 2425.08 706.567Z" stroke="#AB9EFF" stroke-opacity="0.2"/>
<path opacity="0.27" d="M2443.23 685.374C2581.1 516.209 2732.78 386.294 2866.53 312.991C2933.41 276.339 2995.79 253.853 3049.71 247.677C3103.63 241.501 3149.04 251.637 3182.05 280.163C3215.07 308.689 3232.65 352.971 3236.11 408.71C3239.56 464.451 3228.89 531.603 3205.44 605.78C3158.55 754.131 3060.63 930.479 2922.76 1099.64C2784.89 1268.81 2633.21 1398.73 2499.46 1472.03C2432.58 1508.68 2370.2 1531.17 2316.28 1537.34C2262.37 1543.52 2216.96 1533.38 2183.94 1504.86C2150.92 1476.33 2133.34 1432.05 2129.88 1376.31C2126.43 1320.57 2137.1 1253.42 2160.55 1179.24C2207.44 1030.89 2305.36 854.539 2443.23 685.374Z" stroke="#AB9EFF" stroke-opacity="0.2"/>
<path opacity="0.92" d="M2463.01 666.015C2605.49 519.317 2759.13 411.909 2892.32 356.832C2958.92 329.293 3020.39 314.848 3072.78 315.098C3125.17 315.349 3168.45 330.293 3198.76 361.493C3229.06 392.693 3243.58 437.256 3243.82 491.196C3244.06 545.139 3230.03 608.422 3203.28 676.991C3149.79 814.125 3045.47 972.304 2902.98 1119C2760.5 1265.7 2606.86 1373.11 2473.67 1428.19C2407.07 1455.73 2345.6 1470.17 2293.21 1469.92C2240.82 1469.67 2197.54 1454.73 2167.23 1423.53C2136.93 1392.33 2122.42 1347.76 2122.17 1293.82C2121.93 1239.88 2135.96 1176.6 2162.71 1108.03C2216.2 970.894 2320.52 812.714 2463.01 666.015Z" stroke="#AB9EFF" stroke-opacity="0.2"/>
<path opacity="0.49" d="M2484.23 648.619C2628.64 523.856 2781.65 438.254 2912.26 400.699C3042.92 363.13 3150.97 373.688 3205.75 440.899C3260.52 508.109 3251.86 619.499 3193.23 745.455C3134.63 871.366 3026.18 1011.64 2881.77 1136.4C2737.35 1261.16 2584.35 1346.76 2453.74 1384.32C2323.08 1421.89 2215.03 1411.33 2160.25 1344.12C2105.48 1276.91 2114.14 1165.52 2172.76 1039.56C2231.37 913.652 2339.81 773.382 2484.23 648.619Z" stroke="#AB9EFF" stroke-opacity="0.2"/>
<path opacity="0.98" d="M2506.71 633.295C2650.5 529.632 2800.42 464.849 2926.55 443.891C3052.71 422.927 3154.89 445.832 3203.48 517.281C3252.08 588.729 3238.03 695.426 3175.75 810.317C3113.48 925.175 3003.08 1048.06 2859.29 1151.72C2715.5 1255.39 2565.58 1320.17 2439.45 1341.13C2313.29 1362.09 2211.1 1339.19 2162.51 1267.74C2113.92 1196.29 2127.96 1089.59 2190.25 974.701C2252.51 859.843 2362.92 736.957 2506.71 633.295Z" stroke="#AB9EFF" stroke-opacity="0.2"/>
<path opacity="0.16" d="M2530.26 620.137C2671.04 536.456 2815.58 491.234 2935.46 485.746C3055.37 480.257 3150.46 514.517 3192.56 589.609C3234.67 664.7 3215.95 766.614 3151.38 870.783C3086.82 974.929 2976.51 1081.2 2835.73 1164.88C2694.96 1248.56 2550.41 1293.78 2430.53 1299.27C2310.63 1304.76 2215.54 1270.5 2173.43 1195.41C2131.32 1120.32 2150.05 1018.4 2214.62 914.235C2279.17 810.089 2389.48 703.818 2530.26 620.137Z" stroke="#AB9EFF" stroke-opacity="0.2"/>
<path opacity="0.13" d="M2554.69 609.221C2690.25 544.141 2827.33 516.977 2939.36 525.647C3051.4 534.319 3138.29 578.817 3173.67 656.937C3209.05 735.056 3186.31 832.184 3120.74 926.129C3055.18 1020.06 2946.86 1110.72 2811.3 1175.8C2675.74 1240.88 2538.67 1268.04 2426.63 1259.37C2314.59 1250.7 2227.7 1206.2 2192.32 1128.08C2156.94 1049.96 2179.68 952.833 2245.25 858.888C2310.81 764.955 2419.14 674.302 2554.69 609.221Z" stroke="#AB9EFF" stroke-opacity="0.2"/>
<path opacity="0.4" d="M2579.81 600.604C2708.15 552.508 2835.89 541.681 2938.65 563.032C3041.41 584.385 3119.12 637.897 3147.58 718.413C3176.04 798.929 3149.93 891.347 3084.54 975.714C3019.15 1060.07 2914.54 1136.32 2786.19 1184.41C2657.85 1232.51 2530.11 1243.34 2427.35 1221.98C2324.59 1200.63 2246.88 1147.12 2218.42 1066.6C2189.95 986.088 2216.07 893.67 2281.46 809.303C2346.85 724.942 2451.46 648.7 2579.81 600.604Z" stroke="#AB9EFF" stroke-opacity="0.2"/>
<path opacity="0.93" d="M2605.39 594.325C2724.78 561.39 2841.53 564.985 2933.79 597.397C3026.04 629.81 3093.74 691.019 3115.15 773.289C3136.56 855.559 3107.66 943.419 3043.5 1018.98C2979.35 1094.54 2879.98 1157.76 2760.6 1190.69C2641.22 1223.63 2524.46 1220.03 2432.21 1187.62C2339.96 1155.21 2272.25 1094 2250.84 1011.73C2229.43 929.459 2258.34 841.599 2322.49 766.037C2386.64 690.477 2486.01 627.26 2605.39 594.325Z" stroke="#AB9EFF" stroke-opacity="0.2"/>
<path opacity="0.05" d="M2631.26 590.399C2740.18 570.625 2844.57 586.565 2925.29 628.3C3006.01 670.035 3063.04 737.547 3077.32 820.922C3091.59 904.297 3060.44 987.817 2998.45 1055.46C2936.46 1123.1 2843.66 1174.84 2734.74 1194.61C2625.81 1214.39 2521.42 1198.45 2440.71 1156.71C2359.99 1114.98 2302.96 1047.47 2288.68 964.092C2274.4 880.717 2305.56 797.196 2367.55 729.555C2429.54 661.912 2522.34 610.173 2631.26 590.399Z" stroke="#AB9EFF" stroke-opacity="0.2"/>
<path opacity="0.44" d="M2657.19 588.836C2851.7 571.315 3020.81 693.15 3035.05 860.797C3049.3 1028.44 2903.31 1178.66 2708.8 1196.18C2514.3 1213.7 2345.19 1091.87 2330.94 924.221C2316.7 756.573 2462.69 606.356 2657.19 588.836Z" stroke="#AB9EFF" stroke-opacity="0.2"/>
<path d="M2683 589.611C2852.23 589.612 2989.4 725.229 2989.4 892.509C2989.4 1059.79 2852.23 1195.41 2683 1195.41C2513.77 1195.41 2376.6 1059.79 2376.6 892.509C2376.6 725.229 2513.77 589.611 2683 589.611Z" stroke="#AB9EFF" stroke-opacity="0.2"/>
</g>
<defs>
<filter id="filter0_d_222_28705" x="-1049.09" y="-3712.73" width="7464.16" height="9218.37" filterUnits="userSpaceOnUse" color-interpolation-filters="sRGB">
<feFlood flood-opacity="0" result="BackgroundImageFix"/>
<feColorMatrix in="SourceAlpha" type="matrix" values="0 0 0 0 0 0 0 0 0 0 0 0 0 0 0 0 0 0 127 0" result="hardAlpha"/>
<feOffset dy="4"/>
<feGaussianBlur stdDeviation="2"/>
<feComposite in2="hardAlpha" operator="out"/>
<feColorMatrix type="matrix" values="0 0 0 0 0 0 0 0 0 0 0 0 0 0 0 0 0 0 0.25 0"/>
<feBlend mode="normal" in2="BackgroundImageFix" result="effect1_dropShadow_222_28705"/>
<feBlend mode="normal" in="SourceGraphic" in2="effect1_dropShadow_222_28705" result="shape"/>
</filter>
</defs>
</svg>
