<svg width="980" height="443" viewBox="0 0 980 443" fill="none" xmlns="http://www.w3.org/2000/svg">
<rect width="784.707" height="240.416" rx="37.8319" fill="white" fill-opacity="0.03"/>
<rect width="784.707" height="240.416" rx="37.8319" fill="#25242E" fill-opacity="0.8"/>
<path d="M276.978 133.009V92.2116H282.078L303.355 124.084V92.2116H308.454V133.009H303.355L282.078 101.108V133.009H276.978ZM329.636 133.859C326.632 133.859 324.007 133.198 321.759 131.876C319.531 130.535 317.793 128.674 316.546 126.294C315.3 123.896 314.677 121.1 314.677 117.908C314.677 114.565 315.29 111.675 316.518 109.239C317.746 106.783 319.455 104.895 321.646 103.572C323.856 102.231 326.444 101.561 329.409 101.561C332.488 101.561 335.104 102.269 337.257 103.686C339.429 105.102 341.053 107.123 342.13 109.749C343.225 112.374 343.697 115.5 343.546 119.126H338.447V117.313C338.39 113.555 337.625 110.75 336.152 108.899C334.679 107.029 332.488 106.094 329.579 106.094C326.462 106.094 324.092 107.095 322.468 109.097C320.843 111.099 320.031 113.97 320.031 117.71C320.031 121.317 320.843 124.113 322.468 126.096C324.092 128.079 326.406 129.071 329.409 129.071C331.43 129.071 333.186 128.608 334.679 127.682C336.171 126.757 337.342 125.425 338.192 123.688L343.036 125.359C341.846 128.06 340.052 130.157 337.653 131.649C335.274 133.122 332.601 133.859 329.636 133.859ZM318.331 119.126V115.075H340.94V119.126H318.331ZM366.938 133.009C365.125 133.368 363.33 133.509 361.555 133.434C359.798 133.377 358.231 133.028 356.852 132.385C355.473 131.724 354.425 130.705 353.707 129.326C353.103 128.117 352.772 126.899 352.715 125.671C352.678 124.424 352.659 123.017 352.659 121.45V93.9115H357.702V121.223C357.702 122.47 357.711 123.537 357.73 124.424C357.768 125.312 357.966 126.077 358.325 126.719C359.005 127.928 360.082 128.636 361.555 128.844C363.047 129.052 364.841 128.995 366.938 128.674V133.009ZM346.454 106.576V102.411H366.938V106.576H346.454ZM385.136 133.859C382.133 133.859 379.508 133.198 377.26 131.876C375.031 130.535 373.294 128.674 372.047 126.294C370.801 123.896 370.177 121.1 370.177 117.908C370.177 114.565 370.791 111.675 372.019 109.239C373.247 106.783 374.956 104.895 377.147 103.572C379.357 102.231 381.944 101.561 384.91 101.561C387.988 101.561 390.604 102.269 392.757 103.686C394.93 105.102 396.554 107.123 397.63 109.749C398.726 112.374 399.198 115.5 399.047 119.126H393.947V117.313C393.891 113.555 393.126 110.75 391.653 108.899C390.179 107.029 387.988 106.094 385.08 106.094C381.963 106.094 379.593 107.095 377.968 109.097C376.344 111.099 375.532 113.97 375.532 117.71C375.532 121.317 376.344 124.113 377.968 126.096C379.593 128.079 381.907 129.071 384.91 129.071C386.931 129.071 388.687 128.608 390.179 127.682C391.671 126.757 392.842 125.425 393.692 123.688L398.537 125.359C397.347 128.06 395.553 130.157 393.154 131.649C390.774 133.122 388.102 133.859 385.136 133.859ZM373.832 119.126V115.075H396.441V119.126H373.832ZM417.367 133.859C414.515 133.859 412.069 133.15 410.029 131.734C407.99 130.298 406.412 128.362 405.298 125.926C404.203 123.489 403.655 120.741 403.655 117.682C403.655 114.622 404.203 111.874 405.298 109.437C406.412 107.001 407.99 105.083 410.029 103.686C412.069 102.269 414.506 101.561 417.339 101.561C420.229 101.561 422.656 102.26 424.62 103.657C426.584 105.055 428.067 106.972 429.068 109.409C430.088 111.845 430.598 114.603 430.598 117.682C430.598 120.722 430.088 123.471 429.068 125.926C428.067 128.362 426.584 130.298 424.62 131.734C422.656 133.15 420.238 133.859 417.367 133.859ZM417.991 129.241C420.049 129.241 421.74 128.75 423.062 127.767C424.384 126.766 425.357 125.397 425.98 123.659C426.622 121.903 426.943 119.91 426.943 117.682C426.943 115.415 426.622 113.422 425.98 111.704C425.357 109.966 424.393 108.615 423.09 107.652C421.787 106.67 420.134 106.179 418.132 106.179C416.055 106.179 414.336 106.689 412.976 107.709C411.635 108.729 410.634 110.108 409.973 111.845C409.331 113.583 409.01 115.528 409.01 117.682C409.01 119.854 409.34 121.818 410.001 123.574C410.662 125.312 411.654 126.691 412.976 127.711C414.317 128.731 415.988 129.241 417.991 129.241ZM426.943 133.009V110.485H426.377V92.2116H431.448V133.009H426.943ZM451.766 147.458C450.161 147.458 448.593 147.212 447.063 146.721C445.534 146.23 444.126 145.484 442.842 144.483C441.577 143.501 440.519 142.254 439.669 140.743L444.287 138.307C445.042 139.799 446.11 140.885 447.488 141.565C448.886 142.245 450.322 142.585 451.795 142.585C453.74 142.585 455.355 142.226 456.639 141.508C457.924 140.809 458.868 139.761 459.473 138.363C460.096 136.966 460.398 135.228 460.379 133.15V124.793H460.974V102.411H465.451V133.207C465.451 134.038 465.422 134.841 465.366 135.615C465.328 136.39 465.233 137.155 465.082 137.91C464.686 140.082 463.902 141.867 462.731 143.265C461.56 144.681 460.049 145.73 458.198 146.41C456.347 147.108 454.203 147.458 451.766 147.458ZM451.398 133.859C448.546 133.859 446.1 133.15 444.06 131.734C442.02 130.298 440.443 128.362 439.329 125.926C438.234 123.489 437.686 120.741 437.686 117.682C437.686 114.622 438.234 111.874 439.329 109.437C440.443 107.001 442.02 105.083 444.06 103.686C446.1 102.269 448.537 101.561 451.37 101.561C454.26 101.561 456.687 102.26 458.651 103.657C460.615 105.055 462.098 106.972 463.099 109.409C464.119 111.845 464.629 114.603 464.629 117.682C464.629 120.722 464.119 123.471 463.099 125.926C462.098 128.362 460.615 130.298 458.651 131.734C456.687 133.15 454.269 133.859 451.398 133.859ZM452.021 129.241C454.08 129.241 455.771 128.75 457.093 127.767C458.415 126.766 459.388 125.397 460.011 123.659C460.653 121.903 460.974 119.91 460.974 117.682C460.974 115.415 460.653 113.422 460.011 111.704C459.388 109.966 458.424 108.615 457.121 107.652C455.818 106.67 454.165 106.179 452.163 106.179C450.085 106.179 448.367 106.689 447.007 107.709C445.666 108.729 444.665 110.108 444.004 111.845C443.361 113.583 443.04 115.528 443.04 117.682C443.04 119.854 443.371 121.818 444.032 123.574C444.693 125.312 445.685 126.691 447.007 127.711C448.348 128.731 450.019 129.241 452.021 129.241ZM486.62 133.859C483.617 133.859 480.992 133.198 478.744 131.876C476.515 130.535 474.778 128.674 473.531 126.294C472.285 123.896 471.661 121.1 471.661 117.908C471.661 114.565 472.275 111.675 473.503 109.239C474.731 106.783 476.44 104.895 478.631 103.572C480.841 102.231 483.428 101.561 486.394 101.561C489.472 101.561 492.088 102.269 494.241 103.686C496.414 105.102 498.038 107.123 499.114 109.749C500.21 112.374 500.682 115.5 500.531 119.126H495.431V117.313C495.375 113.555 494.61 110.75 493.137 108.899C491.663 107.029 489.472 106.094 486.564 106.094C483.447 106.094 481.077 107.095 479.452 109.097C477.828 111.099 477.016 113.97 477.016 117.71C477.016 121.317 477.828 124.113 479.452 126.096C481.077 128.079 483.391 129.071 486.394 129.071C488.415 129.071 490.171 128.608 491.663 127.682C493.155 126.757 494.326 125.425 495.176 123.688L500.021 125.359C498.831 128.06 497.037 130.157 494.638 131.649C492.258 133.122 489.586 133.859 486.62 133.859ZM475.316 119.126V115.075H497.925V119.126H475.316ZM518.749 133.009V92.2116H523.792V133.009H518.749ZM554.08 133.009V117.682C554.08 116.227 553.947 114.829 553.683 113.488C553.437 112.147 552.994 110.948 552.351 109.89C551.728 108.814 550.878 107.964 549.802 107.341C548.744 106.717 547.403 106.406 545.778 106.406C544.513 106.406 543.361 106.623 542.322 107.057C541.302 107.473 540.424 108.115 539.687 108.984C538.951 109.853 538.375 110.948 537.959 112.27C537.562 113.573 537.364 115.113 537.364 116.888L534.049 115.868C534.049 112.903 534.578 110.363 535.636 108.247C536.712 106.113 538.214 104.479 540.141 103.346C542.086 102.194 544.371 101.618 546.997 101.618C548.98 101.618 550.67 101.929 552.068 102.553C553.466 103.176 554.627 104.007 555.553 105.046C556.478 106.066 557.205 107.218 557.734 108.502C558.263 109.768 558.631 111.061 558.839 112.384C559.066 113.687 559.179 114.924 559.179 116.095V133.009H554.08ZM532.264 133.009V102.411H536.797V110.599H537.364V133.009H532.264ZM578.281 133.859C575.429 133.859 572.983 133.15 570.943 131.734C568.903 130.298 567.326 128.362 566.212 125.926C565.116 123.489 564.568 120.741 564.568 117.682C564.568 114.622 565.116 111.874 566.212 109.437C567.326 107.001 568.903 105.083 570.943 103.686C572.983 102.269 575.419 101.561 578.252 101.561C581.142 101.561 583.569 102.26 585.534 103.657C587.498 105.055 588.981 106.972 589.982 109.409C591.002 111.845 591.512 114.603 591.512 117.682C591.512 120.722 591.002 123.471 589.982 125.926C588.981 128.362 587.498 130.298 585.534 131.734C583.569 133.15 581.152 133.859 578.281 133.859ZM578.904 129.241C580.963 129.241 582.653 128.75 583.975 127.767C585.298 126.766 586.27 125.397 586.894 123.659C587.536 121.903 587.857 119.91 587.857 117.682C587.857 115.415 587.536 113.422 586.894 111.704C586.27 109.966 585.307 108.615 584.004 107.652C582.7 106.67 581.048 106.179 579.046 106.179C576.968 106.179 575.249 106.689 573.889 107.709C572.548 108.729 571.547 110.108 570.886 111.845C570.244 113.583 569.923 115.528 569.923 117.682C569.923 119.854 570.254 121.818 570.915 123.574C571.576 125.312 572.567 126.691 573.889 127.711C575.23 128.731 576.902 129.241 578.904 129.241ZM587.857 133.009V110.485H587.29V92.2116H592.361V133.009H587.857ZM600.866 96.9996V91.7866H605.909V96.9996H600.866ZM600.866 133.009V102.411H605.909V133.009H600.866ZM623.107 133.859C620.822 133.859 618.905 133.443 617.356 132.612C615.826 131.762 614.664 130.648 613.871 129.269C613.097 127.89 612.71 126.379 612.71 124.736C612.71 123.131 613.012 121.742 613.616 120.571C614.24 119.381 615.108 118.399 616.223 117.625C617.337 116.832 618.669 116.208 620.217 115.755C621.672 115.358 623.296 115.018 625.09 114.735C626.904 114.433 628.736 114.159 630.587 113.913C632.438 113.668 634.166 113.432 635.771 113.205L633.958 114.253C634.015 111.534 633.467 109.522 632.315 108.219C631.182 106.916 629.217 106.264 626.422 106.264C624.571 106.264 622.947 106.689 621.549 107.539C620.17 108.37 619.198 109.73 618.631 111.619L613.843 110.174C614.579 107.492 616.006 105.386 618.121 103.856C620.236 102.326 623.022 101.561 626.479 101.561C629.255 101.561 631.635 102.061 633.618 103.063C635.62 104.045 637.056 105.537 637.925 107.539C638.359 108.483 638.633 109.513 638.746 110.627C638.86 111.722 638.916 112.875 638.916 114.083V133.009H634.44V125.671L635.488 126.351C634.336 128.825 632.721 130.695 630.643 131.961C628.585 133.226 626.073 133.859 623.107 133.859ZM623.872 129.637C625.685 129.637 627.253 129.316 628.575 128.674C629.916 128.013 630.993 127.154 631.805 126.096C632.617 125.019 633.146 123.848 633.392 122.583C633.675 121.638 633.826 120.59 633.845 119.438C633.883 118.267 633.902 117.37 633.902 116.747L635.658 117.512C634.015 117.738 632.4 117.955 630.813 118.163C629.227 118.371 627.725 118.598 626.309 118.843C624.892 119.07 623.617 119.344 622.484 119.665C621.653 119.929 620.869 120.269 620.132 120.685C619.415 121.1 618.829 121.638 618.376 122.3C617.941 122.942 617.724 123.744 617.724 124.708C617.724 125.539 617.932 126.332 618.348 127.088C618.782 127.843 619.443 128.457 620.331 128.929C621.237 129.401 622.418 129.637 623.872 129.637Z" fill="url(#paint0_linear_187_26805)" fill-opacity="0.2"/>
<path d="M73.4043 164.837C80.7936 135.096 101.382 72.7996 117.74 83.613C127.9 90.3293 138.06 111.486 141.755 118.567C146.989 103.85 159.674 75.612 164.846 79.2914C166.725 80.6276 166.108 86.855 164.22 94.9285C166.584 92.4755 171.312 87.2016 171.312 85.7301C174.063 85.5018 178.221 85.2395 182.93 85.0761C190.836 79.2665 199.156 75.9964 205.487 74.6919C203.317 78.2627 201.334 81.7316 199.526 85.0816C202.315 85.2085 204.972 85.4163 207.335 85.7301V96.7682C203.53 97.1347 198.502 97.512 193.216 97.7434C185.665 114.286 182.829 126.55 182.396 131.722L191.632 132.642C176.115 157.662 162.075 153.799 158.381 145.52C156.392 124.068 162.07 108.352 170.549 97.2095C167.458 96.7329 165.175 96.0007 164.22 94.9285C159.61 114.645 150.068 141.841 145.45 141.841C140.831 141.841 134.982 137.242 117.74 100.448C115.585 95.8486 109.057 97.8726 89.1065 164.837H73.4043Z" fill="url(#paint1_linear_187_26805)" fill-opacity="0.2"/>
<mask id="mask0_187_26805" style="mask-type:alpha" maskUnits="userSpaceOnUse" x="338" y="46" width="668" height="397">
<ellipse cx="671.823" cy="244.688" rx="333.775" ry="198.313" fill="#D9D9D9" fill-opacity="0.4"/>
</mask>
<g mask="url(#mask0_187_26805)">
<rect x="0.610192" y="0.610192" width="783.487" height="239.195" rx="37.2217" stroke="white" stroke-width="1.22038"/>
</g>
<defs>
<linearGradient id="paint0_linear_187_26805" x1="291.454" y1="112.009" x2="606.289" y2="126.483" gradientUnits="userSpaceOnUse">
<stop stop-color="white"/>
<stop offset="1" stop-color="#CDCDCD" stop-opacity="0.4"/>
</linearGradient>
<linearGradient id="paint1_linear_187_26805" x1="96.5845" y1="74.6919" x2="179.003" y2="150.028" gradientUnits="userSpaceOnUse">
<stop stop-color="white"/>
<stop offset="1" stop-color="#999999" stop-opacity="0.5"/>
</linearGradient>
</defs>
</svg>
