<svg width="774" height="541" viewBox="0 0 774 541" fill="none" xmlns="http://www.w3.org/2000/svg">
<rect width="773.311" height="540.104" rx="25.4684" fill="white" fill-opacity="0.08"/>
<mask id="mask0_204_15106" style="mask-type:alpha" maskUnits="userSpaceOnUse" x="227" y="31" width="450" height="268">
<ellipse cx="452.271" cy="164.724" rx="224.697" ry="133.504" fill="#D9D9D9" fill-opacity="0.4"/>
</mask>
<g mask="url(#mask0_204_15106)">
<rect x="0.410781" y="0.41127" width="772.489" height="539.282" rx="25.0577" stroke="white" stroke-width="0.821562"/>
</g>
<path d="M45.7053 63.4805L53.4453 41.0094H56.4883L64.2283 63.4805H61.8407L54.4908 42.289H55.3959L48.0928 63.4805H45.7053ZM49.1539 58.0344V55.8809H60.764V58.0344H49.1539ZM79.218 63.4805V54.8822C79.218 53.9459 79.1296 53.0876 78.9528 52.3073C78.7759 51.5167 78.4898 50.8301 78.0945 50.2475C77.7096 49.6545 77.205 49.1968 76.5808 48.8743C75.967 48.5518 75.218 48.3905 74.3337 48.3905C73.5222 48.3905 72.8044 48.531 72.1802 48.8118C71.5664 49.0927 71.0463 49.4985 70.6197 50.029C70.2036 50.5492 69.8863 51.1838 69.6678 51.9328C69.4494 52.6819 69.3401 53.5349 69.3401 54.492L67.7172 54.1331C67.7172 52.4062 68.0189 50.9549 68.6223 49.7793C69.2257 48.6038 70.058 47.7143 71.1191 47.1109C72.1802 46.5075 73.3974 46.2058 74.7706 46.2058C75.7798 46.2058 76.6588 46.3619 77.4079 46.674C78.1673 46.9861 78.8071 47.4074 79.3273 47.938C79.8578 48.4685 80.2844 49.0771 80.6069 49.7637C80.9294 50.44 81.1635 51.163 81.3091 51.9328C81.4547 52.6923 81.5276 53.4517 81.5276 54.2111V63.4805H79.218ZM67.0306 63.4805V46.6272H69.1061V50.7781H69.3401V63.4805H67.0306ZM90.399 63.9486C89.1298 63.9486 88.0634 63.7197 87.2 63.262C86.3469 62.8043 85.7071 62.1957 85.2806 61.4362C84.854 60.6768 84.6408 59.8497 84.6408 58.955C84.6408 58.0396 84.8228 57.2593 85.1869 56.6143C85.5614 55.9589 86.066 55.4231 86.7006 55.007C87.3456 54.5909 88.0894 54.2736 88.9321 54.0551C89.7852 53.847 90.7267 53.665 91.7566 53.5089C92.7969 53.3425 93.8112 53.202 94.7996 53.0876C95.7983 52.9628 96.6721 52.8431 97.4212 52.7287L96.6097 53.228C96.6409 51.5635 96.3184 50.3307 95.6422 49.5297C94.966 48.7286 93.7904 48.3281 92.1155 48.3281C90.9607 48.3281 89.9828 48.5882 89.1818 49.1083C88.3911 49.6285 87.8346 50.4504 87.5121 51.5739L85.2806 50.9185C85.6655 49.41 86.4405 48.2397 87.6057 47.4074C88.7709 46.5751 90.2845 46.159 92.1467 46.159C93.6864 46.159 94.992 46.4503 96.0636 47.0329C97.1455 47.6051 97.9101 48.4373 98.3575 49.5297C98.5655 50.0186 98.7008 50.5648 98.7632 51.1682C98.8256 51.7716 98.8568 52.3854 98.8568 53.0096V63.4805H96.8126V59.2515L97.4056 59.5012C96.8334 60.9473 95.9439 62.05 94.7371 62.8095C93.5304 63.5689 92.0843 63.9486 90.399 63.9486ZM90.6643 61.9668C91.7358 61.9668 92.6721 61.7743 93.4731 61.3894C94.2742 61.0045 94.9192 60.4791 95.4081 59.8133C95.8971 59.1371 96.2144 58.3777 96.36 57.535C96.4849 56.994 96.5525 56.401 96.5629 55.756C96.5733 55.1006 96.5785 54.6117 96.5785 54.2892L97.4524 54.7417C96.6721 54.8457 95.8243 54.9498 94.9088 55.0538C94.0037 55.1578 93.109 55.2775 92.2247 55.4127C91.3509 55.548 90.5602 55.7092 89.8528 55.8965C89.3742 56.0317 88.9113 56.2242 88.464 56.4739C88.0166 56.7131 87.6473 57.0356 87.356 57.4414C87.0751 57.8471 86.9347 58.3517 86.9347 58.955C86.9347 59.444 87.0543 59.9173 87.2936 60.3751C87.5433 60.8328 87.9386 61.2126 88.4796 61.5142C89.0309 61.8159 89.7592 61.9668 90.6643 61.9668ZM103.231 63.4805V40.5412H105.525V63.4805H103.231ZM112.607 70.9708L115.868 62.1228L115.915 64.7445L108.534 46.6272H110.968L117.023 61.7795H116.024L121.611 46.6272H123.951L114.901 70.9708H112.607ZM137.087 63.4805C136.14 63.6781 135.204 63.7562 134.278 63.7145C133.363 63.6729 132.541 63.4753 131.813 63.1216C131.095 62.7678 130.549 62.2165 130.174 61.4674C129.873 60.8432 129.706 60.2138 129.675 59.5792C129.654 58.9342 129.644 58.2008 129.644 57.3789V41.9457H131.922V57.2853C131.922 57.9927 131.927 58.5857 131.938 59.0643C131.958 59.5324 132.068 59.9486 132.265 60.3127C132.64 61.0097 133.233 61.4258 134.044 61.5611C134.866 61.6963 135.88 61.6651 137.087 61.4674V63.4805ZM126.039 48.5934V46.6272H137.087V48.5934H126.039ZM140.72 43.4281V40.8533H143.014V43.4281H140.72ZM140.72 63.4805V46.6272H143.014V63.4805H140.72ZM154.683 63.9486C152.987 63.9486 151.552 63.5689 150.376 62.8095C149.2 62.05 148.306 61.0045 147.692 59.6729C147.089 58.3308 146.776 56.7912 146.756 55.0538C146.776 53.2853 147.099 51.7352 147.723 50.4035C148.347 49.0615 149.247 48.0212 150.423 47.2826C151.598 46.5335 153.024 46.159 154.699 46.159C156.405 46.159 157.887 46.5751 159.146 47.4074C160.415 48.2397 161.284 49.3788 161.752 50.8249L159.505 51.5427C159.11 50.5336 158.48 49.7533 157.617 49.202C156.764 48.6402 155.786 48.3593 154.683 48.3593C153.445 48.3593 152.42 48.6454 151.609 49.2176C150.797 49.7793 150.194 50.5648 149.799 51.5739C149.403 52.583 149.2 53.743 149.19 55.0538C149.211 57.072 149.679 58.695 150.594 59.9225C151.51 61.1397 152.873 61.7483 154.683 61.7483C155.827 61.7483 156.8 61.4882 157.601 60.9681C158.413 60.4375 159.026 59.6677 159.442 58.6585L161.752 59.3452C161.128 60.8432 160.212 61.9876 159.006 62.7782C157.799 63.5585 156.358 63.9486 154.683 63.9486ZM171.262 63.933C169.285 63.933 167.657 63.5065 166.378 62.6534C165.108 61.8003 164.328 60.6144 164.037 59.0955L166.378 58.7054C166.627 59.6625 167.194 60.4271 168.079 60.9993C168.973 61.5611 170.076 61.842 171.387 61.842C172.666 61.842 173.676 61.5767 174.414 61.0461C175.153 60.5051 175.522 59.7717 175.522 58.8458C175.522 58.3256 175.402 57.9043 175.163 57.5818C174.934 57.2489 174.461 56.942 173.743 56.6611C173.025 56.3802 171.954 56.0473 170.529 55.6624C168.999 55.2463 167.803 54.8301 166.939 54.414C166.076 53.9979 165.462 53.5193 165.098 52.9784C164.734 52.427 164.552 51.756 164.552 50.9653C164.552 50.0082 164.822 49.1708 165.363 48.4529C165.904 47.7247 166.653 47.1629 167.61 46.7676C168.568 46.3619 169.681 46.159 170.95 46.159C172.219 46.159 173.353 46.3671 174.352 46.7832C175.361 47.1889 176.172 47.7611 176.786 48.4997C177.4 49.2384 177.764 50.0966 177.878 51.0746L175.538 51.4959C175.382 50.5076 174.887 49.7273 174.055 49.1552C173.233 48.5726 172.188 48.2709 170.919 48.2501C169.722 48.2189 168.75 48.4477 168.001 48.9367C167.251 49.4152 166.877 50.055 166.877 50.8561C166.877 51.3034 167.012 51.6883 167.283 52.0109C167.553 52.3229 168.042 52.6194 168.75 52.9003C169.467 53.1812 170.487 53.4881 171.808 53.821C173.358 54.2163 174.575 54.6325 175.46 55.0694C176.344 55.5064 176.973 56.0213 177.348 56.6143C177.722 57.2073 177.91 57.9407 177.91 58.8146C177.91 60.4063 177.317 61.6599 176.131 62.5754C174.955 63.4805 173.332 63.933 171.262 63.933Z" fill="url(#paint0_linear_204_15106)" fill-opacity="0.4"/>
<path d="M518.372 499.199L518.389 496.517L529.099 486.881C529.992 486.076 530.59 485.316 530.892 484.601C531.205 483.875 531.361 483.132 531.361 482.372C531.361 481.445 531.149 480.607 530.724 479.858C530.3 479.11 529.719 478.517 528.981 478.082C528.255 477.646 527.428 477.428 526.501 477.428C525.54 477.428 524.685 477.657 523.937 478.115C523.188 478.562 522.596 479.16 522.16 479.908C521.735 480.657 521.529 481.473 521.54 482.355H518.49C518.49 480.836 518.842 479.495 519.545 478.333C520.249 477.16 521.205 476.244 522.411 475.584C523.629 474.914 525.009 474.579 526.551 474.579C528.048 474.579 529.389 474.925 530.573 475.618C531.758 476.299 532.691 477.232 533.372 478.417C534.065 479.59 534.411 480.92 534.411 482.406C534.411 483.456 534.277 484.367 534.009 485.138C533.752 485.908 533.35 486.624 532.803 487.283C532.255 487.931 531.568 488.624 530.741 489.361L521.842 497.355L521.456 496.35H534.411V499.199H518.372ZM546.567 499.719C545.002 499.719 543.606 499.367 542.377 498.663C541.159 497.948 540.192 496.981 539.477 495.763C538.773 494.534 538.421 493.138 538.421 491.573V482.724C538.421 481.16 538.773 479.763 539.477 478.534C540.192 477.305 541.159 476.339 542.377 475.635C543.606 474.931 545.002 474.579 546.567 474.579C548.131 474.579 549.527 474.931 550.757 475.635C551.986 476.339 552.952 477.305 553.656 478.534C554.36 479.763 554.712 481.16 554.712 482.724V491.573C554.712 493.138 554.36 494.534 553.656 495.763C552.952 496.981 551.986 497.948 550.757 498.663C549.527 499.367 548.131 499.719 546.567 499.719ZM546.567 496.853C547.516 496.853 548.377 496.624 549.148 496.166C549.919 495.707 550.533 495.093 550.991 494.322C551.449 493.54 551.678 492.679 551.678 491.741V482.54C551.678 481.59 551.449 480.73 550.991 479.959C550.533 479.188 549.919 478.573 549.148 478.115C548.377 477.657 547.516 477.428 546.567 477.428C545.628 477.428 544.768 477.657 543.986 478.115C543.215 478.573 542.6 479.188 542.142 479.959C541.684 480.73 541.455 481.59 541.455 482.54V491.741C541.455 492.679 541.684 493.54 542.142 494.322C542.6 495.093 543.215 495.707 543.986 496.166C544.768 496.624 545.628 496.853 546.567 496.853ZM562.085 499.216L560.074 497.205L582.231 475.082L584.242 477.093L562.085 499.216ZM579.214 499.719C578.108 499.719 577.097 499.45 576.18 498.914C575.275 498.367 574.549 497.64 574.002 496.735C573.454 495.819 573.18 494.802 573.18 493.685C573.18 492.59 573.46 491.584 574.018 490.668C574.577 489.752 575.315 489.02 576.231 488.473C577.147 487.925 578.141 487.652 579.214 487.652C580.32 487.652 581.331 487.925 582.248 488.473C583.164 489.009 583.89 489.735 584.426 490.652C584.974 491.557 585.248 492.568 585.248 493.685C585.248 494.802 584.974 495.819 584.426 496.735C583.89 497.64 583.164 498.367 582.248 498.914C581.331 499.45 580.32 499.719 579.214 499.719ZM579.214 497.087C579.829 497.087 580.393 496.931 580.907 496.618C581.432 496.305 581.845 495.892 582.147 495.378C582.46 494.864 582.616 494.3 582.616 493.685C582.616 493.071 582.46 492.506 582.147 491.992C581.845 491.467 581.432 491.054 580.907 490.752C580.393 490.439 579.829 490.283 579.214 490.283C578.599 490.283 578.035 490.439 577.521 490.752C577.007 491.054 576.594 491.467 576.281 491.992C575.968 492.506 575.812 493.071 575.812 493.685C575.812 494.3 575.968 494.864 576.281 495.378C576.594 495.892 577.007 496.305 577.521 496.618C578.035 496.931 578.599 497.087 579.214 497.087ZM565.102 486.646C563.996 486.646 562.985 486.378 562.069 485.841C561.152 485.294 560.421 484.568 559.873 483.663C559.337 482.746 559.069 481.73 559.069 480.612C559.069 479.517 559.348 478.512 559.907 477.596C560.465 476.679 561.203 475.948 562.119 475.4C563.035 474.853 564.03 474.579 565.102 474.579C566.208 474.579 567.214 474.853 568.119 475.4C569.035 475.936 569.767 476.663 570.315 477.579C570.862 478.484 571.136 479.495 571.136 480.612C571.136 481.73 570.862 482.746 570.315 483.663C569.767 484.568 569.035 485.294 568.119 485.841C567.214 486.378 566.208 486.646 565.102 486.646ZM565.102 484.015C565.717 484.015 566.281 483.858 566.795 483.545C567.32 483.232 567.734 482.819 568.035 482.305C568.348 481.791 568.504 481.227 568.504 480.612C568.504 479.998 568.348 479.434 568.035 478.92C567.734 478.394 567.32 477.981 566.795 477.679C566.281 477.367 565.717 477.21 565.102 477.21C564.488 477.21 563.923 477.367 563.409 477.679C562.895 477.981 562.482 478.394 562.169 478.92C561.856 479.434 561.7 479.998 561.7 480.612C561.7 481.227 561.856 481.791 562.169 482.305C562.482 482.819 562.895 483.232 563.409 483.545C563.923 483.858 564.488 484.015 565.102 484.015ZM606.099 499.719C604.445 499.719 602.937 499.428 601.574 498.847C600.211 498.266 599.037 497.434 598.054 496.35C597.071 495.255 596.311 493.936 595.775 492.395C595.25 490.841 594.987 489.093 594.987 487.149C594.987 484.579 595.445 482.355 596.361 480.478C597.278 478.601 598.568 477.154 600.233 476.137C601.898 475.11 603.853 474.596 606.099 474.596C608.803 474.596 610.982 475.227 612.635 476.489C614.289 477.741 615.429 479.456 616.054 481.635L613.038 482.255C612.535 480.791 611.708 479.624 610.557 478.752C609.406 477.88 607.97 477.445 606.25 477.445C604.451 477.434 602.954 477.836 601.758 478.651C600.574 479.456 599.68 480.59 599.077 482.054C598.473 483.517 598.166 485.216 598.155 487.149C598.144 489.071 598.44 490.758 599.043 492.21C599.646 493.663 600.546 494.802 601.741 495.629C602.948 496.445 604.451 496.858 606.25 496.869C607.803 496.881 609.11 496.585 610.172 495.981C611.233 495.378 612.054 494.506 612.635 493.367C613.216 492.227 613.568 490.858 613.691 489.26H608.563V486.797H616.842C616.876 487.02 616.892 487.288 616.892 487.601C616.903 487.903 616.909 488.11 616.909 488.221C616.909 490.422 616.496 492.395 615.669 494.138C614.853 495.869 613.641 497.233 612.032 498.227C610.434 499.221 608.457 499.719 606.099 499.719ZM620.257 499.216V481.115H622.921V485.489L622.486 484.92C622.698 484.361 622.972 483.847 623.307 483.378C623.653 482.908 624.039 482.523 624.463 482.221C624.933 481.841 625.463 481.551 626.056 481.35C626.648 481.149 627.251 481.031 627.866 480.998C628.48 480.953 629.056 480.992 629.592 481.115V483.914C628.966 483.746 628.279 483.702 627.53 483.78C626.782 483.858 626.089 484.132 625.452 484.601C624.871 485.015 624.419 485.517 624.095 486.11C623.782 486.702 623.564 487.344 623.441 488.037C623.318 488.719 623.257 489.417 623.257 490.132V499.216H620.257ZM640.143 499.719C638.344 499.719 636.791 499.311 635.484 498.495C634.188 497.679 633.188 496.551 632.484 495.11C631.78 493.668 631.428 492.015 631.428 490.149C631.428 488.249 631.786 486.584 632.501 485.154C633.216 483.724 634.227 482.612 635.534 481.819C636.842 481.015 638.378 480.612 640.143 480.612C641.953 480.612 643.512 481.02 644.819 481.836C646.127 482.64 647.127 483.763 647.819 485.205C648.523 486.635 648.875 488.283 648.875 490.149C648.875 492.037 648.523 493.702 647.819 495.143C647.115 496.573 646.11 497.696 644.802 498.512C643.495 499.316 641.942 499.719 640.143 499.719ZM640.143 496.886C642.02 496.886 643.417 496.26 644.333 495.009C645.249 493.758 645.708 492.138 645.708 490.149C645.708 488.104 645.244 486.478 644.316 485.272C643.389 484.054 641.998 483.445 640.143 483.445C638.881 483.445 637.842 483.73 637.026 484.3C636.21 484.869 635.601 485.657 635.199 486.663C634.797 487.668 634.596 488.83 634.596 490.149C634.596 492.182 635.065 493.814 636.004 495.043C636.942 496.272 638.322 496.886 640.143 496.886ZM655.765 499.216L650.235 481.098L653.201 481.115L657.24 494.355L661.313 481.115H663.944L668 494.355L672.056 481.115H675.006L669.475 499.216H666.994L662.62 485.456L658.246 499.216H655.765ZM688.139 499.216C687.066 499.428 686.004 499.512 684.954 499.467C683.915 499.434 682.988 499.227 682.172 498.847C681.356 498.456 680.736 497.853 680.312 497.037C679.954 496.322 679.759 495.601 679.725 494.875C679.703 494.138 679.692 493.305 679.692 492.378V476.087H682.675V492.244C682.675 492.981 682.68 493.612 682.692 494.138C682.714 494.663 682.831 495.115 683.044 495.495C683.446 496.21 684.083 496.629 684.954 496.752C685.837 496.875 686.898 496.842 688.139 496.652V499.216ZM676.021 483.579V481.115H688.139V483.579H676.021ZM704.702 499.216V490.149C704.702 489.288 704.624 488.462 704.467 487.668C704.322 486.875 704.059 486.165 703.679 485.54C703.311 484.903 702.808 484.4 702.171 484.031C701.545 483.663 700.752 483.478 699.791 483.478C699.043 483.478 698.361 483.607 697.746 483.864C697.143 484.11 696.623 484.489 696.188 485.003C695.752 485.517 695.411 486.165 695.165 486.948C694.931 487.719 694.813 488.629 694.813 489.679L692.853 489.076C692.853 487.322 693.165 485.819 693.791 484.568C694.428 483.305 695.316 482.339 696.456 481.668C697.607 480.987 698.959 480.646 700.512 480.646C701.685 480.646 702.685 480.83 703.512 481.199C704.339 481.568 705.026 482.059 705.573 482.674C706.121 483.277 706.551 483.959 706.864 484.719C707.177 485.467 707.395 486.233 707.517 487.015C707.651 487.786 707.719 488.517 707.719 489.21V499.216H704.702ZM691.797 499.216V475.082H694.478V488.406H694.813V499.216H691.797Z" fill="url(#paint1_linear_204_15106)" fill-opacity="0.2"/>
<path d="M103.166 419.599L280.121 310.453L310.896 333.961L462.205 234.47L495.972 261.337L685.75 113.569" stroke="url(#paint2_linear_204_15106)" stroke-opacity="0.2" stroke-width="8.6694"/>
<line x1="68.488" y1="101.432" x2="68.488" y2="450.809" stroke="white" stroke-opacity="0.05" stroke-width="1.73388"/>
<line x1="710.023" y1="451.676" x2="67.6208" y2="451.676" stroke="white" stroke-opacity="0.05" stroke-width="1.73388"/>
<defs>
<linearGradient id="paint0_linear_204_15106" x1="45.0811" y1="51.9805" x2="180.081" y2="51.9805" gradientUnits="userSpaceOnUse">
<stop stop-color="white"/>
<stop offset="1" stop-color="#999999" stop-opacity="0.5"/>
</linearGradient>
<linearGradient id="paint1_linear_204_15106" x1="613.696" y1="474.216" x2="613.696" y2="498.216" gradientUnits="userSpaceOnUse">
<stop stop-color="white"/>
<stop offset="1" stop-color="#CDCDCD" stop-opacity="0.5"/>
</linearGradient>
<linearGradient id="paint2_linear_204_15106" x1="114.707" y1="419.599" x2="682.509" y2="152.372" gradientUnits="userSpaceOnUse">
<stop stop-color="#E0D9FF"/>
<stop offset="1" stop-color="#A6A6A6"/>
</linearGradient>
</defs>
</svg>
