<svg width="144" height="142" viewBox="0 0 144 142" fill="none" xmlns="http://www.w3.org/2000/svg">
<rect width="143.794" height="141.283" rx="70.6414" fill="#A3A3A3" fill-opacity="0.2"/>
<rect x="1.25586" y="1.25586" width="140.655" height="138.203" rx="69.1017" fill="white" fill-opacity="0.05"/>
<rect x="1.25586" y="1.25586" width="140.655" height="138.203" rx="69.1017" fill="black" fill-opacity="0.8"/>
<path d="M71.9999 66.4286C76.4083 66.4286 80.5285 65.9167 84.3604 64.8929C88.1922 63.869 91.2149 62.3571 93.4284 60.3571V66.4286C93.4284 68.0714 92.4705 69.5952 90.5545 71C88.6386 72.4048 86.0345 73.5179 82.742 74.3393C79.4496 75.1607 75.8689 75.5714 71.9999 75.5714C68.1308 75.5714 64.5501 75.1607 61.2577 74.3393C57.9653 73.5179 55.3611 72.4048 53.4452 71C51.5293 69.5952 50.5713 68.0714 50.5713 66.4286V60.3571C52.7848 62.3571 55.8075 63.869 59.6394 64.8929C63.4712 65.9167 67.5914 66.4286 71.9999 66.4286ZM71.9999 93.8571C76.4083 93.8571 80.5285 93.3452 84.3604 92.3214C88.1922 91.2976 91.2149 89.7857 93.4284 87.7857V93.8571C93.4284 95.5 92.4705 97.0238 90.5545 98.4286C88.6386 99.8333 86.0345 100.946 82.742 101.768C79.4496 102.589 75.8689 103 71.9999 103C68.1308 103 64.5501 102.589 61.2577 101.768C57.9653 100.946 55.3611 99.8333 53.4452 98.4286C51.5293 97.0238 50.5713 95.5 50.5713 93.8571V87.7857C52.7848 89.7857 55.8075 91.2976 59.6394 92.3214C63.4712 93.3452 67.5914 93.8571 71.9999 93.8571ZM71.9999 80.1429C76.4083 80.1429 80.5285 79.631 84.3604 78.6071C88.1922 77.5833 91.2149 76.0714 93.4284 74.0714V80.1429C93.4284 81.7857 92.4705 83.3095 90.5545 84.7143C88.6386 86.119 86.0345 87.2321 82.742 88.0536C79.4496 88.875 75.8689 89.2857 71.9999 89.2857C68.1308 89.2857 64.5501 88.875 61.2577 88.0536C57.9653 87.2321 55.3611 86.119 53.4452 84.7143C51.5293 83.3095 50.5713 81.7857 50.5713 80.1429V74.0714C52.7848 76.0714 55.8075 77.5833 59.6394 78.6071C63.4712 79.631 67.5914 80.1429 71.9999 80.1429ZM71.9999 39C75.8689 39 79.4496 39.4107 82.742 40.2321C86.0345 41.0536 88.6386 42.1667 90.5545 43.5714C92.4705 44.9762 93.4284 46.5 93.4284 48.1429V52.7143C93.4284 54.3571 92.4705 55.881 90.5545 57.2857C88.6386 58.6905 86.0345 59.8036 82.742 60.625C79.4496 61.4464 75.8689 61.8571 71.9999 61.8571C68.1308 61.8571 64.5501 61.4464 61.2577 60.625C57.9653 59.8036 55.3611 58.6905 53.4452 57.2857C51.5293 55.881 50.5713 54.3571 50.5713 52.7143V48.1429C50.5713 46.5 51.5293 44.9762 53.4452 43.5714C55.3611 42.1667 57.9653 41.0536 61.2577 40.2321C64.5501 39.4107 68.1308 39 71.9999 39Z" fill="white" fill-opacity="0.3"/>
</svg>
