<svg width="144" height="142" viewBox="0 0 144 142" fill="none" xmlns="http://www.w3.org/2000/svg">
<rect width="143.794" height="141.283" rx="70.6414" fill="#A3A3A3" fill-opacity="0.2"/>
<rect x="1.25586" y="1.25586" width="140.655" height="138.203" rx="69.1017" fill="white" fill-opacity="0.05"/>
<rect x="1.25586" y="1.25586" width="140.655" height="138.203" rx="69.1017" fill="black" fill-opacity="0.8"/>
<g opacity="0.12">
<path d="M103.336 86.6568C99.7068 88.5483 80.908 96.2777 76.9058 98.3642C72.9037 100.451 70.6804 100.431 67.5186 98.9194C64.3572 97.408 44.3519 89.3271 40.7482 87.6045C38.9472 86.7439 38 86.0172 38 85.3308V78.4575C38 78.4575 64.0445 72.7877 68.2491 71.2792C72.4534 69.7707 73.9122 69.7163 77.4902 71.0269C81.0687 72.338 102.464 76.1981 106 77.4933L105.998 84.2694C105.999 84.9488 105.183 85.6942 103.336 86.6568Z" fill="#CACACA"/>
<path d="M103.334 79.8243C99.7057 81.715 80.9074 89.4447 76.9052 91.5309C72.9033 93.6179 70.6801 93.5975 67.5186 92.0861C64.3568 90.5757 44.3524 82.4935 40.7489 80.772C37.1454 79.0495 37.07 77.864 40.6097 76.4779C44.1494 75.0914 64.0442 67.286 68.2493 65.7775C72.4536 64.2695 73.9122 64.2146 77.4901 65.5257C81.0684 66.8363 99.7546 74.274 103.29 75.569C106.827 76.8655 106.963 77.933 103.334 79.8243Z" fill="white"/>
<path d="M103.336 75.5355C99.7068 77.4273 80.908 85.1565 76.9058 87.2438C72.9037 89.3297 70.6804 89.3095 67.5186 87.7981C64.3569 86.2875 44.3519 78.2059 40.7482 76.4833C38.9472 75.6227 38 74.897 38 74.2103V67.3362C38 67.3362 64.0445 61.6667 68.2491 60.1582C72.4534 58.6498 73.9122 58.595 77.4902 59.9059C81.069 61.2168 102.464 65.076 106 66.3715L105.998 73.1484C105.999 73.8276 105.183 74.5729 103.336 75.5355Z" fill="#CACACA"/>
<path d="M103.334 68.7026C99.7057 70.5938 80.9074 78.323 76.9052 80.41C72.9033 82.4962 70.6801 82.4758 67.5186 80.9644C64.3568 79.454 44.3524 71.3721 40.7489 69.6503C37.1454 67.9283 37.07 66.7425 40.6097 65.356C44.1494 63.9702 64.0445 56.1643 68.2493 54.6561C72.4536 53.1478 73.9122 53.0931 77.4901 54.404C81.0684 55.7146 99.7546 63.1518 103.29 64.4473C106.827 65.7435 106.963 66.8113 103.334 68.7026Z" fill="white"/>
<path d="M103.336 64.0018C99.7068 65.893 80.908 73.6227 76.9058 75.71C72.9037 77.7962 70.6804 77.7758 67.5186 76.2644C64.3569 74.7538 44.3519 66.6719 40.7482 64.9501C38.9472 64.0887 38 63.3627 38 62.6769V55.8025C38 55.8025 64.0445 50.1332 68.2491 48.625C72.4534 47.1163 73.9122 47.0621 77.4902 48.3727C81.069 49.6835 102.464 53.5428 106 54.8383L105.998 61.6149C105.999 62.2936 105.183 63.0389 103.336 64.0018Z" fill="#CACACA"/>
<path d="M103.334 57.169C99.7056 59.0603 80.9073 66.79 76.9051 68.8762C72.9032 70.9624 70.6799 70.942 67.5185 69.4314C64.357 67.92 44.3522 59.8386 40.749 58.1165C37.1453 56.3948 37.0701 55.2087 40.6096 53.8224C44.1493 52.4364 64.0443 44.6315 68.2492 43.1228C72.4535 41.6143 73.912 41.5601 77.49 42.871C81.0683 44.1818 99.7544 51.6191 103.29 52.9145C106.827 54.2097 106.963 55.2778 103.334 57.169Z" fill="white"/>
<path d="M80.3094 50.4825L74.463 51.0895L73.1542 54.2387L71.0404 50.7245L64.2895 50.1178L69.3268 48.3012L67.8154 45.5127L72.5316 47.3572L76.9776 45.9016L75.7759 48.7849L80.3094 50.4825ZM72.8052 65.7608L61.8941 61.2353L77.5288 58.8354L72.8052 65.7608ZM57.6779 52.233C62.2931 52.233 66.0344 53.6833 66.0344 55.472C66.0344 57.2613 62.2931 58.7113 57.6779 58.7113C53.0626 58.7113 49.3213 57.261 49.3213 55.472C49.3213 53.6833 53.0626 52.233 57.6779 52.233Z" fill="#B1B1B1" fill-opacity="0.4"/>
<path d="M87.2188 51.3435L96.4721 55.0001L87.2267 58.6533L87.2188 51.3435Z" fill="#939393" fill-opacity="0.4"/>
<path d="M76.9814 55.3927L87.2186 51.3433L87.2266 58.653L86.2228 59.0456L76.9814 55.3927Z" fill="#DFDFDF" fill-opacity="0.5"/>
</g>
</svg>
