<svg width="114" height="112" viewBox="0 0 114 112" fill="none" xmlns="http://www.w3.org/2000/svg">
<rect width="114" height="112.009" rx="56.0044" fill="#A3A3A3" fill-opacity="0.2"/>
<rect x="0.996094" y="0.995605" width="111.511" height="109.567" rx="54.7837" fill="white" fill-opacity="0.05"/>
<rect x="0.996094" y="0.995605" width="111.511" height="109.567" rx="54.7837" fill="black" fill-opacity="0.8"/>
<path d="M53.2486 50.8375C52.1397 51.4777 51.2455 52.4324 50.6792 53.5808C50.1129 54.7292 49.8998 56.0197 50.067 57.2892C50.2341 58.5587 50.774 59.7502 51.6182 60.7128C52.4625 61.6755 53.5733 62.3662 54.8101 62.6976C56.047 63.029 57.3543 62.9861 58.5668 62.5745C59.7792 62.1629 60.8424 61.401 61.6219 60.3851C62.4013 59.3692 62.862 58.145 62.9457 56.8673C63.0294 55.5896 62.7323 54.3157 62.092 53.2069C61.2334 51.72 59.8194 50.6352 58.161 50.1908C56.5026 49.7465 54.7355 49.9791 53.2486 50.8375ZM82.2656 57.8616C81.8406 57.3758 81.3921 56.8888 80.9202 56.4004C81.2498 56.0539 81.5688 55.7078 81.8772 55.3619C87.6983 48.8214 90.1551 42.2622 87.8787 38.3188C85.6958 34.5379 79.2025 33.4112 71.0734 34.9918C70.2727 35.1485 69.4764 35.3252 68.6845 35.5219C68.533 34.9994 68.3717 34.4798 68.2009 33.9632C65.4431 25.6528 60.9883 20.2471 56.4352 20.25C52.0692 20.252 47.8495 25.3145 45.1576 33.1459C44.8928 33.9185 44.6478 34.6975 44.4226 35.483C43.8932 35.3531 43.3615 35.2331 42.8276 35.1231C34.2509 33.3621 27.3428 34.5219 25.0708 38.4675C22.8921 42.2511 25.1706 48.4356 30.6116 54.6789C31.1512 55.2966 31.7061 55.9005 32.2763 56.4905C31.6041 57.1829 30.9677 57.8749 30.3744 58.563C25.0652 64.7182 22.9171 70.8015 25.0922 74.5688C27.3386 78.4602 34.1494 79.7322 42.4393 78.1009C43.1111 77.9677 43.7792 77.8179 44.4436 77.6514C44.687 78.501 44.954 79.3432 45.2446 80.178C47.9246 87.8523 52.1206 92.7518 56.4712 92.7502C60.9642 92.7476 65.4682 87.4835 68.1971 79.4873C68.4126 78.8553 68.6166 78.1991 68.81 77.5234C69.6683 77.7369 70.532 77.9264 71.4013 78.0918C79.3885 79.603 85.7292 78.4144 87.9003 74.6444C90.1423 70.7502 87.8308 64.2188 82.2656 57.8616ZM27.7547 40.0129C29.1534 37.5842 34.7989 36.6366 42.2042 38.1569C42.6775 38.2542 43.1589 38.363 43.6483 38.4832C42.9254 41.6814 42.4152 44.924 42.1213 48.1897C39.4493 50.0695 36.9018 52.1202 34.4947 54.329C33.9643 53.7806 33.4482 53.2188 32.9461 52.6438C28.2841 47.2943 26.4417 42.2929 27.7547 40.0129ZM41.8438 60.7772C39.993 59.3758 38.273 57.9401 36.7119 56.4961C38.2719 55.0611 39.993 53.6302 41.84 52.2326C41.7737 53.6564 41.7408 55.0812 41.7414 56.5072C41.7424 57.9311 41.7765 59.3544 41.8438 60.7772ZM41.8416 75.062C38.6997 75.7606 35.456 75.875 32.2727 75.3996C31.4 75.3316 30.5505 75.0855 29.7768 74.6762C29.003 74.267 28.3214 73.7035 27.774 73.0205C26.4543 70.7343 28.1792 65.8502 32.7197 60.5859C33.2905 59.9261 33.8801 59.2836 34.4884 58.6583C36.8958 60.8787 39.4475 62.9375 42.1267 64.8211C42.4246 68.1285 42.9408 71.4127 43.6717 74.6521C43.0651 74.8037 42.4551 74.9404 41.8416 75.062ZM67.5832 45.9193C66.3674 45.1532 65.1366 44.4117 63.8907 43.6948C62.6648 42.9891 61.424 42.31 60.1686 41.6573C62.3182 40.7535 64.4313 39.9815 66.4712 39.3525C66.9521 41.5213 67.3232 43.713 67.5832 45.9193ZM48.0866 34.1526C50.3929 27.4423 53.8055 23.3482 56.4369 23.3471C59.2393 23.3458 62.8804 27.7633 65.2613 34.9385C65.416 35.4062 65.5622 35.8766 65.6999 36.3496C62.572 37.3198 59.5116 38.4959 56.539 39.8702C53.5787 38.4797 50.528 37.2905 47.4076 36.3107C47.6162 35.5859 47.8425 34.8665 48.0866 34.1526ZM46.6353 39.3139C48.7631 39.9838 50.8557 40.7605 52.9053 41.6411C50.3658 42.9517 47.8919 44.3792 45.4836 45.9237C45.7746 43.611 46.1617 41.3951 46.6353 39.3139ZM45.4889 67.0838C46.6899 67.8527 47.9084 68.593 49.1445 69.305C50.4054 70.0309 51.683 70.7264 52.9775 71.3914C50.9122 72.3025 48.8016 73.107 46.6538 73.8017C46.1748 71.6917 45.7834 69.4369 45.4889 67.0838ZM65.2658 78.4863C64.3014 81.5572 62.7801 84.4243 60.7777 86.9443C60.2829 87.6662 59.6451 88.2792 58.9041 88.7449C58.1632 89.2107 57.3346 89.5196 56.4695 89.6524C53.8298 89.654 50.4605 85.7193 48.1686 79.1564C47.8986 78.3805 47.6503 77.5975 47.4236 76.8074C50.5589 75.796 53.622 74.5731 56.5919 73.1473C59.589 74.5305 62.6737 75.7154 65.826 76.6944C65.6539 77.296 65.4672 77.8934 65.2658 78.4863ZM66.5789 73.686C64.5155 73.048 62.3718 72.2631 60.1912 71.346C61.4205 70.6991 62.6587 70.0159 63.9058 69.2964C65.1855 68.5574 66.4326 67.7999 67.6471 67.0239C67.4052 69.2614 67.0487 71.485 66.5789 73.686ZM68.1967 56.4938C68.1994 58.6953 68.1307 60.895 67.9905 63.0929C66.2046 64.3016 64.3191 65.4818 62.3573 66.6143C60.4036 67.7423 58.4679 68.7789 56.5691 69.717C54.571 68.7594 52.6113 67.7275 50.6902 66.6212C48.7799 65.5216 46.9134 64.3508 45.0908 63.1086C44.9242 60.9113 44.8402 58.7101 44.839 56.5049C44.8374 54.3012 44.92 52.1005 45.0857 49.9014C46.8712 48.682 48.743 47.5028 50.6783 46.3855C52.6224 45.2628 54.5824 44.2307 56.5315 43.2952C58.5051 44.2543 60.443 45.2822 62.3454 46.3788C64.2543 47.476 66.126 48.6344 67.9605 49.854C68.118 52.0639 68.1966 54.2772 68.1967 56.4938ZM71.6649 38.0323C78.6297 36.6776 83.8811 37.5889 85.1967 39.8673C86.5981 42.2947 84.5896 47.6557 79.564 53.3029C79.2864 53.6144 78.9981 53.9275 78.6996 54.2417C76.2508 52.0281 73.6542 49.9839 70.9277 48.1232C70.6526 44.8932 70.1616 41.6852 69.4579 38.5208C70.2079 38.3363 70.9435 38.1735 71.6649 38.0323ZM71.1941 52.1143C73.0331 53.4571 74.8013 54.8943 76.4915 56.4202C74.8088 57.9713 73.0462 59.4333 71.2109 60.8004C71.2671 59.3651 71.2947 57.9291 71.2938 56.4924C71.2932 55.0327 71.2599 53.5733 71.1941 52.1143ZM85.2159 73.0986C83.8984 75.3865 78.8074 76.3406 71.9766 75.0483C71.1938 74.9005 70.3906 74.7246 69.5669 74.5206C70.2536 71.3154 70.7228 68.0676 70.9715 64.7992C73.6934 62.906 76.2818 60.8277 78.7184 58.5791C79.1448 59.0221 79.5503 59.463 79.9351 59.9018C82.1139 62.2709 83.8381 65.0206 85.0212 68.014C85.3996 68.8032 85.6121 69.6616 85.6456 70.5361C85.6791 71.4107 85.5328 72.2828 85.2159 73.0986Z" fill="white" fill-opacity="0.5"/>
</svg>
