<svg width="89" height="88" viewBox="0 0 89 88" fill="none" xmlns="http://www.w3.org/2000/svg">
<rect width="89" height="87.4454" rx="43.7227" fill="#A3A3A3" fill-opacity="0.2"/>
<rect x="0.777344" y="0.777344" width="87.0568" height="85.5395" rx="42.7697" fill="white" fill-opacity="0.05"/>
<rect x="0.777344" y="0.777344" width="87.0568" height="85.5395" rx="42.7697" fill="black" fill-opacity="0.8"/>
<path d="M58.9375 37.5864C57.1564 36.973 55.5842 35.87 54.4012 34.4039C53.0975 32.7705 51.4374 31.4569 49.5479 30.5636C47.6585 29.6704 45.5898 29.2211 43.5 29.2502C40.6889 29.0511 37.9059 29.9181 35.7053 31.6786C33.5046 33.4391 32.0478 35.9639 31.625 38.7502C32.4578 37.3566 33.7113 36.2633 35.2051 35.6273C36.6988 34.9914 38.3558 34.8458 39.9375 35.2114C41.7156 35.8427 43.2853 36.9522 44.4737 38.4177C45.7847 40.0381 47.4479 41.3381 49.337 42.2189C51.226 43.0996 53.2911 43.5378 55.375 43.5002C58.1861 43.6993 60.9691 42.8322 63.1697 41.0717C65.3704 39.3112 66.8271 36.7865 67.25 34.0002C66.4323 35.4104 65.1828 36.5203 63.686 37.1661C62.1892 37.8118 60.5245 37.9592 58.9375 37.5864ZM28.0625 49.4139C29.8436 50.0274 31.4158 51.1304 32.5987 52.5964C33.9025 54.2299 35.5626 55.5435 37.4521 56.4368C39.3415 57.33 41.4102 57.7793 43.5 57.7502C46.3111 57.9493 49.0941 57.0822 51.2947 55.3217C53.4954 53.5612 54.9521 51.0365 55.375 48.2502C54.5422 49.6437 53.2887 50.7371 51.7949 51.373C50.3012 52.0089 48.6442 52.1546 47.0625 51.7889C45.2844 51.1576 43.7147 50.0482 42.5263 48.5827C41.2118 46.9663 39.5479 45.6691 37.6597 44.7888C35.7714 43.9084 33.7081 43.4678 31.625 43.5002C28.8139 43.3011 26.0309 44.1681 23.8303 45.9286C21.6296 47.6891 20.1728 50.2139 19.75 53.0002C20.5677 51.59 21.8172 50.4801 23.314 49.8343C24.8108 49.1886 26.4755 49.0412 28.0625 49.4139Z" fill="white" fill-opacity="0.5"/>
</svg>
